<?xml version="1.0" encoding="iso-8859-1"?>
<!-- Generator: Adobe Illustrator 19.0.0, SVG Export Plug-In . SVG Version: 6.00 Build 0)  -->
<svg version="1.1" id="Capa_1" xmlns="http://www.w3.org/2000/svg" xmlns:xlink="http://www.w3.org/1999/xlink" x="0px" y="0px"
	 viewBox="0 0 512 512" style="enable-background:new 0 0 512 512;" xml:space="preserve">
<g>
	<path style="fill:#FFBC44;" d="M256,58.439c78.092,0,153.776,27.032,214.198,76.504C427.947,60.345,347.852,10.003,256,10.003
		S84.054,60.345,41.803,134.943C102.225,85.471,177.909,58.439,256,58.439z"/>
	<path style="fill:#FF3D53;" d="M470.198,134.943C409.776,85.47,334.092,58.438,256,58.438c-78.091,0-153.776,27.032-214.197,76.504
		c-20.243,35.74-31.8,77.049-31.8,121.057c0,135.86,110.137,245.997,245.997,245.997S501.997,391.86,501.997,256
		C501.997,211.992,490.441,170.683,470.198,134.943L470.198,134.943z M278.598,198.161l21.822,38.534l43.699,8.907
		c13.955,2.847,22.962,16.469,20.115,30.425c-1.068,5.237-3.653,9.776-7.204,13.253l-29.141,31.826l5.052,44.488
		c1.564,14.179-8.664,26.943-22.842,28.505c-5.365,0.591-10.524-0.505-14.954-2.864l-39.162-17.832l-40.574,18.472
		c-12.951,5.917-28.248,0.215-34.165-12.736c-2.009-4.396-2.678-9.062-2.18-13.539l-0.044-0.006l5.053-44.488l-30.078-32.849
		c-9.601-10.495-8.878-26.786,1.618-36.388c3.571-3.268,7.815-5.339,12.236-6.237l-0.006-0.03l43.7-8.907l21.999-38.849
		c7.033-12.393,22.782-16.737,35.175-9.704C273.034,190.593,276.374,194.102,278.598,198.161z"/>
	<path style="fill:#FFBC44;" d="M344.119,245.603l-43.699-8.907l-21.822-38.534c-2.224-4.058-5.563-7.567-9.882-10.019
		c-12.393-7.033-28.142-2.689-35.175,9.704l-21.999,38.849l-43.7,8.907l0.006,0.03c-4.421,0.898-8.665,2.969-12.236,6.237
		c-10.495,9.601-11.219,25.892-1.618,36.388l30.078,32.849l-5.053,44.488l0.044,0.006c-0.498,4.478,0.171,9.143,2.18,13.539
		c5.917,12.951,21.214,18.653,34.165,12.736l40.574-18.472l39.162,17.832c4.429,2.359,9.589,3.455,14.954,2.864
		c14.178-1.563,24.406-14.325,22.842-28.505l-5.052-44.488l29.141-31.826c3.551-3.477,6.136-8.018,7.204-13.253
		C367.081,262.072,358.074,248.45,344.119,245.603z"/>
</g>
<path d="M479.52,131.33c-0.331-0.856-0.786-1.67-1.354-2.421C433.966,51.947,350.936,0,256,0C161.061,0,78.03,51.95,33.833,128.915
	c-0.566,0.747-1.019,1.557-1.349,2.41C11.81,168.242,0,210.765,0,256c0,141.159,114.841,256,256,256s256-114.841,256-256
	C512,210.767,500.191,168.245,479.52,131.33z M256,20.006c67.068,0,127.69,28.123,170.697,73.195
	C374.856,64.079,315.948,48.435,256,48.435c-59.949,0-118.856,15.644-170.697,44.766C128.309,48.13,188.932,20.006,256,20.006z
	 M256,491.994C125.873,491.994,20.006,386.128,20.006,256c0-41.578,10.822-80.671,29.777-114.633
	C107.992,94.333,181.133,68.442,256,68.442s148.007,25.891,206.215,72.923c18.955,33.963,29.778,73.056,29.778,114.635
	C491.994,386.128,386.127,491.994,256,491.994z"/>
<path d="M346.116,235.802l-39.237-7.998l-19.546-34.516c-3.186-5.787-7.915-10.573-13.68-13.844
	c-5.384-3.055-11.486-4.67-17.65-4.67c-12.873,0-24.814,6.949-31.167,18.145l-19.755,34.887l-39.237,7.998
	c-0.306,0.062-0.605,0.138-0.896,0.226c-5.987,1.38-11.532,4.293-16.088,8.461c-14.548,13.309-15.555,35.972-2.243,50.524
	l27.002,29.49l-4.538,39.963c-0.043,0.381-0.063,0.76-0.063,1.134c-0.482,6.05,0.592,12.146,3.128,17.696
	c5.807,12.71,18.589,20.922,32.565,20.921c5.148,0,10.147-1.091,14.844-3.237l36.429-16.585l34.758,15.826
	c5.08,2.644,10.775,4.039,16.496,4.039c1.313,0,2.647-0.073,3.958-0.218c19.639-2.166,33.855-19.904,31.687-39.577l-4.538-39.964
	l25.896-28.282c4.997-4.974,8.382-11.258,9.797-18.195c1.911-9.367,0.06-18.919-5.214-26.894
	C363.549,243.157,355.485,237.712,346.116,235.802z M354.434,274.027c-0.633,3.104-2.156,5.907-4.401,8.107
	c-0.13,0.127-0.257,0.257-0.379,0.392l-29.141,31.826c-1.954,2.134-2.889,5.009-2.562,7.884L323,366.69
	c0.956,8.675-5.323,16.509-13.996,17.466c-3.162,0.35-6.368-0.266-9.155-1.751c-0.183-0.097-0.369-0.189-0.558-0.275l-39.162-17.832
	c-1.316-0.599-2.731-0.899-4.145-0.899s-2.828,0.3-4.145,0.899l-40.585,18.478c-2.082,0.951-4.283,1.433-6.543,1.433
	c-6.167,0.001-11.806-3.622-14.367-9.228c-1.188-2.599-1.65-5.461-1.336-8.276c0.034-0.308,0.054-0.615,0.06-0.92l4.947-43.552
	c0.326-2.875-0.608-5.75-2.563-7.884l-30.075-32.846c-5.863-6.409-5.419-16.393,0.989-22.256c2.11-1.931,4.694-3.25,7.476-3.814
	c0.262-0.053,0.52-0.117,0.773-0.189l42.927-8.75c2.835-0.578,5.281-2.355,6.706-4.873l21.995-38.841
	c2.802-4.938,8.076-8.005,13.763-8.005c2.708,0,5.397,0.713,7.775,2.064c2.555,1.45,4.644,3.568,6.046,6.126
	c0.023,0.041,0.046,0.082,0.069,0.123l21.821,38.535c1.425,2.518,3.871,4.294,6.706,4.873l43.698,8.907
	c4.132,0.842,7.688,3.244,10.014,6.762C354.459,265.684,355.275,269.896,354.434,274.027z"/>
<path d="M54.793,191.731c-5.34-1.431-10.82,1.738-12.251,7.073c-4.62,17.244-7.14,35.035-7.488,52.881
	c-0.108,5.524,4.282,10.088,9.806,10.196c0.066,0.001,0.133,0.002,0.199,0.002c5.434,0,9.891-4.351,9.997-9.808
	c0.316-16.229,2.608-32.41,6.811-48.093C63.297,198.646,60.13,193.161,54.793,191.731z"/>
<path d="M45.242,269.503c-5.492,0.596-9.461,5.532-8.865,11.024l0.039,0.341c0.628,5.063,4.935,8.755,9.907,8.755
	c0.412,0,0.829-0.025,1.248-0.078c5.483-0.68,9.374-5.694,8.694-11.177C55.671,272.876,50.734,268.904,45.242,269.503z"/>
<path d="M441.796,356.478c-4.732-2.856-10.879-1.336-13.733,3.393c-8.392,13.899-18.467,26.766-29.945,38.245
	c-3.906,3.906-3.906,10.24,0,14.146c1.954,1.954,4.513,2.93,7.073,2.93c2.56,0,5.12-0.977,7.073-2.93
	c12.621-12.621,23.698-26.769,32.924-42.051C448.044,365.482,446.524,359.334,441.796,356.478z"/>
<path d="M453.364,331.181c-5.068-2.198-10.958,0.132-13.155,5.201l-0.064,0.147c-2.213,5.063,0.099,10.959,5.161,13.171
	c1.304,0.57,2.663,0.839,4,0.839c3.855,0,7.528-2.242,9.171-6.001l0.089-0.203C460.762,339.267,458.434,333.377,453.364,331.181z"/>
<g>
</g>
<g>
</g>
<g>
</g>
<g>
</g>
<g>
</g>
<g>
</g>
<g>
</g>
<g>
</g>
<g>
</g>
<g>
</g>
<g>
</g>
<g>
</g>
<g>
</g>
<g>
</g>
<g>
</g>
</svg>
