<svg height="512" viewBox="0 0 64 64" width="512" xmlns="http://www.w3.org/2000/svg"><g id="Telephone-2" data-name="Telephone"><path d="m3 21a2 2 0 0 0 2 2h12a2 2 0 0 0 2-2v-2h-16z" fill="#ff7956"/><path d="m45 21a2 2 0 0 0 2 2h12a2 2 0 0 0 2-2v-2h-16z" fill="#ff7956"/><path d="m57 19v2a2 2 0 0 1 -2 2h4a2 2 0 0 0 2-2v-2z" fill="#ff6243"/><path d="m45 3h-26a16 16 0 0 0 -16 16h16v-2a6 6 0 0 1 6-6h14a6 6 0 0 1 6 6v2h16a16 16 0 0 0 -16-16z" fill="#ffcd00"/><path d="m45 3h-4a16 16 0 0 1 16 16h4a16 16 0 0 0 -16-16z" fill="#ebbf00"/><path d="m61 31v22h-58v-22a4 4 0 0 1 4-4h10a6 6 0 0 0 6-6h18a6 6 0 0 0 6 6h10a4 4 0 0 1 4 4z" fill="#ebbf00"/><path d="m7 57h50a4 4 0 0 0 4-4h-58a4 4 0 0 0 4 4z" fill="#006df0"/><path d="m9 59a2 2 0 0 0 2 2h4a2 2 0 0 0 2-2v-2h-8z" fill="#58595b"/><path d="m47 59a2 2 0 0 0 2 2h4a2 2 0 0 0 2-2v-2h-8z" fill="#58595b"/><path d="m30 17a2 2 0 0 0 -4 0v4h4z" fill="#006df0"/><path d="m38 17a2 2 0 0 0 -4 0v4h4z" fill="#006df0"/><g fill="#d80027"><path d="m38 31h4v4h-4z"/><path d="m30 31h4v4h-4z"/><path d="m38 38h4v4h-4z"/><path d="m30 38h4v4h-4z"/><path d="m38 45h4v4h-4z"/><path d="m30 45h4v4h-4z"/><path d="m22 31h4v4h-4z"/><path d="m22 38h4v4h-4z"/><path d="m22 45h4v4h-4z"/></g><path d="m61 31a4 4 0 0 0 -4-4 4 4 0 0 1 4 4z" fill="#ebbf00"/><path d="m7 27a4 4 0 0 0 -4 4 4 4 0 0 1 4-4z" fill="#ebbf00"/><path d="m44.077 53h16.923v-21.92a35.215 35.215 0 0 1 -16.923 21.92z" fill="#ddb200"/><path d="m33.79 57h23.21a4 4 0 0 0 4-4h-16.923a37.987 37.987 0 0 1 -10.287 4z" fill="#005ece"/><path d="m45 2h-26a17.019 17.019 0 0 0 -17 17v2a3 3 0 0 0 3 3h12a3 3 0 0 0 3-3v-4a5.006 5.006 0 0 1 5-5h14a5.006 5.006 0 0 1 5 5v4a3 3 0 0 0 3 3h12a3 3 0 0 0 3-3v-2a17.019 17.019 0 0 0 -17-17zm-27 19a1 1 0 0 1 -1 1h-12a1 1 0 0 1 -1-1v-1h14zm21-11h-14a7.008 7.008 0 0 0 -7 7v1h-13.967a15.021 15.021 0 0 1 14.967-14h26a15.021 15.021 0 0 1 14.967 14h-13.967v-1a7.008 7.008 0 0 0 -7-7zm21 11a1 1 0 0 1 -1 1h-12a1 1 0 0 1 -1-1v-1h14z"/><path d="m57 26h-10a5.006 5.006 0 0 1 -5-5 1 1 0 0 0 -1-1h-2v-3a3 3 0 0 0 -6 0v3h-2v-3a3 3 0 0 0 -6 0v3h-2a1 1 0 0 0 -1 1 5.006 5.006 0 0 1 -5 5h-10a5.006 5.006 0 0 0 -5 5v22a5.006 5.006 0 0 0 5 5h1v1a3 3 0 0 0 3 3h4a3 3 0 0 0 3-3v-1h28v1a3 3 0 0 0 3 3h4a3 3 0 0 0 3-3v-1h1a5.006 5.006 0 0 0 5-5v-22a5.006 5.006 0 0 0 -5-5zm-22-9a1 1 0 0 1 2 0v3h-2zm-8 0a1 1 0 0 1 2 0v3h-2zm-23 14a3 3 0 0 1 3-3h10a7.011 7.011 0 0 0 6.929-6h16.142a7.011 7.011 0 0 0 6.929 6h10a3 3 0 0 1 3 3v21h-56zm12 28a1 1 0 0 1 -1 1h-4a1 1 0 0 1 -1-1v-1h6zm38 0a1 1 0 0 1 -1 1h-4a1 1 0 0 1 -1-1v-1h6zm3-3h-50a3.006 3.006 0 0 1 -2.829-2h55.658a3.006 3.006 0 0 1 -2.829 2z"/><path d="m42 30h-4a1 1 0 0 0 -1 1v4a1 1 0 0 0 1 1h4a1 1 0 0 0 1-1v-4a1 1 0 0 0 -1-1zm-1 4h-2v-2h2z"/><path d="m34 30h-4a1 1 0 0 0 -1 1v4a1 1 0 0 0 1 1h4a1 1 0 0 0 1-1v-4a1 1 0 0 0 -1-1zm-1 4h-2v-2h2z"/><path d="m42 37h-4a1 1 0 0 0 -1 1v4a1 1 0 0 0 1 1h4a1 1 0 0 0 1-1v-4a1 1 0 0 0 -1-1zm-1 4h-2v-2h2z"/><path d="m34 37h-4a1 1 0 0 0 -1 1v4a1 1 0 0 0 1 1h4a1 1 0 0 0 1-1v-4a1 1 0 0 0 -1-1zm-1 4h-2v-2h2z"/><path d="m42 44h-4a1 1 0 0 0 -1 1v4a1 1 0 0 0 1 1h4a1 1 0 0 0 1-1v-4a1 1 0 0 0 -1-1zm-1 4h-2v-2h2z"/><path d="m34 44h-4a1 1 0 0 0 -1 1v4a1 1 0 0 0 1 1h4a1 1 0 0 0 1-1v-4a1 1 0 0 0 -1-1zm-1 4h-2v-2h2z"/><path d="m26 30h-4a1 1 0 0 0 -1 1v4a1 1 0 0 0 1 1h4a1 1 0 0 0 1-1v-4a1 1 0 0 0 -1-1zm-1 4h-2v-2h2z"/><path d="m26 37h-4a1 1 0 0 0 -1 1v4a1 1 0 0 0 1 1h4a1 1 0 0 0 1-1v-4a1 1 0 0 0 -1-1zm-1 4h-2v-2h2z"/><path d="m26 44h-4a1 1 0 0 0 -1 1v4a1 1 0 0 0 1 1h4a1 1 0 0 0 1-1v-4a1 1 0 0 0 -1-1zm-1 4h-2v-2h2z"/></g></svg>