<svg xmlns="http://www.w3.org/2000/svg" xmlns:xlink="http://www.w3.org/1999/xlink" viewBox="0 0 31.824 43.041">
  <defs>
    <style>
      .cls-1 {
        fill: none;
      }

      .cls-2 {
        isolation: isolate;
      }

      .cls-3 {
        mix-blend-mode: multiply;
        fill: url(#radial-gradient);
      }

      .cls-4 {
        fill: #404a8c;
      }

      .cls-5 {
        fill: url(#radial-gradient-2);
      }

      .cls-6 {
        fill: url(#radial-gradient-3);
      }

      .cls-7 {
        fill: url(#radial-gradient-4);
      }

      .cls-11, .cls-13, .cls-14, .cls-8 {
        mix-blend-mode: screen;
      }

      .cls-8 {
        fill: url(#linear-gradient);
      }

      .cls-9 {
        fill: url(#radial-gradient-5);
      }

      .cls-10 {
        fill: #426497;
      }

      .cls-11 {
        fill: url(#radial-gradient-6);
      }

      .cls-12 {
        fill: #8599c9;
      }

      .cls-13 {
        fill: url(#radial-gradient-7);
      }

      .cls-15 {
        clip-path: url(#clip-path);
      }

      .cls-16 {
        fill: #000101;
      }

      .cls-17 {
        fill: #000102;
      }

      .cls-18 {
        fill: #010203;
      }

      .cls-19 {
        fill: #010204;
      }

      .cls-20 {
        fill: #010305;
      }

      .cls-21 {
        fill: #010306;
      }

      .cls-22 {
        fill: #020407;
      }

      .cls-23 {
        fill: #020408;
      }

      .cls-24 {
        fill: #020509;
      }

      .cls-25 {
        fill: #02060a;
      }

      .cls-26 {
        fill: #03060b;
      }

      .cls-27 {
        fill: #03070c;
      }

      .cls-28 {
        fill: #03070d;
      }

      .cls-29 {
        fill: #03080e;
      }

      .cls-30 {
        fill: #04080f;
      }

      .cls-31 {
        fill: #040910;
      }

      .cls-32 {
        fill: #040911;
      }

      .cls-33 {
        fill: #040a12;
      }

      .cls-34 {
        fill: #050a13;
      }

      .cls-35 {
        fill: #050b14;
      }

      .cls-36 {
        fill: #050c15;
      }

      .cls-37 {
        fill: #050c16;
      }

      .cls-38 {
        fill: #060d17;
      }

      .cls-39 {
        fill: #060d18;
      }

      .cls-40 {
        fill: #060e19;
      }

      .cls-41 {
        fill: #060e1a;
      }

      .cls-42 {
        fill: #070f1b;
      }

      .cls-43 {
        fill: #070f1c;
      }

      .cls-44 {
        fill: #07101d;
      }

      .cls-45 {
        fill: #07111e;
      }

      .cls-46 {
        fill: #07111f;
      }

      .cls-47 {
        fill: #081220;
      }

      .cls-48 {
        fill: #081221;
      }

      .cls-49 {
        fill: #081322;
      }

      .cls-50 {
        fill: #081323;
      }

      .cls-51 {
        fill: #091424;
      }

      .cls-52 {
        fill: #091425;
      }

      .cls-53 {
        fill: #091526;
      }

      .cls-54 {
        fill: #091527;
      }

      .cls-55 {
        fill: #0a1628;
      }

      .cls-56 {
        fill: #0a1729;
      }

      .cls-57 {
        fill: #0a172a;
      }

      .cls-58 {
        fill: #0a182b;
      }

      .cls-59 {
        fill: #0b182c;
      }

      .cls-60 {
        fill: #0b192d;
      }

      .cls-61 {
        fill: #0b192e;
      }

      .cls-62 {
        fill: #0b1a2f;
      }

      .cls-63 {
        fill: #0c1a30;
      }

      .cls-64 {
        fill: #0c1b31;
      }

      .cls-65 {
        fill: #0c1c32;
      }

      .cls-66 {
        fill: #0c1c33;
      }

      .cls-67 {
        fill: #0d1d34;
      }

      .cls-68 {
        fill: #0d1d35;
      }

      .cls-69 {
        fill: #0d1e36;
      }

      .cls-70 {
        fill: #0d1e37;
      }

      .cls-71 {
        fill: #0e1f38;
      }

      .cls-72 {
        fill: #0e1f39;
      }

      .cls-73 {
        fill: #0e203a;
      }

      .cls-74 {
        fill: #0e203b;
      }

      .cls-75 {
        fill: #0e213c;
      }

      .cls-76 {
        fill: #0f223d;
      }

      .cls-77 {
        fill: #0f223e;
      }

      .cls-78 {
        fill: #0f233f;
      }

      .cls-79 {
        fill: #0f2340;
      }

      .cls-80 {
        fill: #102441;
      }

      .cls-81 {
        fill: #102442;
      }

      .cls-82 {
        fill: #102543;
      }

      .cls-83 {
        fill: #102544;
      }

      .cls-84 {
        fill: #112645;
      }

      .cls-85 {
        fill: #112746;
      }

      .cls-86 {
        fill: #112747;
      }

      .cls-87 {
        fill: #112848;
      }

      .cls-88 {
        fill: #122849;
      }

      .cls-89 {
        fill: #12294a;
      }

      .cls-90 {
        fill: #12294c;
      }

      .cls-91 {
        fill: #122a4d;
      }

      .cls-92 {
        fill: #132a4e;
      }

      .cls-93 {
        fill: #132b4f;
      }

      .cls-94 {
        fill: #132b50;
      }

      .cls-95 {
        fill: #132c51;
      }

      .cls-96 {
        fill: #142d52;
      }

      .cls-97 {
        fill: #142d53;
      }

      .cls-98 {
        fill: #142e54;
      }

      .cls-99 {
        fill: #142e55;
      }

      .cls-100 {
        fill: #152f56;
      }

      .cls-101 {
        fill: #152f57;
      }

      .cls-102 {
        fill: #153058;
      }

      .cls-103 {
        fill: #153059;
      }

      .cls-104 {
        fill: #16315a;
      }

      .cls-105 {
        fill: #16325b;
      }

      .cls-106 {
        fill: #16325c;
      }

      .cls-107 {
        fill: #16335d;
      }

      .cls-108 {
        fill: #16335e;
      }

      .cls-109 {
        fill: #17345f;
      }

      .cls-110 {
        fill: #173460;
      }

      .cls-111 {
        fill: #173561;
      }

      .cls-112 {
        fill: #173562;
      }

      .cls-113 {
        fill: #183663;
      }

      .cls-114 {
        fill: #183664;
      }

      .cls-115 {
        fill: #183765;
      }

      .cls-116 {
        fill: #183866;
      }

      .cls-117 {
        fill: #193867;
      }

      .cls-118 {
        fill: #193968;
      }

      .cls-119 {
        fill: #193969;
      }

      .cls-120 {
        fill: #193a6a;
      }

      .cls-121 {
        fill: #1a3a6b;
      }

      .cls-122 {
        fill: #1a3b6c;
      }

      .cls-123 {
        fill: #1a3b6d;
      }

      .cls-124 {
        fill: #1a3c6e;
      }

      .cls-125 {
        fill: #1b3d6f;
      }

      .cls-126 {
        fill: #1b3d70;
      }

      .cls-127 {
        fill: #1b3e71;
      }

      .cls-128 {
        fill: #1b3e72;
      }

      .cls-129 {
        fill: #1c3f73;
      }

      .cls-130 {
        fill: #1c3f74;
      }

      .cls-131 {
        fill: #1c4075;
      }

      .cls-132 {
        fill: #1c4076;
      }

      .cls-133 {
        fill: #1d4177;
      }

      .cls-134 {
        fill: #1d4178;
      }

      .cls-135 {
        fill: #1d4279;
      }

      .cls-136 {
        fill: #1d437a;
      }

      .cls-137 {
        fill: #1d437b;
      }

      .cls-138 {
        fill: #1e447c;
      }

      .cls-139 {
        fill: #1e447d;
      }

      .cls-140 {
        fill: #1e457e;
      }

      .cls-141 {
        fill: #1e457f;
      }

      .cls-142 {
        fill: #1f4680;
      }

      .cls-143 {
        fill: #1f4681;
      }

      .cls-144 {
        fill: #1f4782;
      }

      .cls-145 {
        fill: #1f4883;
      }

      .cls-146 {
        fill: #204884;
      }

      .cls-147 {
        fill: #204985;
      }

      .cls-148 {
        fill: #204986;
      }

      .cls-149 {
        fill: #204a87;
      }

      .cls-150 {
        fill: #214a88;
      }

      .cls-151 {
        fill: #214b89;
      }

      .cls-152 {
        fill: #214b8a;
      }

      .cls-153 {
        fill: #214c8b;
      }

      .cls-154 {
        fill: #224c8c;
      }

      .cls-155 {
        fill: #224d8d;
      }

      .cls-156 {
        fill: #224e8e;
      }

      .cls-157 {
        fill: #224e8f;
      }

      .cls-158 {
        fill: #234f90;
      }

      .cls-159 {
        fill: #234f91;
      }

      .cls-160 {
        fill: #235092;
      }

      .cls-161 {
        fill: #235093;
      }

      .cls-162 {
        fill: #245194;
      }

      .cls-163 {
        fill: #245195;
      }

      .cls-164 {
        fill: #245296;
      }

      .cls-165 {
        fill: #255397;
      }

      .cls-166 {
        fill: #265498;
      }

      .cls-167 {
        fill: #275498;
      }

      .cls-168 {
        fill: #285599;
      }

      .cls-169 {
        fill: #29569a;
      }

      .cls-170 {
        fill: #2a579b;
      }

      .cls-171 {
        fill: #2b589b;
      }

      .cls-172 {
        fill: #2c599c;
      }

      .cls-173 {
        fill: #2d599d;
      }

      .cls-174 {
        fill: #2e5a9e;
      }

      .cls-175 {
        fill: #2f5b9e;
      }

      .cls-176 {
        fill: #305c9f;
      }

      .cls-177 {
        fill: #315da0;
      }

      .cls-178 {
        fill: #325da1;
      }

      .cls-179 {
        fill: #335ea2;
      }

      .cls-180 {
        fill: #345fa2;
      }

      .cls-181 {
        fill: #3560a3;
      }

      .cls-182 {
        fill: #3661a4;
      }

      .cls-183 {
        fill: #3762a5;
      }

      .cls-184 {
        fill: #3862a5;
      }

      .cls-185 {
        fill: #3963a6;
      }

      .cls-186 {
        fill: #3a64a7;
      }

      .cls-187 {
        fill: #3b65a8;
      }

      .cls-188 {
        fill: #3c66a9;
      }

      .cls-189 {
        fill: #3d66a9;
      }

      .cls-190 {
        fill: #3e67aa;
      }

      .cls-191 {
        fill: #3f68ab;
      }

      .cls-192 {
        fill: #4069ac;
      }

      .cls-193 {
        fill: #416aac;
      }

      .cls-194 {
        fill: #426bad;
      }

      .cls-195 {
        fill: #436bae;
      }

      .cls-196 {
        fill: #446caf;
      }

      .cls-197 {
        fill: #456daf;
      }

      .cls-198 {
        fill: #466eb0;
      }

      .cls-199 {
        fill: #476fb1;
      }

      .cls-200 {
        fill: #486fb2;
      }

      .cls-201 {
        fill: #4970b3;
      }

      .cls-202 {
        fill: #4a71b3;
      }

      .cls-203 {
        fill: #4b72b4;
      }

      .cls-204 {
        fill: #4c73b5;
      }

      .cls-205 {
        fill: #4d74b6;
      }

      .cls-206 {
        fill: #4f74b6;
      }

      .cls-207 {
        fill: #5075b7;
      }

      .cls-208 {
        fill: #5176b8;
      }

      .cls-209 {
        fill: #5277b9;
      }

      .cls-210 {
        fill: #5378b9;
      }

      .cls-211 {
        fill: #5479ba;
      }

      .cls-212 {
        fill: #5579bb;
      }

      .cls-213 {
        fill: #567abc;
      }

      .cls-214 {
        fill: #577bbd;
      }

      .cls-215 {
        fill: #587cbd;
      }

      .cls-216 {
        fill: #597dbe;
      }

      .cls-217 {
        fill: #5a7dbf;
      }

      .cls-218 {
        fill: #5b7ec0;
      }

      .cls-219 {
        fill: #5c7fc0;
      }

      .cls-220 {
        fill: #5d80c1;
      }

      .cls-221 {
        fill: #5e81c2;
      }

      .cls-222 {
        fill: #5f82c3;
      }

      .cls-223 {
        fill: #6082c3;
      }

      .cls-224 {
        fill: #6183c4;
      }

      .cls-225 {
        fill: #6284c5;
      }

      .cls-226 {
        fill: #6385c6;
      }

      .cls-227 {
        fill: #6486c7;
      }

      .cls-228 {
        fill: #6586c7;
      }

      .cls-229 {
        fill: #6687c8;
      }

      .cls-230 {
        fill: #6788c9;
      }

      .cls-231 {
        fill: #6889ca;
      }

      .cls-232 {
        fill: #698aca;
      }

      .cls-233 {
        fill: #6a8bcb;
      }

      .cls-234 {
        fill: #6b8bcc;
      }

      .cls-235 {
        fill: #6c8ccd;
      }

      .cls-236 {
        fill: #6d8dce;
      }

      .cls-237 {
        fill: #6e8ece;
      }

      .cls-238 {
        fill: #6f8fcf;
      }

      .cls-239 {
        fill: #708fd0;
      }

      .cls-240 {
        fill: #7190d1;
      }

      .cls-241 {
        fill: #7291d1;
      }

      .cls-242 {
        fill: #7392d2;
      }

      .cls-243 {
        fill: #7493d3;
      }

      .cls-244 {
        fill: #7594d4;
      }

      .cls-245 {
        fill: #7694d4;
      }

      .cls-246 {
        fill: #7795d5;
      }

      .cls-247 {
        fill: #7896d6;
      }

      .cls-248 {
        clip-path: url(#clip-path-2);
      }

      .cls-249 {
        fill: #010102;
      }

      .cls-250 {
        fill: #020304;
      }

      .cls-251 {
        fill: #020405;
      }

      .cls-252 {
        fill: #030406;
      }

      .cls-253 {
        fill: #030507;
      }

      .cls-254 {
        fill: #030608;
      }

      .cls-255 {
        fill: #040609;
      }

      .cls-256 {
        fill: #04070a;
      }

      .cls-257 {
        fill: #05080b;
      }

      .cls-258 {
        fill: #05080c;
      }

      .cls-259 {
        fill: #06090d;
      }

      .cls-260 {
        fill: #060a0e;
      }

      .cls-261 {
        fill: #060b0f;
      }

      .cls-262 {
        fill: #070b10;
      }

      .cls-263 {
        fill: #070c11;
      }

      .cls-264 {
        fill: #080d12;
      }

      .cls-265 {
        fill: #080d13;
      }

      .cls-266 {
        fill: #090e14;
      }

      .cls-267 {
        fill: #090f15;
      }

      .cls-268 {
        fill: #091016;
      }

      .cls-269 {
        fill: #0a1017;
      }

      .cls-270 {
        fill: #0a1118;
      }

      .cls-271 {
        fill: #0b1219;
      }

      .cls-272 {
        fill: #0b121a;
      }

      .cls-273 {
        fill: #0c131b;
      }

      .cls-274 {
        fill: #0c141c;
      }

      .cls-275 {
        fill: #0c141d;
      }

      .cls-276 {
        fill: #0d151e;
      }

      .cls-277 {
        fill: #0d161f;
      }

      .cls-278 {
        fill: #0e1720;
      }

      .cls-279 {
        fill: #0e1721;
      }

      .cls-280 {
        fill: #0f1822;
      }

      .cls-281 {
        fill: #0f1923;
      }

      .cls-282 {
        fill: #0f1924;
      }

      .cls-283 {
        fill: #101a25;
      }

      .cls-284 {
        fill: #101b26;
      }

      .cls-285 {
        fill: #111c27;
      }

      .cls-286 {
        fill: #111c28;
      }

      .cls-287 {
        fill: #121d29;
      }

      .cls-288 {
        fill: #121e2a;
      }

      .cls-289 {
        fill: #121e2b;
      }

      .cls-290 {
        fill: #131f2c;
      }

      .cls-291 {
        fill: #13202d;
      }

      .cls-292 {
        fill: #14202e;
      }

      .cls-293 {
        fill: #14212f;
      }

      .cls-294 {
        fill: #152230;
      }

      .cls-295 {
        fill: #152331;
      }

      .cls-296 {
        fill: #152332;
      }

      .cls-297 {
        fill: #162433;
      }

      .cls-298 {
        fill: #162534;
      }

      .cls-299 {
        fill: #172535;
      }

      .cls-300 {
        fill: #172636;
      }

      .cls-301 {
        fill: #182737;
      }

      .cls-302 {
        fill: #182838;
      }

      .cls-303 {
        fill: #182839;
      }

      .cls-304 {
        fill: #19293a;
      }

      .cls-305 {
        fill: #192a3b;
      }

      .cls-306 {
        fill: #1a2a3d;
      }

      .cls-307 {
        fill: #1a2b3e;
      }

      .cls-308 {
        fill: #1b2c3f;
      }

      .cls-309 {
        fill: #1b2c40;
      }

      .cls-310 {
        fill: #1b2d41;
      }

      .cls-311 {
        fill: #1c2e42;
      }

      .cls-312 {
        fill: #1c2f43;
      }

      .cls-313 {
        fill: #1d2f44;
      }

      .cls-314 {
        fill: #1d3045;
      }

      .cls-315 {
        fill: #1e3146;
      }

      .cls-316 {
        fill: #1e3147;
      }

      .cls-317 {
        fill: #1e3248;
      }

      .cls-318 {
        fill: #1f3349;
      }

      .cls-319 {
        fill: #1f344a;
      }

      .cls-320 {
        fill: #20344b;
      }

      .cls-321 {
        fill: #20354c;
      }

      .cls-322 {
        fill: #21364d;
      }

      .cls-323 {
        fill: #21364e;
      }

      .cls-324 {
        fill: #21374f;
      }

      .cls-325 {
        fill: #223850;
      }

      .cls-326 {
        fill: #223851;
      }

      .cls-327 {
        fill: #233952;
      }

      .cls-328 {
        fill: #233a53;
      }

      .cls-329 {
        fill: #243b54;
      }

      .cls-330 {
        fill: #243b55;
      }

      .cls-331 {
        fill: #243c56;
      }

      .cls-332 {
        fill: #253d57;
      }

      .cls-333 {
        fill: #253d58;
      }

      .cls-334 {
        fill: #263e59;
      }

      .cls-335 {
        fill: #263f5a;
      }

      .cls-336 {
        fill: #27405b;
      }

      .cls-337 {
        fill: #27405c;
      }

      .cls-338 {
        fill: #27415d;
      }

      .cls-339 {
        fill: #28425e;
      }

      .cls-340 {
        fill: #28425f;
      }

      .cls-341 {
        fill: #294360;
      }

      .cls-342 {
        fill: #294461;
      }

      .cls-343 {
        fill: #2a4462;
      }

      .cls-344 {
        fill: #2a4563;
      }

      .cls-345 {
        fill: #2a4664;
      }

      .cls-346 {
        fill: #2b4765;
      }

      .cls-347 {
        fill: #2b4766;
      }

      .cls-348 {
        fill: #2c4867;
      }

      .cls-349 {
        fill: #2c4968;
      }

      .cls-350 {
        fill: #2d4969;
      }

      .cls-351 {
        fill: #2d4a6a;
      }

      .cls-352 {
        fill: #2d4b6b;
      }

      .cls-353 {
        fill: #2e4c6c;
      }

      .cls-354 {
        fill: #2e4c6d;
      }

      .cls-355 {
        fill: #2f4d6e;
      }

      .cls-356 {
        fill: #2f4e6f;
      }

      .cls-357 {
        fill: #304e70;
      }

      .cls-358 {
        fill: #304f71;
      }

      .cls-359 {
        fill: #305072;
      }

      .cls-360 {
        fill: #315073;
      }

      .cls-361 {
        fill: #315174;
      }

      .cls-362 {
        fill: #325275;
      }

      .cls-363 {
        fill: #325376;
      }

      .cls-364 {
        fill: #335377;
      }

      .cls-365 {
        fill: #335478;
      }

      .cls-366 {
        fill: #345579;
      }

      .cls-367 {
        fill: #34557a;
      }

      .cls-368 {
        fill: #35567b;
      }

      .cls-369 {
        fill: #35567c;
      }

      .cls-370 {
        fill: #36577d;
      }

      .cls-371 {
        fill: #37577e;
      }

      .cls-372 {
        fill: #37587f;
      }

      .cls-373 {
        fill: #385880;
      }

      .cls-374 {
        fill: #385981;
      }

      .cls-375 {
        fill: #395982;
      }

      .cls-376 {
        fill: #3a5a83;
      }

      .cls-377 {
        fill: #3a5a84;
      }

      .cls-378 {
        fill: #3b5b85;
      }

      .cls-379 {
        fill: #3b5c86;
      }

      .cls-380 {
        fill: #3c5c87;
      }

      .cls-381 {
        fill: #3c5d88;
      }

      .cls-382 {
        fill: #3d5d89;
      }

      .cls-383 {
        fill: #3e5e8a;
      }

      .cls-384 {
        fill: #3e5e8b;
      }

      .cls-385 {
        fill: #3f5f8c;
      }

      .cls-386 {
        fill: #3f5f8d;
      }

      .cls-387 {
        fill: #40608e;
      }

      .cls-388 {
        fill: #41608f;
      }

      .cls-389 {
        fill: #416190;
      }

      .cls-390 {
        fill: #426191;
      }

      .cls-391 {
        fill: #426292;
      }

      .cls-392 {
        fill: #436393;
      }

      .cls-393 {
        fill: #446394;
      }

      .cls-394 {
        fill: #446495;
      }

      .cls-395 {
        fill: #456496;
      }

      .cls-396 {
        fill: #456597;
      }

      .cls-397 {
        fill: #466598;
      }

      .cls-398 {
        fill: #476699;
      }

      .cls-399 {
        fill: #47669a;
      }

      .cls-400 {
        fill: #48679b;
      }

      .cls-401 {
        fill: #48679c;
      }

      .cls-402 {
        fill: #49689d;
      }

      .cls-403 {
        fill: #4a689e;
      }

      .cls-404 {
        fill: #4a699f;
      }

      .cls-405 {
        fill: #4b6aa0;
      }

      .cls-406 {
        fill: #4b6aa1;
      }

      .cls-407 {
        fill: #4c6ba2;
      }

      .cls-408 {
        fill: #4d6ba3;
      }

      .cls-409 {
        fill: #4d6ca4;
      }

      .cls-410 {
        fill: #4e6ca5;
      }

      .cls-411 {
        fill: #4e6da7;
      }

      .cls-412 {
        fill: #4f6da8;
      }

      .cls-413 {
        fill: #4f6ea9;
      }

      .cls-414 {
        fill: #506eaa;
      }

      .cls-415 {
        fill: #516fab;
      }

      .cls-416 {
        fill: #516fac;
      }

      .cls-417 {
        fill: #5270ad;
      }

      .cls-418 {
        fill: #5271ae;
      }

      .cls-419 {
        fill: #5371af;
      }

      .cls-420 {
        fill: #5472b0;
      }

      .cls-421 {
        fill: #5472b1;
      }

      .cls-422 {
        fill: #5573b2;
      }

      .cls-423 {
        fill: #5573b3;
      }

      .cls-424 {
        fill: #5674b4;
      }

      .cls-425 {
        fill: #5774b5;
      }

      .cls-426 {
        fill: #5775b6;
      }

      .cls-427 {
        fill: #5875b7;
      }

      .cls-428 {
        fill: #5876b8;
      }

      .cls-429 {
        fill: #5976b9;
      }

      .cls-430 {
        fill: #5a77ba;
      }

      .cls-431 {
        fill: #5a78bb;
      }

      .cls-432 {
        fill: #5b78bc;
      }

      .cls-433 {
        fill: #5b79bd;
      }

      .cls-434 {
        fill: #5c79be;
      }

      .cls-435 {
        fill: #5d7abf;
      }

      .cls-436 {
        fill: #5d7ac0;
      }

      .cls-437 {
        fill: #5e7bc1;
      }

      .cls-438 {
        fill: #5e7bc2;
      }

      .cls-439 {
        fill: #5f7cc3;
      }

      .cls-440 {
        fill: #607cc4;
      }

      .cls-441 {
        fill: #607dc5;
      }

      .cls-442 {
        fill: #617dc6;
      }

      .cls-443 {
        fill: #617ec7;
      }

      .cls-444 {
        fill: #627fc8;
      }

      .cls-445 {
        fill: #627fc9;
      }

      .cls-446 {
        fill: #6380ca;
      }

      .cls-447 {
        fill: #6480cb;
      }

      .cls-448 {
        fill: #6481cc;
      }

      .cls-449 {
        fill: #6581cd;
      }

      .cls-450 {
        fill: #6582ce;
      }

      .cls-451 {
        fill: #6682cf;
      }

      .cls-452 {
        fill: #6783d0;
      }

      .cls-453 {
        fill: #6783d1;
      }

      .cls-454 {
        fill: #6884d2;
      }

      .cls-455 {
        fill: #6884d3;
      }

      .cls-456 {
        fill: #6985d4;
      }
    </style>
    <radialGradient id="radial-gradient" cx="-849.287" cy="-376.962" r="37.381" gradientTransform="matrix(0.233, -0.328, 0.342, 0.242, 341.878, -159.694)" gradientUnits="userSpaceOnUse">
      <stop offset="0" stop-color="#6c6c6c"/>
      <stop offset="0.349" stop-color="#b9b9b9"/>
      <stop offset="0.636" stop-color="#d1d1d1"/>
      <stop offset="0.842" stop-color="#fff"/>
    </radialGradient>
    <radialGradient id="radial-gradient-2" cx="17.545" cy="24.172" r="11.878" gradientUnits="userSpaceOnUse">
      <stop offset="0" stop-color="#4285b0"/>
      <stop offset="0.914" stop-color="#353b73"/>
    </radialGradient>
    <radialGradient id="radial-gradient-3" cx="12.045" cy="23.808" r="8.149" gradientUnits="userSpaceOnUse">
      <stop offset="0" stop-color="#003b73"/>
      <stop offset="0.914" stop-color="#253b73"/>
    </radialGradient>
    <radialGradient id="radial-gradient-4" cx="15.921" cy="16.957" r="10.921" xlink:href="#radial-gradient-3"/>
    <linearGradient id="linear-gradient" x1="18.983" y1="19.38" x2="25.199" y2="17.209" gradientUnits="userSpaceOnUse">
      <stop offset="0"/>
      <stop offset="0.761" stop-color="#78bade"/>
      <stop offset="0.914" stop-color="#78bade"/>
    </linearGradient>
    <radialGradient id="radial-gradient-5" cx="14.373" cy="13.323" r="9.524" gradientUnits="userSpaceOnUse">
      <stop offset="0" stop-color="#141f4f"/>
      <stop offset="1" stop-color="#526eb0"/>
    </radialGradient>
    <radialGradient id="radial-gradient-6" cx="514.211" cy="-600.326" r="7.322" gradientTransform="translate(464.914 662.834) rotate(-74.723)" gradientUnits="userSpaceOnUse">
      <stop offset="0" stop-color="#7896d6"/>
      <stop offset="0.426" stop-color="#245296"/>
      <stop offset="1"/>
    </radialGradient>
    <radialGradient id="radial-gradient-7" cx="21.409" cy="10.738" r="4.066" gradientUnits="userSpaceOnUse">
      <stop offset="0" stop-color="#99c2b3"/>
      <stop offset="0.426" stop-color="#2b78ba"/>
      <stop offset="1"/>
    </radialGradient>
    <clipPath id="clip-path">
      <path class="cls-1" d="M26.469,17A8.3,8.3,0,0,1,28.3,20.344a11.809,11.809,0,0,1,.426,3.806,10.846,10.846,0,0,1-.887,3.732,7.491,7.491,0,0,1-2.385,2.991l-.273-.332a22.907,22.907,0,0,0-.529-4.018,11.223,11.223,0,0,1-.218-2.615,11.353,11.353,0,0,1,.511-2.675c.291-1.022.751-2.078,1.188-3.965Z"/>
    </clipPath>
    <clipPath id="clip-path-2">
      <path class="cls-1" d="M12.008,3.288a8.355,8.355,0,0,0-1.765,4.079c-.128,1.006-.166,1.864-.275,2.824l-.322,3.04a11.862,11.862,0,0,0-.053,1.806,5.339,5.339,0,0,0,.731,2.419l-.114.416a5.02,5.02,0,0,1-2.23-1.166,6.776,6.776,0,0,1-1.461-2.051,9.673,9.673,0,0,1-.828-4.894,8.538,8.538,0,0,1,1.9-4.6A6.749,6.749,0,0,1,9.549,3.584a7.429,7.429,0,0,1,2.38-.717Z"/>
    </clipPath>
  </defs>
  <title>pin-11</title>
  <g class="cls-2">
    <g id="Шар_2" data-name="Шар 2">
      <g id="Paper_clips" data-name="Paper clips">
        <g>
          <path class="cls-3" d="M24.153,15.506c7.061,5,8.9,14.544,4.092,21.326S13.822,45.067,6.761,40.068-2.124,25.519,2.684,18.732C7.478,11.962,17.093,10.512,24.153,15.506Z"/>
          <g>
            <path class="cls-4" d="M29.711,22.908a11.874,11.874,0,0,1-9.247,14.014A11.88,11.88,0,0,1,6.051,28.3,11.883,11.883,0,0,1,15.3,14.286,11.876,11.876,0,0,1,29.711,22.908Z"/>
            <path class="cls-5" d="M29.378,21.476A11.882,11.882,0,0,1,20.125,35.49,11.881,11.881,0,0,1,5.713,26.87a11.882,11.882,0,0,1,9.25-14.016A11.884,11.884,0,0,1,29.378,21.476Z"/>
            <path class="cls-6" d="M10.255,24.78a7.8,7.8,0,0,0,9.4,3.007A31.807,31.807,0,0,1,7.579,30.966a11.312,11.312,0,0,1-2.052-8.012,16.61,16.61,0,0,1,3.582-2.48Z"/>
            <path class="cls-7" d="M23.717,19.464A7.319,7.319,0,1,1,9.445,22.717c-.446-1.965-.736-5.66.234-7.249a7.624,7.624,0,0,1,4.7-3.408c2.16-.493,4.065-.864,5.721.368C21.456,13.441,23.309,17.674,23.717,19.464Z"/>
            <path class="cls-8" d="M23.287,18.018,20.03,10.371l-4.568,2.374,4.194,15.042S25.808,25.038,23.287,18.018Z"/>
            <path class="cls-9" d="M22.757,10.517A8.6,8.6,0,1,1,12.448,3.981,8.631,8.631,0,0,1,22.757,10.517Z"/>
            <path class="cls-10" d="M22.37,8.82A8.6,8.6,0,1,1,12.063,2.286,8.63,8.63,0,0,1,22.37,8.82Z"/>
            <path class="cls-11" d="M15.237,3.085a7.293,7.293,0,1,1-7.654,6.974A7.32,7.32,0,0,1,15.237,3.085Z"/>
            <path class="cls-12" d="M14.929,35.565a15.429,15.429,0,0,0,2.413.005,14.606,14.606,0,0,0,2.378-.312A12.238,12.238,0,0,0,24.081,33.4a11.722,11.722,0,0,0,3.361-3.339A18.531,18.531,0,0,0,29.5,25.718l.025.006a15.9,15.9,0,0,1-1.937,4.428A11.968,11.968,0,0,1,24.22,33.6a13.718,13.718,0,0,1-9.294,1.986Z"/>
            <path class="cls-12" d="M22.229,13.263a8.778,8.778,0,0,1-3.506,4.768,8.911,8.911,0,0,1-5.777,1.3l0-.025a10.608,10.608,0,0,0,2.954-.321,8.7,8.7,0,0,0,2.685-1.165,9.652,9.652,0,0,0,3.617-4.566Z"/>
            <path class="cls-13" d="M19.612,6.466a4.38,4.38,0,0,1,1.464,1.952,6.208,6.208,0,0,1,.422,2.424,6.3,6.3,0,0,1-.65,2.376,4.12,4.12,0,0,1-1.661,1.793l-.18-.269a8.2,8.2,0,0,0-.477-2.65,4.078,4.078,0,0,1-.254-1.4,3.937,3.937,0,0,1,.378-1.367,9.15,9.15,0,0,0,.74-2.619Z"/>
            <g class="cls-14">
              <g class="cls-15">
                <rect x="24.385" y="17.001" width="4.39" height="13.872"/>
                <path d="M24.251,23.931c.352-4.811,2.32-8.587,4.4-8.435s3.474,4.175,3.122,8.986-2.321,8.587-4.4,8.434S23.9,28.741,24.251,23.931Z"/>
                <path class="cls-16" d="M24.265,23.932c.351-4.792,2.312-8.554,4.381-8.4s3.46,4.159,3.11,8.952-2.312,8.553-4.381,8.4S23.915,28.725,24.265,23.932Z"/>
                <path class="cls-17" d="M24.28,23.933c.349-4.774,2.3-8.522,4.363-8.37s3.447,4.142,3.1,8.917-2.3,8.521-4.363,8.37S23.93,28.707,24.28,23.933Z"/>
                <path class="cls-18" d="M24.294,23.934c.348-4.755,2.294-8.489,4.347-8.338s3.434,4.127,3.086,8.883-2.294,8.488-4.347,8.338S23.946,28.69,24.294,23.934Z"/>
                <path class="cls-19" d="M24.308,23.936c.347-4.738,2.285-8.456,4.33-8.307s3.421,4.111,3.075,8.848-2.286,8.456-4.331,8.306S23.962,28.672,24.308,23.936Z"/>
                <path class="cls-20" d="M24.323,23.937c.345-4.719,2.276-8.423,4.313-8.275s3.407,4.1,3.062,8.814S29.422,32.9,27.385,32.75,23.978,28.654,24.323,23.937Z"/>
                <path class="cls-21" d="M24.337,23.938c.344-4.7,2.268-8.391,4.3-8.243s3.395,4.08,3.051,8.78-2.268,8.39-4.3,8.242S23.993,28.638,24.337,23.938Z"/>
                <path class="cls-22" d="M24.352,23.939c.343-4.682,2.258-8.358,4.279-8.209s3.381,4.062,3.038,8.744-2.258,8.357-4.279,8.209S24.009,28.62,24.352,23.939Z"/>
                <path class="cls-23" d="M24.366,23.94c.341-4.663,2.25-8.325,4.263-8.177S32,19.81,31.655,24.473s-2.25,8.324-4.263,8.177S24.025,28.6,24.366,23.94Z"/>
                <path class="cls-24" d="M24.381,23.941c.339-4.645,2.24-8.291,4.245-8.145s3.354,4.031,3.014,8.676S29.4,32.763,27.4,32.616,24.041,28.585,24.381,23.941Z"/>
                <path class="cls-25" d="M24.4,23.942c.339-4.626,2.232-8.259,4.229-8.113s3.341,4.015,3,8.642S29.394,32.73,27.4,32.583,24.056,28.569,24.4,23.942Z"/>
                <path class="cls-26" d="M24.409,23.943c.337-4.609,2.223-8.226,4.212-8.081s3.328,4,2.99,8.608S29.389,32.7,27.4,32.55,24.072,28.551,24.409,23.943Z"/>
                <path class="cls-27" d="M24.424,23.944c.335-4.59,2.214-8.193,4.2-8.048s3.314,3.983,2.978,8.573-2.214,8.192-4.195,8.048S24.088,28.533,24.424,23.944Z"/>
                <path class="cls-28" d="M24.438,23.944c.335-4.571,2.205-8.159,4.178-8.015s3.3,3.968,2.967,8.539-2.2,8.159-4.179,8.016S24.1,28.516,24.438,23.944Z"/>
                <path class="cls-29" d="M24.452,23.945c.334-4.552,2.2-8.126,4.162-7.982s3.288,3.951,2.955,8.5-2.2,8.127-4.162,7.982S24.119,28.5,24.452,23.945Z"/>
                <path class="cls-30" d="M24.467,23.946c.332-4.534,2.187-8.093,4.144-7.95s3.275,3.935,2.943,8.47-2.188,8.094-4.145,7.95S24.135,28.482,24.467,23.946Z"/>
                <path class="cls-31" d="M24.481,23.947c.331-4.515,2.179-8.06,4.128-7.918s3.261,3.919,2.931,8.436-2.179,8.061-4.128,7.918S24.151,28.464,24.481,23.947Z"/>
                <path class="cls-32" d="M24.5,23.949c.329-4.5,2.169-8.028,4.111-7.886s3.248,3.9,2.918,8.4-2.169,8.028-4.111,7.887S24.166,28.446,24.5,23.949Z"/>
                <path class="cls-33" d="M24.51,23.95c.328-4.479,2.161-8,4.094-7.854s3.235,3.888,2.907,8.366-2.161,8-4.094,7.855S24.182,28.429,24.51,23.95Z"/>
                <path class="cls-34" d="M24.525,23.951c.326-4.461,2.151-7.963,4.077-7.822S31.823,20,31.5,24.461s-2.152,7.963-4.077,7.822S24.2,28.412,24.525,23.951Z"/>
                <path class="cls-35" d="M24.539,23.952c.325-4.442,2.143-7.929,4.06-7.79s3.208,3.856,2.883,8.3-2.143,7.93-4.06,7.79S24.214,28.4,24.539,23.952Z"/>
                <path class="cls-36" d="M24.553,23.953c.324-4.424,2.134-7.9,4.044-7.757s3.2,3.839,2.871,8.263-2.134,7.9-4.044,7.757S24.229,28.377,24.553,23.953Z"/>
                <path class="cls-37" d="M24.568,23.954c.322-4.405,2.125-7.864,4.026-7.724s3.182,3.823,2.859,8.228-2.125,7.864-4.027,7.725S24.245,28.36,24.568,23.954Z"/>
                <path class="cls-38" d="M24.582,23.955c.321-4.386,2.116-7.831,4.01-7.692s3.168,3.807,2.847,8.194-2.117,7.831-4.01,7.693S24.261,28.342,24.582,23.955Z"/>
                <path class="cls-39" d="M24.6,23.956c.32-4.368,2.108-7.8,3.994-7.66s3.154,3.791,2.834,8.16-2.107,7.8-3.993,7.66S24.277,28.325,24.6,23.956Z"/>
                <path class="cls-40" d="M24.611,23.957c.318-4.349,2.1-7.765,3.976-7.628s3.142,3.776,2.823,8.126-2.1,7.766-3.976,7.628S24.292,28.308,24.611,23.957Z"/>
                <path class="cls-41" d="M24.625,23.958c.317-4.332,2.09-7.732,3.96-7.6s3.128,3.76,2.811,8.092-2.09,7.733-3.96,7.6S24.308,28.29,24.625,23.958Z"/>
                <path class="cls-42" d="M24.639,23.959c.316-4.313,2.081-7.7,3.943-7.563s3.115,3.744,2.8,8.057-2.082,7.7-3.943,7.564S24.324,28.273,24.639,23.959Z"/>
                <path class="cls-43" d="M24.654,23.96c.314-4.3,2.072-7.666,3.926-7.53s3.1,3.726,2.787,8.022-2.072,7.666-3.926,7.531S24.34,28.256,24.654,23.96Z"/>
                <path class="cls-44" d="M24.668,23.962c.313-4.277,2.063-7.635,3.909-7.5s3.089,3.711,2.776,7.987-2.063,7.635-3.909,7.5S24.355,28.238,24.668,23.962Z"/>
                <path class="cls-45" d="M24.683,23.963c.311-4.259,2.054-7.6,3.892-7.467s3.075,3.7,2.763,7.953-2.054,7.6-3.892,7.467S24.371,28.221,24.683,23.963Z"/>
                <path class="cls-46" d="M24.7,23.964c.31-4.24,2.045-7.568,3.875-7.435s3.062,3.68,2.752,7.919-2.046,7.569-3.876,7.435S24.387,28.2,24.7,23.964Z"/>
                <path class="cls-47" d="M24.712,23.965c.308-4.222,2.036-7.535,3.858-7.4s3.048,3.664,2.739,7.884-2.036,7.536-3.858,7.4S24.4,28.186,24.712,23.965Z"/>
                <path class="cls-48" d="M24.726,23.966c.307-4.2,2.028-7.5,3.842-7.37s3.035,3.647,2.727,7.85-2.028,7.5-3.842,7.371S24.418,28.169,24.726,23.966Z"/>
                <path class="cls-49" d="M24.74,23.967c.307-4.185,2.019-7.47,3.825-7.338s3.022,3.632,2.715,7.816-2.018,7.47-3.824,7.338S24.434,28.152,24.74,23.967Z"/>
                <path class="cls-50" d="M24.755,23.968c.3-4.166,2.009-7.437,3.808-7.3s3.008,3.615,2.7,7.781-2.009,7.437-3.808,7.305S24.45,28.134,24.755,23.968Z"/>
                <path class="cls-51" d="M24.769,23.969c.3-4.148,2-7.4,3.791-7.273s3,3.6,2.692,7.748-2,7.4-3.791,7.272S24.465,28.116,24.769,23.969Z"/>
                <path class="cls-52" d="M24.783,23.97c.3-4.129,1.993-7.371,3.775-7.24s2.982,3.583,2.679,7.713-1.992,7.371-3.774,7.24S24.481,28.1,24.783,23.97Z"/>
                <path class="cls-53" d="M24.8,23.971c.3-4.11,1.983-7.338,3.757-7.208s2.969,3.567,2.668,7.679-1.983,7.337-3.758,7.208S24.5,28.082,24.8,23.971Z"/>
                <path class="cls-54" d="M24.812,23.972c.3-4.092,1.974-7.3,3.741-7.176s2.955,3.552,2.656,7.645-1.974,7.3-3.741,7.175S24.513,28.065,24.812,23.972Z"/>
                <path class="cls-55" d="M24.826,23.973c.3-4.073,1.966-7.273,3.724-7.144s2.942,3.536,2.645,7.611-1.966,7.272-3.725,7.143S24.528,28.047,24.826,23.973Z"/>
                <path class="cls-56" d="M24.841,23.974c.3-4.056,1.957-7.239,3.707-7.112s2.929,3.521,2.632,7.577-1.957,7.239-3.707,7.111S24.544,28.029,24.841,23.974Z"/>
                <path class="cls-57" d="M24.855,23.976c.3-4.038,1.948-7.207,3.691-7.079s2.915,3.5,2.62,7.54-1.948,7.207-3.691,7.079S24.56,28.013,24.855,23.976Z"/>
                <path class="cls-58" d="M24.87,23.977c.294-4.02,1.938-7.174,3.673-7.047s2.9,3.487,2.608,7.506-1.938,7.174-3.673,7.047S24.575,28,24.87,23.977Z"/>
                <path class="cls-59" d="M24.884,23.978c.293-4,1.93-7.142,3.657-7.015s2.888,3.472,2.6,7.472-1.93,7.141-3.657,7.014S24.591,27.978,24.884,23.978Z"/>
                <path class="cls-60" d="M24.9,23.979C25.19,20,26.82,16.87,28.538,17s2.876,3.456,2.584,7.438-1.921,7.108-3.639,6.982S24.607,27.96,24.9,23.979Z"/>
                <path class="cls-61" d="M24.913,23.98c.29-3.964,1.912-7.076,3.623-6.951s2.862,3.44,2.572,7.4-1.912,7.075-3.623,6.95S24.623,27.944,24.913,23.98Z"/>
                <path class="cls-62" d="M24.927,23.981c.289-3.946,1.9-7.042,3.606-6.918s2.849,3.423,2.56,7.369-1.9,7.042-3.606,6.918S24.638,27.926,24.927,23.981Z"/>
                <path class="cls-63" d="M24.942,23.982c.287-3.927,1.894-7.01,3.589-6.886s2.835,3.408,2.548,7.335-1.894,7.01-3.589,6.886S24.654,27.908,24.942,23.982Z"/>
                <path class="cls-64" d="M24.956,23.983c.286-3.909,1.885-6.977,3.572-6.853s2.823,3.392,2.537,7.3-1.886,6.976-3.573,6.852S24.67,27.891,24.956,23.983Z"/>
                <path class="cls-65" d="M24.97,23.984c.285-3.89,1.877-6.944,3.556-6.821s2.809,3.376,2.524,7.266-1.876,6.943-3.555,6.82S24.686,27.873,24.97,23.984Z"/>
                <path class="cls-66" d="M24.985,23.985c.283-3.872,1.868-6.911,3.539-6.789s2.8,3.36,2.512,7.232-1.868,6.91-3.539,6.788S24.7,27.857,24.985,23.985Z"/>
                <path class="cls-67" d="M25,23.986c.282-3.853,1.859-6.878,3.522-6.756s2.782,3.343,2.5,7.2-1.859,6.878-3.522,6.756S24.717,27.839,25,23.986Z"/>
                <path class="cls-68" d="M25.014,23.986c.28-3.833,1.849-6.844,3.5-6.723s2.769,3.328,2.488,7.163-1.85,6.845-3.505,6.724S24.733,27.821,25.014,23.986Z"/>
                <path class="cls-69" d="M25.028,23.987c.279-3.815,1.841-6.811,3.488-6.691s2.756,3.313,2.477,7.129-1.841,6.811-3.488,6.691S24.749,27.8,25.028,23.987Z"/>
                <path class="cls-70" d="M25.042,23.989c.278-3.8,1.833-6.779,3.472-6.66s2.743,3.3,2.465,7.094-1.833,6.779-3.472,6.66S24.764,27.787,25.042,23.989Z"/>
                <path class="cls-71" d="M25.057,23.99c.276-3.78,1.823-6.747,3.454-6.627s2.73,3.28,2.453,7.059-1.823,6.747-3.455,6.627S24.78,27.77,25.057,23.99Z"/>
                <path class="cls-72" d="M25.071,23.991c.275-3.761,1.814-6.713,3.438-6.594s2.716,3.263,2.441,7.024-1.815,6.714-3.438,6.595S24.8,27.752,25.071,23.991Z"/>
                <path class="cls-73" d="M25.086,23.992c.274-3.743,1.8-6.68,3.421-6.562s2.7,3.248,2.428,6.99-1.8,6.681-3.421,6.563S24.812,27.735,25.086,23.992Z"/>
                <path class="cls-74" d="M25.1,23.993c.273-3.724,1.8-6.648,3.4-6.53s2.69,3.232,2.417,6.956-1.8,6.649-3.4,6.53S24.827,27.717,25.1,23.993Z"/>
                <path class="cls-75" d="M25.114,23.994c.271-3.706,1.788-6.615,3.388-6.5s2.676,3.216,2.4,6.922-1.787,6.615-3.387,6.5S24.843,27.7,25.114,23.994Z"/>
                <path class="cls-76" d="M25.129,24c.27-3.687,1.778-6.582,3.37-6.466s2.663,3.2,2.393,6.888S29.113,31,27.522,30.883,24.859,27.683,25.129,24Z"/>
                <path class="cls-77" d="M25.143,24c.269-3.669,1.77-6.549,3.354-6.433s2.649,3.184,2.381,6.853-1.77,6.549-3.354,6.434S24.875,27.665,25.143,24Z"/>
                <path class="cls-78" d="M25.157,24c.267-3.65,1.762-6.516,3.337-6.4s2.637,3.169,2.369,6.819-1.761,6.517-3.336,6.4S24.89,27.648,25.157,24Z"/>
                <path class="cls-79" d="M25.172,24c.266-3.632,1.752-6.483,3.32-6.368s2.623,3.151,2.357,6.784S29.1,30.9,27.529,30.782,24.906,27.631,25.172,24Z"/>
                <path class="cls-80" d="M25.186,24c.265-3.613,1.744-6.45,3.3-6.336s2.61,3.136,2.346,6.75-1.744,6.45-3.3,6.336S24.922,27.613,25.186,24Z"/>
                <path class="cls-81" d="M25.2,24c.263-3.595,1.734-6.417,3.286-6.3s2.6,3.121,2.333,6.716-1.734,6.417-3.286,6.3S24.938,27.6,25.2,24Z"/>
                <path class="cls-82" d="M25.215,24c.262-3.576,1.726-6.385,3.27-6.271s2.583,3.1,2.321,6.681-1.726,6.385-3.27,6.272S24.953,27.578,25.215,24Z"/>
                <path class="cls-83" d="M25.23,24c.26-3.559,1.716-6.352,3.252-6.24s2.57,3.089,2.309,6.646-1.716,6.353-3.252,6.241S24.969,27.561,25.23,24Z"/>
                <path class="cls-84" d="M25.244,24c.259-3.54,1.708-6.319,3.236-6.208s2.556,3.072,2.3,6.612-1.708,6.32-3.236,6.208S24.985,27.544,25.244,24Z"/>
                <path class="cls-85" d="M25.258,24.005c.258-3.521,1.7-6.286,3.219-6.176s2.543,3.057,2.285,6.578-1.7,6.287-3.218,6.176S25,27.527,25.258,24.005Z"/>
                <path class="cls-86" d="M25.273,24.006c.256-3.5,1.69-6.254,3.2-6.143s2.53,3.04,2.273,6.543-1.69,6.254-3.2,6.143S25.016,27.509,25.273,24.006Z"/>
                <path class="cls-87" d="M25.287,24.007c.255-3.485,1.681-6.221,3.185-6.11s2.517,3.024,2.262,6.508-1.681,6.221-3.185,6.111S25.032,27.491,25.287,24.007Z"/>
                <path class="cls-88" d="M25.3,24.008c.254-3.467,1.673-6.188,3.169-6.078s2.5,3.008,2.249,6.474-1.672,6.188-3.168,6.079S25.048,27.475,25.3,24.008Z"/>
                <path class="cls-89" d="M25.316,24.009c.252-3.448,1.663-6.154,3.151-6.046s2.49,2.992,2.238,6.44-1.663,6.155-3.152,6.046S25.064,27.457,25.316,24.009Z"/>
                <path class="cls-90" d="M25.33,24.01c.251-3.43,1.655-6.122,3.135-6.014s2.477,2.977,2.226,6.407-1.655,6.122-3.135,6.013S25.079,27.44,25.33,24.01Z"/>
                <path class="cls-91" d="M25.344,24.011c.25-3.411,1.646-6.089,3.119-5.982s2.463,2.961,2.213,6.373-1.646,6.088-3.118,5.981S25.1,27.422,25.344,24.011Z"/>
                <path class="cls-92" d="M25.359,24.012c.248-3.393,1.637-6.056,3.1-5.949s2.45,2.945,2.2,6.338-1.637,6.055-3.1,5.949S25.111,27.4,25.359,24.012Z"/>
                <path class="cls-93" d="M25.373,24.013C25.62,20.639,27,17.989,28.458,18.1s2.436,2.928,2.19,6.3-1.628,6.023-3.085,5.916S25.127,27.388,25.373,24.013Z"/>
                <path class="cls-94" d="M25.388,24.014c.245-3.356,1.619-5.99,3.067-5.884s2.424,2.912,2.178,6.269-1.619,5.99-3.067,5.883S25.142,27.37,25.388,24.014Z"/>
                <path class="cls-95" d="M25.4,24.016c.245-3.338,1.61-5.958,3.051-5.853s2.41,2.9,2.166,6.234-1.611,5.958-3.051,5.852S25.158,27.353,25.4,24.016Z"/>
                <path class="cls-96" d="M25.417,24.017c.242-3.32,1.6-5.925,3.033-5.821s2.4,2.881,2.154,6.2S29,30.32,27.57,30.216,25.174,27.335,25.417,24.017Z"/>
                <path class="cls-97" d="M25.431,24.018c.242-3.3,1.592-5.893,3.017-5.788s2.384,2.864,2.142,6.165S29,30.287,27.573,30.183,25.189,27.319,25.431,24.018Z"/>
                <path class="cls-98" d="M25.445,24.019c.241-3.283,1.584-5.86,3-5.756s2.371,2.848,2.13,6.131-1.583,5.859-3,5.756S25.205,27.3,25.445,24.019Z"/>
                <path class="cls-99" d="M25.46,24.02c.238-3.264,1.574-5.826,2.983-5.724s2.357,2.833,2.118,6.1-1.575,5.826-2.983,5.723S25.221,27.283,25.46,24.02Z"/>
                <path class="cls-100" d="M25.474,24.021c.238-3.245,1.566-5.793,2.967-5.691s2.343,2.817,2.106,6.062-1.566,5.793-2.967,5.69S25.236,27.266,25.474,24.021Z"/>
                <path class="cls-101" d="M25.488,24.022c.237-3.227,1.557-5.761,2.95-5.659s2.331,2.8,2.094,6.028-1.556,5.761-2.949,5.658S25.252,27.248,25.488,24.022Z"/>
                <path class="cls-102" d="M25.5,24.023c.235-3.209,1.548-5.728,2.933-5.626s2.317,2.784,2.082,5.993-1.548,5.727-2.933,5.626S25.268,27.232,25.5,24.023Z"/>
                <path class="cls-103" d="M25.517,24.024c.234-3.191,1.539-5.695,2.916-5.594s2.3,2.768,2.071,5.959-1.539,5.694-2.916,5.594S25.284,27.214,25.517,24.024Z"/>
                <path class="cls-104" d="M25.532,24.025c.232-3.172,1.53-5.662,2.9-5.562s2.29,2.753,2.058,5.925-1.53,5.661-2.9,5.561S25.3,27.2,25.532,24.025Z"/>
                <path class="cls-105" d="M25.546,24.026c.231-3.154,1.521-5.629,2.882-5.53s2.278,2.738,2.047,5.891-1.521,5.629-2.883,5.529S25.315,27.179,25.546,24.026Z"/>
                <path class="cls-106" d="M25.56,24.027c.23-3.135,1.513-5.6,2.866-5.5s2.264,2.721,2.035,5.857-1.513,5.6-2.866,5.5S25.331,27.162,25.56,24.027Z"/>
                <path class="cls-107" d="M25.575,24.028c.228-3.117,1.5-5.563,2.849-5.464s2.25,2.7,2.022,5.821-1.5,5.562-2.849,5.464S25.347,27.145,25.575,24.028Z"/>
                <path class="cls-108" d="M25.589,24.029c.227-3.1,1.5-5.53,2.832-5.432s2.237,2.688,2.011,5.786-1.495,5.53-2.832,5.433S25.362,27.127,25.589,24.029Z"/>
                <path class="cls-109" d="M25.6,24.03c.225-3.08,1.486-5.5,2.815-5.4s2.224,2.673,2,5.752-1.486,5.5-2.815,5.4S25.378,27.11,25.6,24.03Z"/>
                <path class="cls-110" d="M25.618,24.031c.224-3.061,1.477-5.464,2.8-5.368s2.211,2.657,1.987,5.718-1.477,5.465-2.8,5.368S25.394,27.092,25.618,24.031Z"/>
                <path class="cls-111" d="M25.632,24.032c.223-3.043,1.468-5.431,2.782-5.336s2.2,2.641,1.974,5.684-1.467,5.432-2.781,5.336S25.41,27.075,25.632,24.032Z"/>
                <path class="cls-112" d="M25.647,24.033c.221-3.024,1.459-5.4,2.764-5.3s2.184,2.625,1.963,5.649-1.459,5.4-2.764,5.3S25.425,27.058,25.647,24.033Z"/>
                <path class="cls-113" d="M25.661,24.034c.22-3.006,1.45-5.366,2.748-5.271s2.171,2.609,1.951,5.615-1.451,5.366-2.748,5.272S25.441,27.04,25.661,24.034Z"/>
                <path class="cls-114" d="M25.675,24.035c.219-2.987,1.442-5.333,2.731-5.238s2.158,2.593,1.939,5.58S28.9,29.71,27.614,29.615,25.457,27.023,25.675,24.035Z"/>
                <path class="cls-115" d="M25.69,24.036c.217-2.968,1.432-5.3,2.714-5.206s2.144,2.576,1.927,5.546-1.432,5.3-2.714,5.206S25.473,27.006,25.69,24.036Z"/>
                <path class="cls-116" d="M25.7,24.037c.217-2.95,1.424-5.267,2.7-5.174s2.13,2.561,1.915,5.512-1.424,5.268-2.7,5.174S25.488,26.988,25.7,24.037Z"/>
                <path class="cls-117" d="M25.719,24.038c.214-2.932,1.414-5.234,2.68-5.141s2.118,2.545,1.9,5.477-1.415,5.235-2.68,5.142S25.5,26.971,25.719,24.038Z"/>
                <path class="cls-118" d="M25.733,24.039c.213-2.914,1.406-5.2,2.664-5.109s2.1,2.529,1.891,5.443-1.406,5.2-2.664,5.11S25.52,26.953,25.733,24.039Z"/>
                <path class="cls-119" d="M25.748,24.04c.212-2.895,1.4-5.168,2.646-5.077s2.091,2.514,1.879,5.409-1.4,5.168-2.646,5.077S25.536,26.936,25.748,24.04Z"/>
                <path class="cls-120" d="M25.762,24.041c.21-2.877,1.388-5.136,2.63-5.045s2.077,2.5,1.867,5.375-1.388,5.136-2.63,5.045S25.551,26.919,25.762,24.041Z"/>
                <path class="cls-121" d="M25.777,24.043c.209-2.859,1.378-5.1,2.612-5.013s2.065,2.481,1.855,5.339-1.379,5.1-2.612,5.013S25.567,26.9,25.777,24.043Z"/>
                <path class="cls-122" d="M25.791,24.044c.208-2.841,1.37-5.07,2.6-4.98s2.051,2.464,1.843,5.3-1.37,5.071-2.6,4.981S25.583,26.884,25.791,24.044Z"/>
                <path class="cls-123" d="M25.805,24.045c.206-2.822,1.362-5.037,2.579-4.948s2.039,2.449,1.832,5.27-1.362,5.037-2.58,4.949S25.6,26.866,25.805,24.045Z"/>
                <path class="cls-124" d="M25.82,24.046c.2-2.8,1.352-5,2.562-4.916s2.024,2.433,1.819,5.236-1.352,5-2.562,4.916S25.614,26.85,25.82,24.046Z"/>
                <path class="cls-125" d="M25.834,24.047c.2-2.785,1.343-4.972,2.546-4.884s2.011,2.417,1.807,5.2-1.344,4.972-2.546,4.884S25.63,26.832,25.834,24.047Z"/>
                <path class="cls-126" d="M25.848,24.048c.2-2.767,1.335-4.938,2.529-4.852s2,2.4,1.8,5.168-1.335,4.939-2.529,4.852S25.646,26.815,25.848,24.048Z"/>
                <path class="cls-127" d="M25.862,24.049c.2-2.748,1.327-4.905,2.513-4.819s1.985,2.385,1.783,5.133-1.326,4.906-2.512,4.82S25.661,26.8,25.862,24.049Z"/>
                <path class="cls-128" d="M25.877,24.05c.2-2.73,1.317-4.873,2.5-4.786s1.971,2.369,1.772,5.1-1.317,4.874-2.495,4.787S25.677,26.779,25.877,24.05Z"/>
                <path class="cls-129" d="M25.891,24.051c.2-2.711,1.308-4.84,2.479-4.754s1.958,2.353,1.76,5.064-1.309,4.84-2.479,4.754S25.693,26.763,25.891,24.051Z"/>
                <path class="cls-130" d="M25.906,24.052c.2-2.692,1.3-4.807,2.461-4.722s1.945,2.337,1.748,5.031-1.3,4.806-2.462,4.721S25.709,26.745,25.906,24.052Z"/>
                <path class="cls-131" d="M25.92,24.053c.2-2.674,1.291-4.775,2.445-4.69s1.932,2.322,1.736,5-1.291,4.774-2.445,4.689S25.724,26.728,25.92,24.053Z"/>
                <path class="cls-132" d="M25.935,24.054c.194-2.656,1.281-4.741,2.427-4.657s1.918,2.305,1.724,4.962-1.281,4.741-2.428,4.657S25.74,26.71,25.935,24.054Z"/>
                <path class="cls-133" d="M25.949,24.055c.193-2.638,1.272-4.708,2.411-4.625s1.905,2.289,1.712,4.928-1.273,4.708-2.411,4.625S25.756,26.694,25.949,24.055Z"/>
                <path class="cls-134" d="M25.964,24.057c.191-2.62,1.263-4.676,2.394-4.594s1.891,2.273,1.7,4.893-1.263,4.675-2.394,4.593S25.772,26.676,25.964,24.057Z"/>
                <path class="cls-135" d="M25.978,24.058c.19-2.6,1.255-4.644,2.377-4.561s1.879,2.257,1.688,4.858S28.788,29,27.666,28.915,25.787,26.658,25.978,24.058Z"/>
                <path class="cls-136" d="M25.992,24.059c.189-2.583,1.246-4.611,2.361-4.529s1.864,2.242,1.675,4.824-1.245,4.61-2.36,4.528S25.8,26.641,25.992,24.059Z"/>
                <path class="cls-137" d="M26.007,24.06c.187-2.565,1.236-4.577,2.343-4.5s1.852,2.225,1.664,4.789-1.236,4.577-2.343,4.5S25.819,26.623,26.007,24.06Z"/>
                <path class="cls-138" d="M26.021,24.061c.186-2.546,1.228-4.544,2.327-4.464S30.186,21.806,30,24.352s-1.228,4.544-2.327,4.464S25.835,26.607,26.021,24.061Z"/>
                <path class="cls-139" d="M26.035,24.062c.185-2.528,1.22-4.512,2.31-4.432s1.826,2.193,1.641,4.721-1.22,4.511-2.311,4.431S25.85,26.589,26.035,24.062Z"/>
                <path class="cls-140" d="M26.05,24.063c.184-2.509,1.21-4.479,2.293-4.4s1.812,2.178,1.628,4.687-1.21,4.478-2.293,4.4S25.866,26.571,26.05,24.063Z"/>
                <path class="cls-141" d="M26.064,24.064c.182-2.491,1.2-4.446,2.276-4.368s1.8,2.163,1.617,4.653-1.2,4.445-2.277,4.367S25.882,26.554,26.064,24.064Z"/>
                <path class="cls-142" d="M26.078,24.065c.181-2.472,1.193-4.412,2.26-4.334s1.785,2.144,1.605,4.617-1.193,4.412-2.26,4.334S25.9,26.537,26.078,24.065Z"/>
                <path class="cls-143" d="M26.093,24.066c.18-2.454,1.184-4.38,2.243-4.3s1.772,2.129,1.592,4.583-1.184,4.38-2.243,4.3S25.913,26.52,26.093,24.066Z"/>
                <path class="cls-144" d="M26.107,24.067c.178-2.435,1.175-4.347,2.226-4.27s1.759,2.113,1.581,4.549-1.175,4.347-2.226,4.269S25.929,26.5,26.107,24.067Z"/>
                <path class="cls-145" d="M26.122,24.068c.177-2.416,1.166-4.314,2.209-4.238s1.745,2.1,1.568,4.515-1.166,4.313-2.209,4.237S25.945,26.485,26.122,24.068Z"/>
                <path class="cls-146" d="M26.136,24.069c.176-2.4,1.157-4.281,2.192-4.206s1.732,2.082,1.557,4.48-1.157,4.281-2.192,4.206S25.961,26.467,26.136,24.069Z"/>
                <path class="cls-147" d="M26.151,24.07c.174-2.38,1.148-4.249,2.175-4.173s1.719,2.065,1.544,4.445-1.148,4.249-2.175,4.174S25.976,26.45,26.151,24.07Z"/>
                <path class="cls-148" d="M26.165,24.071c.173-2.362,1.139-4.215,2.158-4.141s1.706,2.05,1.533,4.411-1.139,4.216-2.159,4.142S25.992,26.433,26.165,24.071Z"/>
                <path class="cls-149" d="M26.179,24.072c.172-2.343,1.131-4.182,2.142-4.108S30.013,22,29.841,24.34s-1.13,4.183-2.141,4.108S26.008,26.415,26.179,24.072Z"/>
                <path class="cls-150" d="M26.194,24.073c.17-2.325,1.121-4.15,2.125-4.076S30,22.015,29.827,24.339s-1.121,4.15-2.125,4.076S26.024,26.4,26.194,24.073Z"/>
                <path class="cls-151" d="M26.208,24.074c.169-2.306,1.112-4.117,2.108-4.044s1.666,2,1.5,4.308-1.113,4.117-2.108,4.044S26.039,26.381,26.208,24.074Z"/>
                <path class="cls-152" d="M26.222,24.075c.168-2.288,1.1-4.084,2.092-4.011s1.652,1.985,1.485,4.273-1.1,4.084-2.092,4.012S26.055,26.363,26.222,24.075Z"/>
                <path class="cls-153" d="M26.237,24.076c.166-2.269,1.1-4.05,2.074-3.979s1.639,1.97,1.473,4.239-1.095,4.051-2.074,3.98S26.07,26.346,26.237,24.076Z"/>
                <path class="cls-154" d="M26.251,24.077c.165-2.251,1.086-4.018,2.058-3.947s1.625,1.954,1.461,4.205-1.086,4.019-2.058,3.947S26.087,26.328,26.251,24.077Z"/>
                <path class="cls-155" d="M26.266,24.078c.163-2.232,1.076-3.985,2.04-3.915s1.613,1.939,1.449,4.171-1.077,3.985-2.04,3.915S26.1,26.311,26.266,24.078Z"/>
                <path class="cls-156" d="M26.28,24.079c.162-2.214,1.068-3.952,2.024-3.882s1.6,1.921,1.437,4.136-1.068,3.952-2.024,3.882S26.118,26.294,26.28,24.079Z"/>
                <path class="cls-157" d="M26.3,24.08c.16-2.195,1.059-3.919,2.006-3.849s1.586,1.9,1.425,4.1-1.059,3.919-2.007,3.85S26.133,26.277,26.3,24.08Z"/>
                <path class="cls-158" d="M26.309,24.081c.159-2.177,1.05-3.887,1.99-3.817s1.572,1.889,1.413,4.067-1.05,3.887-1.99,3.818S26.15,26.259,26.309,24.081Z"/>
                <path class="cls-159" d="M26.323,24.083c.158-2.159,1.042-3.854,1.974-3.786s1.559,1.874,1.4,4.032-1.042,3.855-1.974,3.786S26.165,26.241,26.323,24.083Z"/>
                <path class="cls-160" d="M26.338,24.084c.156-2.14,1.032-3.821,1.956-3.754s1.546,1.858,1.389,4-1.032,3.822-1.956,3.754S26.181,26.225,26.338,24.084Z"/>
                <path class="cls-161" d="M26.352,24.085c.155-2.122,1.024-3.788,1.94-3.722s1.532,1.842,1.377,3.964-1.024,3.788-1.94,3.722S26.2,26.207,26.352,24.085Z"/>
                <path class="cls-162" d="M26.366,24.086c.154-2.1,1.015-3.756,1.923-3.689s1.519,1.826,1.365,3.929-1.014,3.756-1.922,3.69S26.213,26.19,26.366,24.086Z"/>
                <path class="cls-163" d="M26.381,24.087c.152-2.086,1.006-3.723,1.906-3.656s1.506,1.809,1.353,3.894-1.006,3.723-1.906,3.657S26.228,26.172,26.381,24.087Z"/>
                <path class="cls-164" d="M26.4,24.088c.152-2.067,1-3.689,1.889-3.624s1.493,1.794,1.342,3.86-1,3.69-1.89,3.624S26.244,26.154,26.4,24.088Z"/>
                <path class="cls-164" d="M26.409,24.089c.15-2.049.989-3.656,1.873-3.592s1.479,1.778,1.329,3.826-.988,3.657-1.872,3.592S26.259,26.138,26.409,24.089Z"/>
                <path class="cls-165" d="M26.428,24.09c.149-2.023.977-3.612,1.85-3.549s1.462,1.757,1.314,3.781-.976,3.613-1.85,3.549S26.28,26.114,26.428,24.09Z"/>
                <path class="cls-166" d="M26.447,24.092c.147-2,.965-3.569,1.829-3.507s1.443,1.735,1.3,3.735-.964,3.57-1.828,3.507S26.3,26.092,26.447,24.092Z"/>
                <path class="cls-167" d="M26.466,24.093c.145-1.975.954-3.525,1.806-3.464s1.427,1.715,1.282,3.69-.953,3.526-1.8,3.464S26.322,26.069,26.466,24.093Z"/>
                <path class="cls-168" d="M26.486,24.1c.143-1.951.941-3.483,1.783-3.421s1.409,1.692,1.266,3.644-.941,3.482-1.783,3.42S26.343,26.046,26.486,24.1Z"/>
                <path class="cls-169" d="M26.505,24.1c.141-1.927.929-3.439,1.761-3.378s1.391,1.672,1.25,3.6-.929,3.438-1.761,3.377S26.364,26.023,26.505,24.1Z"/>
                <path class="cls-170" d="M26.524,24.1c.139-1.9.918-3.4,1.738-3.336s1.374,1.651,1.235,3.553-.918,3.395-1.739,3.336S26.384,26,26.524,24.1Z"/>
                <path class="cls-171" d="M26.543,24.1c.137-1.878.906-3.352,1.716-3.293s1.356,1.63,1.219,3.508-.906,3.351-1.717,3.293S26.405,25.977,26.543,24.1Z"/>
                <path class="cls-172" d="M26.562,24.1c.135-1.853.894-3.308,1.694-3.249s1.338,1.608,1.2,3.462-.894,3.307-1.694,3.249S26.426,25.953,26.562,24.1Z"/>
                <path class="cls-173" d="M26.581,24.1c.134-1.829.883-3.265,1.672-3.207s1.321,1.587,1.187,3.416-.883,3.264-1.672,3.207S26.447,25.931,26.581,24.1Z"/>
                <path class="cls-174" d="M26.6,24.1c.132-1.805.871-3.221,1.65-3.164s1.3,1.566,1.171,3.371-.871,3.22-1.65,3.164S26.468,25.907,26.6,24.1Z"/>
                <path class="cls-175" d="M26.619,24.105c.131-1.781.859-3.178,1.627-3.122s1.286,1.545,1.156,3.325-.859,3.178-1.627,3.122S26.489,25.885,26.619,24.105Z"/>
                <path class="cls-176" d="M26.638,24.106c.129-1.756.847-3.134,1.6-3.079s1.268,1.524,1.139,3.28-.846,3.134-1.6,3.079S26.509,25.861,26.638,24.106Z"/>
                <path class="cls-177" d="M26.657,24.108c.127-1.732.835-3.091,1.583-3.037s1.25,1.5,1.123,3.234-.835,3.091-1.582,3.036S26.53,25.839,26.657,24.108Z"/>
                <path class="cls-178" d="M26.676,24.109c.125-1.707.824-3.047,1.56-2.994S29.469,22.6,29.344,24.3s-.823,3.047-1.56,2.993S26.551,25.816,26.676,24.109Z"/>
                <path class="cls-179" d="M26.7,24.11c.124-1.683.812-3,1.539-2.951s1.214,1.46,1.091,3.144-.811,3-1.538,2.95S26.572,25.793,26.7,24.11Z"/>
                <path class="cls-180" d="M26.715,24.111c.121-1.658.8-2.959,1.515-2.908s1.2,1.44,1.076,3.1-.8,2.96-1.515,2.908S26.593,25.77,26.715,24.111Z"/>
                <path class="cls-181" d="M26.734,24.112c.119-1.633.788-2.916,1.493-2.865s1.18,1.419,1.06,3.053-.788,2.916-1.493,2.865S26.614,25.746,26.734,24.112Z"/>
                <path class="cls-182" d="M26.753,24.114c.117-1.609.776-2.873,1.471-2.822s1.162,1.4,1.044,3.006-.776,2.873-1.471,2.822S26.635,25.724,26.753,24.114Z"/>
                <path class="cls-183" d="M26.772,24.115c.116-1.585.764-2.829,1.448-2.779s1.145,1.376,1.029,2.961-.764,2.829-1.449,2.779S26.655,25.7,26.772,24.115Z"/>
                <path class="cls-184" d="M26.791,24.117c.114-1.561.753-2.786,1.426-2.737s1.127,1.355,1.013,2.915-.753,2.786-1.427,2.737S26.676,25.678,26.791,24.117Z"/>
                <path class="cls-185" d="M26.81,24.118c.112-1.536.741-2.742,1.4-2.694s1.109,1.334,1,2.87-.741,2.742-1.4,2.694S26.7,25.654,26.81,24.118Z"/>
                <path class="cls-186" d="M26.829,24.119c.111-1.511.729-2.7,1.382-2.65s1.092,1.311.981,2.824-.729,2.7-1.382,2.651S26.718,25.632,26.829,24.119Z"/>
                <path class="cls-187" d="M26.848,24.121c.109-1.487.718-2.655,1.36-2.608s1.074,1.291.965,2.778-.718,2.655-1.36,2.609S26.739,25.609,26.848,24.121Z"/>
                <path class="cls-188" d="M26.867,24.122c.107-1.463.706-2.611,1.337-2.565s1.057,1.269.95,2.733-.706,2.612-1.337,2.566S26.76,25.586,26.867,24.122Z"/>
                <path class="cls-189" d="M26.886,24.124c.105-1.439.694-2.568,1.315-2.523s1.039,1.249.934,2.687-.694,2.569-1.315,2.524S26.78,25.563,26.886,24.124Z"/>
                <path class="cls-190" d="M26.905,24.125c.1-1.414.683-2.524,1.293-2.48s1.021,1.227.918,2.642-.683,2.525-1.293,2.481S26.8,25.54,26.905,24.125Z"/>
                <path class="cls-191" d="M26.924,24.127c.1-1.391.671-2.481,1.271-2.437s1,1.206.9,2.595-.671,2.482-1.271,2.438S26.822,25.517,26.924,24.127Z"/>
                <path class="cls-192" d="M26.943,24.128c.1-1.365.659-2.437,1.249-2.394s.986,1.185.886,2.55-.659,2.438-1.249,2.395S26.843,25.493,26.943,24.128Z"/>
                <path class="cls-193" d="M26.962,24.129c.1-1.341.647-2.393,1.226-2.351s.969,1.164.871,2.505-.647,2.394-1.226,2.352S26.864,25.471,26.962,24.129Z"/>
                <path class="cls-194" d="M26.981,24.131c.1-1.317.635-2.351,1.2-2.31s.951,1.144.855,2.46-.636,2.351-1.2,2.31S26.885,25.447,26.981,24.131Z"/>
                <path class="cls-195" d="M27,24.132c.095-1.292.624-2.307,1.182-2.266s.933,1.121.839,2.414-.624,2.307-1.182,2.266S26.906,25.425,27,24.132Z"/>
                <path class="cls-196" d="M27.019,24.134c.093-1.269.612-2.264,1.159-2.224s.916,1.1.824,2.368-.612,2.264-1.16,2.224S26.926,25.4,27.019,24.134Z"/>
                <path class="cls-197" d="M27.038,24.135c.092-1.243.6-2.22,1.137-2.181s.9,1.079.808,2.324-.6,2.219-1.138,2.18S26.947,25.379,27.038,24.135Z"/>
                <path class="cls-198" d="M27.057,24.137c.09-1.22.589-2.177,1.115-2.139s.88,1.059.792,2.278-.589,2.176-1.115,2.138S26.968,25.356,27.057,24.137Z"/>
                <path class="cls-199" d="M27.076,24.138c.088-1.2.577-2.133,1.093-2.1s.863,1.037.776,2.233-.577,2.132-1.093,2.1S26.989,25.333,27.076,24.138Z"/>
                <path class="cls-200" d="M27.1,24.139c.086-1.17.565-2.089,1.071-2.052s.845,1.016.759,2.187-.564,2.088-1.07,2.051S27.01,25.31,27.1,24.139Z"/>
                <path class="cls-201" d="M27.114,24.141c.084-1.147.554-2.046,1.048-2.01s.828.994.744,2.141-.553,2.046-1.047,2.009S27.031,25.287,27.114,24.141Z"/>
                <path class="cls-202" d="M27.134,24.142c.082-1.121.541-2,1.025-1.967s.81.974.728,2.1-.541,2-1.025,1.966S27.051,25.264,27.134,24.142Z"/>
                <path class="cls-203" d="M27.153,24.144c.08-1.1.529-1.959,1-1.925s.792.953.712,2.05-.529,1.959-1,1.925S27.072,25.24,27.153,24.144Z"/>
                <path class="cls-204" d="M27.172,24.145c.078-1.074.518-1.915.981-1.882s.774.931.7,2-.518,1.915-.981,1.882S27.093,25.218,27.172,24.145Z"/>
                <path class="cls-205" d="M27.191,24.147c.077-1.049.506-1.872.959-1.839s.757.91.68,1.958-.506,1.872-.959,1.839S27.114,25.194,27.191,24.147Z"/>
                <path class="cls-206" d="M27.21,24.148c.075-1.025.494-1.829.936-1.8s.74.888.665,1.913-.494,1.828-.936,1.8S27.135,25.172,27.21,24.148Z"/>
                <path class="cls-207" d="M27.229,24.149c.073-1,.483-1.785.914-1.753s.722.868.649,1.868-.483,1.784-.914,1.753S27.156,25.149,27.229,24.149Z"/>
                <path class="cls-208" d="M27.248,24.151c.072-.976.47-1.742.892-1.711s.7.846.633,1.822S28.3,26,27.881,25.973,27.176,25.126,27.248,24.151Z"/>
                <path class="cls-209" d="M27.267,24.152c.07-.952.459-1.7.869-1.667s.687.825.618,1.776-.459,1.7-.87,1.667S27.2,25.1,27.267,24.152Z"/>
                <path class="cls-210" d="M27.286,24.153c.068-.926.447-1.654.847-1.625s.669.8.6,1.731-.447,1.654-.848,1.625S27.218,25.08,27.286,24.153Z"/>
                <path class="cls-211" d="M27.305,24.154c.066-.9.435-1.61.825-1.582s.651.784.585,1.686-.435,1.61-.824,1.582S27.239,25.057,27.305,24.154Z"/>
                <path class="cls-212" d="M27.324,24.156c.064-.878.424-1.567.8-1.54s.634.762.569,1.64-.423,1.567-.8,1.54S27.26,25.034,27.324,24.156Z"/>
                <path class="cls-213" d="M27.343,24.157c.063-.853.412-1.523.781-1.5s.616.742.553,1.595-.411,1.523-.78,1.5S27.281,25.011,27.343,24.157Z"/>
                <path class="cls-214" d="M27.362,24.158c.061-.829.4-1.479.758-1.453s.6.719.538,1.549-.4,1.48-.757,1.453S27.3,24.988,27.362,24.158Z"/>
                <path class="cls-215" d="M27.382,24.16c.059-.8.388-1.436.735-1.411s.581.7.522,1.5-.388,1.437-.735,1.411S27.322,24.965,27.382,24.16Z"/>
                <path class="cls-216" d="M27.4,24.161c.057-.78.376-1.392.713-1.368s.563.678.506,1.458-.376,1.393-.713,1.368S27.343,24.942,27.4,24.161Z"/>
                <path class="cls-217" d="M27.42,24.163c.055-.756.364-1.349.691-1.326s.545.656.49,1.412-.365,1.35-.691,1.326S27.364,24.919,27.42,24.163Z"/>
                <path class="cls-218" d="M27.439,24.164c.053-.731.353-1.3.669-1.283s.528.636.474,1.367-.353,1.306-.669,1.283S27.385,24.9,27.439,24.164Z"/>
                <path class="cls-219" d="M27.458,24.166c.051-.708.341-1.263.646-1.24s.511.613.459,1.32-.341,1.263-.646,1.24S27.406,24.873,27.458,24.166Z"/>
                <path class="cls-220" d="M27.477,24.167c.05-.682.329-1.219.624-1.2s.493.593.443,1.275-.329,1.219-.624,1.2S27.427,24.85,27.477,24.167Z"/>
                <path class="cls-221" d="M27.5,24.168c.048-.658.318-1.175.6-1.154s.475.571.427,1.23-.318,1.175-.6,1.155S27.447,24.827,27.5,24.168Z"/>
                <path class="cls-222" d="M27.515,24.17c.046-.634.306-1.132.579-1.112s.458.551.412,1.184-.306,1.132-.58,1.113S27.468,24.8,27.515,24.17Z"/>
                <path class="cls-223" d="M27.534,24.171c.045-.609.294-1.088.557-1.068s.44.528.4,1.138-.294,1.088-.557,1.069S27.489,24.781,27.534,24.171Z"/>
                <path class="cls-224" d="M27.553,24.173c.043-.586.282-1.045.535-1.026s.423.507.38,1.092-.282,1.045-.535,1.027S27.51,24.758,27.553,24.173Z"/>
                <path class="cls-225" d="M27.572,24.174c.041-.561.27-1,.513-.983s.4.486.364,1.047-.271,1-.513.984S27.531,24.736,27.572,24.174Z"/>
                <path class="cls-226" d="M27.591,24.176c.04-.537.259-.958.491-.941s.387.465.348,1-.259.958-.491.942S27.552,24.712,27.591,24.176Z"/>
                <path class="cls-227" d="M27.61,24.177c.038-.512.247-.914.468-.9s.37.446.333.958-.247.914-.468.9S27.573,24.689,27.61,24.177Z"/>
                <path class="cls-228" d="M27.629,24.178c.036-.487.235-.87.446-.855s.352.423.317.912-.236.87-.446.854S27.593,24.666,27.629,24.178Z"/>
                <path class="cls-229" d="M27.648,24.18c.034-.464.224-.827.424-.813s.334.4.3.866-.224.827-.424.812S27.614,24.643,27.648,24.18Z"/>
                <path class="cls-230" d="M27.667,24.181c.032-.439.212-.783.4-.77s.316.381.285.821-.212.783-.4.769S27.635,24.62,27.667,24.181Z"/>
                <path class="cls-231" d="M27.686,24.183c.031-.415.2-.74.38-.728s.3.361.269.775-.2.74-.38.727S27.656,24.6,27.686,24.183Z"/>
                <path class="cls-232" d="M27.705,24.184c.029-.39.189-.7.357-.684s.282.338.254.729-.189.7-.357.683S27.677,24.574,27.705,24.184Z"/>
                <path class="cls-233" d="M27.725,24.186c.026-.367.176-.654.334-.642s.264.317.237.683-.176.653-.334.641S27.7,24.551,27.725,24.186Z"/>
                <path class="cls-234" d="M27.744,24.187c.025-.342.164-.61.312-.6s.246.3.221.638-.165.609-.312.6S27.718,24.528,27.744,24.187Z"/>
                <path class="cls-235" d="M27.763,24.188c.023-.317.153-.566.289-.556s.229.275.206.593-.153.565-.29.555S27.739,24.505,27.763,24.188Z"/>
                <path class="cls-236" d="M27.782,24.19c.021-.293.141-.523.267-.514s.211.254.19.547-.141.522-.267.513S27.76,24.483,27.782,24.19Z"/>
                <path class="cls-237" d="M27.8,24.191c.019-.268.129-.479.245-.47s.194.232.174.5-.13.478-.245.47S27.781,24.459,27.8,24.191Z"/>
                <path class="cls-238" d="M27.82,24.193c.018-.245.118-.436.223-.428s.176.212.158.455-.118.435-.223.428S27.8,24.436,27.82,24.193Z"/>
                <path class="cls-239" d="M27.839,24.194c.016-.22.106-.392.2-.385s.158.19.142.41-.106.392-.2.385S27.823,24.413,27.839,24.194Z"/>
                <path class="cls-240" d="M27.858,24.2c.014-.2.094-.348.178-.342s.141.17.127.364-.094.349-.178.343S27.843,24.39,27.858,24.2Z"/>
                <path class="cls-241" d="M27.877,24.2c.012-.17.082-.3.156-.3s.123.148.111.319-.082.3-.156.3S27.864,24.367,27.877,24.2Z"/>
                <path class="cls-242" d="M27.9,24.2c.011-.145.07-.26.134-.255s.105.127.095.273-.071.261-.134.256S27.885,24.344,27.9,24.2Z"/>
                <path class="cls-243" d="M27.915,24.2c.009-.122.059-.217.112-.213s.087.105.079.227-.059.218-.112.214S27.906,24.321,27.915,24.2Z"/>
                <path class="cls-244" d="M27.934,24.2c.007-.1.047-.173.089-.171s.071.085.064.183-.047.174-.089.171S27.927,24.3,27.934,24.2Z"/>
                <path class="cls-245" d="M27.953,24.2c.006-.073.035-.131.067-.129s.053.064.048.137-.036.131-.067.129S27.948,24.276,27.953,24.2Z"/>
                <path class="cls-246" d="M27.972,24.2c0-.049.024-.087.045-.085s.035.042.032.091-.024.087-.045.085S27.969,24.252,27.972,24.2Z"/>
                <path class="cls-247" d="M27.991,24.205c0-.024.012-.044.023-.043s.017.021.015.045-.011.044-.022.043S27.989,24.23,27.991,24.205Z"/>
              </g>
            </g>
            <g class="cls-14">
              <g class="cls-248">
                <rect x="5.552" y="2.867" width="6.456" height="15.005"/>
                <path d="M11.084,10.709c-.309,5.776-2.651,10.345-5.231,10.206s-4.42-4.931-4.111-10.706S4.394-.136,6.973,0,11.394,4.935,11.084,10.709Z"/>
                <path class="cls-16" d="M11.053,10.708c-.307,5.736-2.634,10.275-5.2,10.138s-4.391-4.9-4.083-10.636S4.407-.064,6.97.072,11.361,4.972,11.053,10.708Z"/>
                <path class="cls-249" d="M11.022,10.706c-.3,5.7-2.616,10.206-5.161,10.071S1.5,15.91,1.8,10.212,4.421.006,6.966.142,11.327,5.008,11.022,10.706Z"/>
                <path class="cls-18" d="M10.991,10.7c-.3,5.659-2.6,10.138-5.127,10S1.532,15.873,1.836,10.214,4.434.076,6.962.212,11.294,5.045,10.991,10.7Z"/>
                <path class="cls-250" d="M10.96,10.7c-.3,5.621-2.581,10.07-5.092,9.935s-4.3-4.8-4-10.421S4.447.147,6.959.281,11.261,5.082,10.96,10.7Z"/>
                <path class="cls-251" d="M10.929,10.7c-.3,5.582-2.564,10-5.057,9.867S1.6,15.8,1.9,10.217,4.461.218,6.955.351,11.228,5.118,10.929,10.7Z"/>
                <path class="cls-252" d="M10.9,10.7c-.3,5.544-2.546,9.931-5.022,9.8S1.632,15.763,1.929,10.219,4.474.288,6.951.421,11.2,5.155,10.9,10.7Z"/>
                <path class="cls-253" d="M10.866,10.7c-.295,5.506-2.527,9.863-4.987,9.731s-4.214-4.7-3.919-10.207S4.488.359,6.947.49,11.161,5.193,10.866,10.7Z"/>
                <path class="cls-254" d="M10.836,10.7c-.293,5.467-2.511,9.793-4.953,9.663S1.7,15.69,1.991,10.222,4.5.429,6.944.56,11.128,5.229,10.836,10.7Z"/>
                <path class="cls-255" d="M10.8,10.694c-.291,5.429-2.492,9.725-4.918,9.594S1.732,15.653,2.022,10.224,4.515.5,6.94.63,11.1,5.266,10.8,10.694Z"/>
                <ellipse class="cls-256" cx="6.413" cy="10.459" rx="9.774" ry="4.366" transform="translate(-4.374 16.304) rotate(-86.932)"/>
                <path class="cls-257" d="M10.742,10.691c-.287,5.352-2.457,9.587-4.848,9.459s-4.1-4.571-3.809-9.922S4.542.641,6.932.769,11.029,5.339,10.742,10.691Z"/>
                <path class="cls-258" d="M10.711,10.69C10.426,16,8.271,20.207,5.9,20.08s-4.067-4.538-3.783-9.851S4.555.711,6.929.838,11,5.376,10.711,10.69Z"/>
                <path class="cls-259" d="M10.68,10.688C10.4,15.963,8.258,20.137,5.9,20.01s-4.038-4.505-3.755-9.779S4.569.781,6.925.908,10.963,5.413,10.68,10.688Z"/>
                <path class="cls-260" d="M10.649,10.686c-.281,5.236-2.4,9.38-4.744,9.255S1.9,15.469,2.178,10.233,4.582.853,6.921.978,10.929,5.449,10.649,10.686Z"/>
                <path class="cls-261" d="M10.618,10.685c-.279,5.2-2.387,9.31-4.709,9.186s-3.979-4.439-3.7-9.637S4.6.923,6.918,1.047,10.9,5.486,10.618,10.685Z"/>
                <path class="cls-262" d="M10.587,10.683c-.277,5.159-2.37,9.242-4.674,9.118S1.964,15.4,2.24,10.236,4.609.993,6.914,1.117,10.863,5.524,10.587,10.683Z"/>
                <path class="cls-263" d="M10.555,10.681C10.281,15.8,8.2,19.855,5.917,19.732S2,15.359,2.271,10.237,4.622,1.064,6.91,1.187,10.83,5.56,10.555,10.681Z"/>
                <path class="cls-264" d="M10.525,10.68c-.273,5.082-2.334,9.1-4.605,8.982S2.03,15.321,2.3,10.238s2.334-9.1,4.6-8.982S10.8,5.6,10.525,10.68Z"/>
                <path class="cls-265" d="M10.493,10.678c-.27,5.044-2.316,9.035-4.569,8.915S2.063,15.284,2.333,10.24,4.649,1.205,6.9,1.325,10.763,5.634,10.493,10.678Z"/>
                <path class="cls-266" d="M10.462,10.676c-.268,5.006-2.3,8.967-4.534,8.847S2.1,15.248,2.364,10.242,4.663,1.276,6.9,1.4,10.73,5.67,10.462,10.676Z"/>
                <path class="cls-267" d="M10.431,10.674c-.266,4.968-2.28,8.9-4.5,8.779S2.13,15.211,2.4,10.244s2.28-8.9,4.5-8.779S10.7,5.707,10.431,10.674Z"/>
                <ellipse class="cls-268" cx="6.413" cy="10.459" rx="8.938" ry="3.993" transform="translate(-4.374 16.304) rotate(-86.933)"/>
                <path class="cls-269" d="M10.369,10.671c-.262,4.891-2.245,8.76-4.43,8.643s-3.744-4.176-3.481-9.067S4.7,1.487,6.888,1.605,10.631,5.78,10.369,10.671Z"/>
                <path class="cls-270" d="M10.338,10.669c-.26,4.853-2.228,8.692-4.395,8.575S2.229,15.1,2.489,10.249s2.227-8.691,4.4-8.575S10.6,5.818,10.338,10.669Z"/>
                <path class="cls-271" d="M10.307,10.668c-.258,4.814-2.211,8.622-4.361,8.507S2.262,15.064,2.52,10.25,4.73,1.628,6.88,1.743,10.565,5.855,10.307,10.668Z"/>
                <path class="cls-272" d="M10.276,10.666c-.256,4.776-2.193,8.553-4.326,8.439s-3.655-4.077-3.4-8.853S4.743,1.7,6.877,1.814,10.531,5.891,10.276,10.666Z"/>
                <path class="cls-273" d="M10.244,10.664c-.253,4.737-2.174,8.485-4.29,8.371S2.328,14.99,2.582,10.254,4.757,1.77,6.873,1.883,10.5,5.928,10.244,10.664Z"/>
                <path class="cls-274" d="M10.214,10.662c-.252,4.7-2.158,8.416-4.256,8.3s-3.6-4.013-3.345-8.71S4.77,1.84,6.869,1.952,10.465,5.965,10.214,10.662Z"/>
                <path class="cls-275" d="M10.182,10.661C9.933,15.32,8.043,19.008,5.961,18.9s-3.566-3.98-3.317-8.64S4.784,1.91,6.865,2.022,10.432,6,10.182,10.661Z"/>
                <path class="cls-276" d="M10.151,10.659C9.9,15.28,8.029,18.938,5.965,18.826s-3.537-3.946-3.29-8.567S4.8,1.981,6.861,2.092,10.4,6.038,10.151,10.659Z"/>
                <path class="cls-277" d="M10.12,10.657c-.245,4.583-2.1,8.209-4.151,8.1s-3.508-3.914-3.262-8.5,2.1-8.209,4.151-8.1S10.365,6.075,10.12,10.657Z"/>
                <path class="cls-278" d="M10.089,10.656C9.845,15.2,8,18.8,5.972,18.688s-3.478-3.881-3.235-8.426,2.087-8.14,4.117-8.031S10.332,6.111,10.089,10.656Z"/>
                <path class="cls-279" d="M10.058,10.654c-.241,4.506-2.069,8.072-4.082,7.963S2.528,14.77,2.769,10.264,4.838,2.193,6.85,2.3,10.3,6.149,10.058,10.654Z"/>
                <path class="cls-280" d="M10.027,10.653c-.24,4.467-2.051,8-4.047,7.895S2.56,14.733,2.8,10.266s2.051-8,4.047-7.9S10.266,6.186,10.027,10.653Z"/>
                <path class="cls-281" d="M10,10.652c-.238,4.428-2.034,7.932-4.012,7.827S2.593,14.7,2.831,10.267,4.864,2.334,6.843,2.44,10.233,6.222,10,10.652Z"/>
                <path class="cls-282" d="M9.965,10.65c-.236,4.39-2.017,7.864-3.978,7.758s-3.36-3.749-3.125-8.139S4.878,2.4,6.839,2.51,10.2,6.259,9.965,10.65Z"/>
                <path class="cls-283" d="M9.933,10.648c-.233,4.352-2,7.8-3.942,7.691s-3.331-3.717-3.1-8.068,2-7.8,3.943-7.692S10.167,6.3,9.933,10.648Z"/>
                <path class="cls-284" d="M9.9,10.646C9.671,14.96,7.922,18.373,6,18.27s-3.3-3.684-3.071-8S4.905,2.545,6.832,2.649,10.133,6.332,9.9,10.646Z"/>
                <path class="cls-285" d="M9.871,10.645C9.642,14.919,7.908,18.3,6,18.2s-3.273-3.651-3.044-7.926S4.918,2.616,6.828,2.718,10.1,6.369,9.871,10.645Z"/>
                <path class="cls-286" d="M9.84,10.643C9.613,14.879,7.9,18.232,6,18.13s-3.243-3.618-3.016-7.854S4.932,2.687,6.824,2.788,10.067,6.406,9.84,10.643Z"/>
                <path class="cls-287" d="M9.809,10.641c-.225,4.2-1.927,7.52-3.8,7.42s-3.213-3.585-2.989-7.783,1.928-7.521,3.8-7.42S10.034,6.443,9.809,10.641Z"/>
                <path class="cls-288" d="M9.778,10.64c-.223,4.159-1.91,7.451-3.768,7.351s-3.184-3.552-2.961-7.713,1.91-7.451,3.768-7.351S10,6.48,9.778,10.64Z"/>
                <path class="cls-289" d="M9.747,10.638c-.221,4.121-1.892,7.382-3.734,7.283S2.859,14.4,3.08,10.28,4.972,2.9,6.813,3,9.967,6.517,9.747,10.638Z"/>
                <path class="cls-290" d="M9.715,10.636c-.218,4.083-1.874,7.313-3.7,7.216s-3.125-3.487-2.906-7.57,1.875-7.313,3.7-7.215S9.934,6.553,9.715,10.636Z"/>
                <path class="cls-291" d="M9.685,10.634c-.217,4.045-1.857,7.245-3.664,7.148s-3.1-3.454-2.879-7.5S5,3.039,6.806,3.136,9.9,6.59,9.685,10.634Z"/>
                <path class="cls-292" d="M9.653,10.633c-.214,4.006-1.839,7.176-3.628,7.08s-3.067-3.422-2.852-7.428S5.012,3.11,6.8,3.205,9.868,6.627,9.653,10.633Z"/>
                <ellipse class="cls-293" cx="6.413" cy="10.459" rx="7.194" ry="3.214" transform="translate(-4.374 16.303) rotate(-86.932)"/>
                <path class="cls-294" d="M9.591,10.629c-.21,3.93-1.8,7.038-3.559,6.944s-3.007-3.355-2.8-7.284,1.8-7.038,3.56-6.944S9.8,6.7,9.591,10.629Z"/>
                <path class="cls-295" d="M9.56,10.628C9.352,14.519,7.774,17.6,6.036,17.5s-2.978-3.323-2.77-7.214S5.053,3.321,6.791,3.414,9.769,6.737,9.56,10.628Z"/>
                <path class="cls-296" d="M9.529,10.626c-.206,3.853-1.769,6.9-3.489,6.808S3.091,14.145,3.3,10.292s1.768-6.9,3.489-6.807S9.736,6.774,9.529,10.626Z"/>
                <path class="cls-297" d="M9.5,10.624c-.2,3.814-1.751,6.832-3.455,6.74s-2.919-3.256-2.715-7.07S5.08,3.462,6.783,3.554,9.7,6.811,9.5,10.624Z"/>
                <path class="cls-298" d="M9.467,10.623c-.2,3.775-1.733,6.762-3.42,6.672s-2.89-3.225-2.687-7S5.093,3.533,6.779,3.623,9.669,6.848,9.467,10.623Z"/>
                <path class="cls-299" d="M9.436,10.621c-.2,3.737-1.716,6.694-3.385,6.6s-2.86-3.191-2.66-6.928S5.107,3.6,6.776,3.694,9.636,6.884,9.436,10.621Z"/>
                <path class="cls-300" d="M9.4,10.619c-.2,3.7-1.7,6.625-3.35,6.536S3.224,14,3.422,10.3s1.7-6.625,3.35-6.536S9.6,6.921,9.4,10.619Z"/>
                <path class="cls-301" d="M9.374,10.617c-.2,3.661-1.681,6.557-3.316,6.469s-2.8-3.126-2.6-6.785,1.68-6.557,3.315-6.469S9.57,6.958,9.374,10.617Z"/>
                <path class="cls-302" d="M9.342,10.616c-.193,3.621-1.662,6.487-3.28,6.4S3.29,13.924,3.484,10.3s1.663-6.486,3.28-6.4S9.536,6.994,9.342,10.616Z"/>
                <path class="cls-303" d="M9.311,10.614c-.192,3.583-1.645,6.418-3.245,6.332S3.323,13.887,3.515,10.3,5.16,3.886,6.761,3.972,9.5,7.031,9.311,10.614Z"/>
                <path class="cls-304" d="M9.28,10.612c-.19,3.545-1.627,6.35-3.21,6.265S3.356,13.85,3.546,10.306s1.628-6.35,3.211-6.265S9.47,7.069,9.28,10.612Z"/>
                <path class="cls-305" d="M9.249,10.611c-.188,3.506-1.61,6.281-3.176,6.2s-2.684-2.994-2.5-6.5,1.61-6.28,3.177-6.2S9.437,7.105,9.249,10.611Z"/>
                <path class="cls-306" d="M9.218,10.61c-.186,3.467-1.592,6.21-3.141,6.127s-2.654-2.96-2.468-6.428S5.2,4.1,6.75,4.181,9.4,7.142,9.218,10.61Z"/>
                <path class="cls-307" d="M9.187,10.608C9,14.037,7.612,16.75,6.081,16.668s-2.625-2.929-2.442-6.357S5.214,4.168,6.746,4.25,9.371,7.179,9.187,10.608Z"/>
                <path class="cls-308" d="M9.156,10.606C8.974,14,7.6,16.68,6.084,16.6s-2.595-2.9-2.413-6.286S5.228,4.238,6.742,4.319,9.338,7.215,9.156,10.606Z"/>
                <path class="cls-309" d="M9.125,10.605c-.18,3.351-1.539,6-3.037,5.924S3.522,13.666,3.7,10.314s1.539-6,3.036-5.925S9.3,7.252,9.125,10.605Z"/>
                <path class="cls-310" d="M9.093,10.6c-.177,3.313-1.521,5.935-3,5.856s-2.537-2.83-2.359-6.143,1.522-5.936,3-5.857S9.271,7.289,9.093,10.6Z"/>
                <path class="cls-311" d="M9.063,10.6c-.176,3.275-1.5,5.867-2.968,5.789s-2.506-2.8-2.331-6.072,1.5-5.868,2.967-5.79S9.238,7.325,9.063,10.6Z"/>
                <path class="cls-312" d="M9.031,10.6c-.173,3.236-1.486,5.8-2.932,5.72s-2.477-2.764-2.3-6S5.281,4.521,6.727,4.6,9.205,7.362,9.031,10.6Z"/>
                <path class="cls-313" d="M9,10.6c-.171,3.2-1.468,5.729-2.9,5.652s-2.448-2.731-2.277-5.93S5.3,4.591,6.723,4.668,9.172,7.4,9,10.6Z"/>
                <path class="cls-314" d="M8.969,10.6c-.169,3.16-1.451,5.66-2.862,5.585s-2.419-2.7-2.25-5.859S5.308,4.662,6.72,4.737,9.138,7.436,8.969,10.6Z"/>
                <path class="cls-315" d="M8.938,10.6c-.167,3.121-1.433,5.591-2.827,5.516s-2.39-2.666-2.223-5.788,1.433-5.59,2.828-5.516S9.105,7.473,8.938,10.6Z"/>
                <path class="cls-316" d="M8.907,10.593c-.165,3.083-1.416,5.522-2.793,5.448s-2.36-2.633-2.194-5.716S5.335,4.8,6.713,4.877,9.072,7.51,8.907,10.593Z"/>
                <path class="cls-317" d="M8.876,10.591c-.163,3.045-1.4,5.454-2.758,5.381s-2.331-2.6-2.168-5.645,1.4-5.454,2.759-5.381S9.039,7.546,8.876,10.591Z"/>
                <path class="cls-318" d="M8.845,10.589C8.684,13.6,7.465,15.975,6.122,15.9s-2.3-2.568-2.14-5.574,1.38-5.385,2.723-5.313S9.006,7.583,8.845,10.589Z"/>
                <path class="cls-319" d="M8.814,10.588c-.159,2.968-1.363,5.315-2.689,5.245S3.854,13.3,4.013,10.33,5.375,5.015,6.7,5.085,8.973,7.62,8.814,10.588Z"/>
                <path class="cls-320" d="M8.782,10.586c-.156,2.93-1.344,5.247-2.653,5.177s-2.242-2.5-2.085-5.431S5.389,5.085,6.7,5.155,8.94,7.656,8.782,10.586Z"/>
                <path class="cls-321" d="M8.752,10.584c-.155,2.892-1.328,5.179-2.619,5.11s-2.213-2.469-2.058-5.36S5.4,5.155,6.694,5.225,8.906,7.694,8.752,10.584Z"/>
                <path class="cls-322" d="M8.72,10.583c-.152,2.852-1.309,5.11-2.584,5.041s-2.183-2.436-2.03-5.289S5.416,5.226,6.69,5.294,8.873,7.731,8.72,10.583Z"/>
                <path class="cls-323" d="M8.689,10.581C8.539,13.4,7.4,15.621,6.14,15.554s-2.154-2.4-2-5.217S5.429,5.3,6.686,5.364,8.84,7.767,8.689,10.581Z"/>
                <path class="cls-324" d="M8.658,10.579c-.149,2.776-1.274,4.972-2.514,4.906S4.02,13.114,4.168,10.339s1.275-4.972,2.514-4.9S8.807,7.8,8.658,10.579Z"/>
                <path class="cls-325" d="M8.627,10.577c-.146,2.738-1.257,4.9-2.479,4.838S4.053,13.077,4.2,10.341s1.257-4.9,2.48-4.838S8.774,7.841,8.627,10.577Z"/>
                <path class="cls-326" d="M8.6,10.576c-.145,2.7-1.239,4.834-2.444,4.769s-2.066-2.3-1.921-5S5.469,5.508,6.675,5.573,8.74,7.877,8.6,10.576Z"/>
                <path class="cls-327" d="M8.565,10.574c-.142,2.661-1.222,4.765-2.41,4.7S4.119,13,4.261,10.344s1.222-4.765,2.41-4.7S8.707,7.914,8.565,10.574Z"/>
                <path class="cls-328" d="M8.534,10.572c-.141,2.622-1.2,4.7-2.375,4.634s-2.007-2.239-1.866-4.86,1.2-4.7,2.375-4.634S8.674,7.951,8.534,10.572Z"/>
                <path class="cls-329" d="M8.5,10.571c-.139,2.583-1.186,4.627-2.34,4.566s-1.978-2.206-1.839-4.79S5.51,5.72,6.664,5.781,8.641,7.987,8.5,10.571Z"/>
                <path class="cls-330" d="M8.472,10.569c-.137,2.545-1.169,4.559-2.306,4.5s-1.948-2.173-1.811-4.718,1.168-4.559,2.3-4.5S8.608,8.025,8.472,10.569Z"/>
                <path class="cls-331" d="M8.441,10.568C8.306,13.074,7.29,15.057,6.17,15s-1.918-2.14-1.784-4.646,1.151-4.49,2.27-4.43S8.575,8.062,8.441,10.568Z"/>
                <path class="cls-332" d="M8.409,10.567c-.132,2.467-1.132,4.419-2.235,4.361S4.285,12.82,4.417,10.352,5.55,5.932,6.653,5.99,8.542,8.1,8.409,10.567Z"/>
                <path class="cls-333" d="M8.378,10.565c-.13,2.429-1.115,4.351-2.2,4.293s-1.859-2.075-1.729-4.5S5.564,6,6.649,6.061,8.508,8.135,8.378,10.565Z"/>
                <path class="cls-334" d="M8.347,10.563c-.128,2.39-1.1,4.283-2.166,4.225s-1.83-2.042-1.7-4.432,1.1-4.284,2.166-4.226S8.475,8.172,8.347,10.563Z"/>
                <path class="cls-335" d="M8.316,10.561c-.126,2.352-1.08,4.214-2.131,4.158s-1.8-2.009-1.675-4.361S5.59,6.144,6.641,6.2,8.442,8.208,8.316,10.561Z"/>
                <path class="cls-336" d="M8.285,10.56c-.124,2.313-1.063,4.144-2.1,4.09s-1.771-1.977-1.647-4.291,1.062-4.145,2.1-4.09S8.409,8.245,8.285,10.56Z"/>
                <path class="cls-337" d="M8.254,10.558c-.122,2.275-1.045,4.076-2.061,4.021s-1.742-1.943-1.621-4.218S5.617,6.284,6.634,6.339,8.376,8.282,8.254,10.558Z"/>
                <path class="cls-338" d="M8.223,10.556C8.1,12.793,7.2,14.564,6.2,14.51S4.484,12.6,4.6,10.362,5.631,6.355,6.63,6.408,8.342,8.319,8.223,10.556Z"/>
                <path class="cls-339" d="M8.192,10.555c-.118,2.2-1.01,3.938-1.992,3.886s-1.683-1.878-1.565-4.078S5.644,6.425,6.627,6.478,8.309,8.356,8.192,10.555Z"/>
                <path class="cls-340" d="M8.161,10.553c-.116,2.16-.992,3.869-1.957,3.817s-1.654-1.844-1.538-4S5.658,6.5,6.623,6.548,8.277,8.393,8.161,10.553Z"/>
                <ellipse class="cls-341" cx="6.413" cy="10.459" rx="3.847" ry="1.719" transform="translate(-4.375 16.303) rotate(-86.928)"/>
                <path class="cls-342" d="M8.1,10.549c-.111,2.084-.956,3.732-1.887,3.683s-1.6-1.78-1.483-3.863.957-3.732,1.887-3.682S8.21,8.466,8.1,10.549Z"/>
                <path class="cls-343" d="M8.067,10.548c-.109,2.045-.938,3.663-1.852,3.613S4.65,12.415,4.759,10.37,5.7,6.707,6.611,6.757,8.177,8.5,8.067,10.548Z"/>
                <path class="cls-344" d="M8.036,10.546c-.107,2.007-.921,3.594-1.818,3.546s-1.535-1.713-1.428-3.72.922-3.594,1.818-3.546S8.144,8.539,8.036,10.546Z"/>
                <path class="cls-345" d="M8.005,10.544c-.105,1.969-.9,3.525-1.783,3.479s-1.506-1.681-1.4-3.649S5.725,6.849,6.6,6.9,8.111,8.576,8.005,10.544Z"/>
                <path class="cls-346" d="M7.974,10.543c-.1,1.929-.886,3.456-1.748,3.41s-1.477-1.648-1.373-3.578S5.738,6.919,6.6,6.965,8.077,8.613,7.974,10.543Z"/>
                <path class="cls-347" d="M7.943,10.541c-.1,1.891-.869,3.388-1.713,3.342s-1.448-1.614-1.347-3.506S5.752,6.989,6.6,7.035,8.044,8.65,7.943,10.541Z"/>
                <path class="cls-348" d="M7.912,10.539c-.1,1.853-.851,3.319-1.678,3.275s-1.418-1.582-1.319-3.435.85-3.318,1.678-3.274S8.011,8.687,7.912,10.539Z"/>
                <path class="cls-349" d="M7.881,10.538c-.1,1.814-.833,3.249-1.644,3.206s-1.388-1.55-1.291-3.364.833-3.249,1.643-3.206S7.978,8.724,7.881,10.538Z"/>
                <path class="cls-350" d="M7.85,10.536c-.095,1.776-.816,3.181-1.609,3.138s-1.359-1.516-1.264-3.292S5.792,7.2,6.586,7.244,7.945,8.76,7.85,10.536Z"/>
                <path class="cls-351" d="M7.819,10.534c-.094,1.738-.8,3.113-1.574,3.071s-1.33-1.484-1.237-3.221.8-3.112,1.574-3.07S7.911,8.8,7.819,10.534Z"/>
                <path class="cls-352" d="M7.787,10.532c-.091,1.7-.78,3.043-1.539,3s-1.3-1.451-1.209-3.149.78-3.043,1.539-3S7.879,8.834,7.787,10.532Z"/>
                <path class="cls-353" d="M7.756,10.531c-.089,1.661-.762,2.974-1.5,2.935S4.981,12.048,5.07,10.387s.763-2.974,1.5-2.935S7.845,8.87,7.756,10.531Z"/>
                <path class="cls-354" d="M7.725,10.529c-.087,1.623-.744,2.906-1.469,2.867S5.014,12.011,5.1,10.389s.745-2.9,1.469-2.866S7.812,8.907,7.725,10.529Z"/>
                <path class="cls-355" d="M7.694,10.528c-.085,1.583-.727,2.836-1.435,2.8s-1.211-1.352-1.127-2.935.728-2.837,1.435-2.8S7.779,8.944,7.694,10.528Z"/>
                <path class="cls-356" d="M7.663,10.527c-.083,1.544-.709,2.766-1.4,2.73s-1.182-1.319-1.1-2.865.709-2.767,1.4-2.731S7.746,8.981,7.663,10.527Z"/>
                <path class="cls-357" d="M7.632,10.525c-.081,1.506-.692,2.7-1.365,2.662S5.114,11.9,5.2,10.394s.691-2.7,1.364-2.662S7.713,9.018,7.632,10.525Z"/>
                <path class="cls-358" d="M7.6,10.523c-.079,1.467-.675,2.63-1.33,2.594S5.147,11.863,5.226,10.4s.674-2.63,1.33-2.6S7.679,9.055,7.6,10.523Z"/>
                <path class="cls-359" d="M7.57,10.521c-.077,1.429-.657,2.561-1.295,2.527s-1.1-1.221-1.018-2.65.656-2.562,1.3-2.528S7.646,9.091,7.57,10.521Z"/>
                <path class="cls-360" d="M7.539,10.52c-.075,1.39-.639,2.492-1.261,2.458S5.214,11.79,5.288,10.4s.639-2.493,1.26-2.458S7.613,9.128,7.539,10.52Z"/>
                <path class="cls-361" d="M7.507,10.518c-.072,1.352-.621,2.423-1.225,2.39S5.247,11.753,5.319,10.4,5.94,7.978,6.545,8.01,7.58,9.165,7.507,10.518Z"/>
                <path class="cls-362" d="M7.476,10.516c-.07,1.314-.6,2.354-1.19,2.323S5.28,11.717,5.35,10.4s.6-2.355,1.191-2.324S7.547,9.2,7.476,10.516Z"/>
                <path class="cls-363" d="M7.445,10.515C7.377,11.79,6.86,12.8,6.29,12.77s-.977-1.09-.908-2.367.585-2.285,1.155-2.254S7.513,9.238,7.445,10.515Z"/>
                <path class="cls-364" d="M7.414,10.513C7.348,11.75,6.846,12.73,6.293,12.7s-.947-1.056-.881-2.294.569-2.216,1.121-2.186S7.481,9.276,7.414,10.513Z"/>
                <path class="cls-365" d="M7.383,10.511c-.064,1.2-.55,2.147-1.086,2.119s-.918-1.023-.853-2.223.55-2.147,1.085-2.119S7.447,9.312,7.383,10.511Z"/>
                <path class="cls-365" d="M7.352,10.509C7.29,11.67,6.819,12.588,6.3,12.561s-.888-.992-.825-2.152S6.007,8.33,6.526,8.358,7.414,9.349,7.352,10.509Z"/>
                <path class="cls-366" d="M7.341,10.509c-.061,1.147-.526,2.056-1.039,2.028s-.878-.98-.817-2.128.527-2.055,1.04-2.028S7.4,9.361,7.341,10.509Z"/>
                <path class="cls-367" d="M7.332,10.508c-.061,1.136-.522,2.034-1.029,2.007s-.869-.97-.808-2.105S6.016,8.376,6.524,8.4,7.392,9.373,7.332,10.508Z"/>
                <path class="cls-368" d="M7.321,10.508c-.06,1.122-.515,2.011-1.017,1.984s-.859-.959-.8-2.082S6.021,8.4,6.522,8.426,7.382,9.385,7.321,10.508Z"/>
                <path class="cls-369" d="M7.311,10.507c-.059,1.11-.51,1.988-1.006,1.962s-.849-.948-.79-2.058.51-1.988,1.006-1.962S7.371,9.4,7.311,10.507Z"/>
                <path class="cls-370" d="M7.3,10.507c-.059,1.1-.5,1.966-.994,1.939s-.84-.937-.781-2.035.5-1.966.994-1.939S7.36,9.409,7.3,10.507Z"/>
                <path class="cls-371" d="M7.291,10.506c-.058,1.085-.5,1.943-.983,1.917s-.83-.926-.772-2.011.5-1.943.983-1.917S7.349,9.421,7.291,10.506Z"/>
                <path class="cls-372" d="M7.28,10.506c-.057,1.071-.492,1.92-.971,1.895s-.821-.916-.763-1.989.492-1.92.971-1.894S7.338,9.434,7.28,10.506Z"/>
                <path class="cls-373" d="M7.27,10.505c-.056,1.06-.486,1.9-.96,1.873s-.81-.9-.754-1.965.487-1.9.96-1.873S7.327,9.445,7.27,10.505Z"/>
                <path class="cls-374" d="M7.26,10.5c-.056,1.048-.481,1.876-.948,1.851s-.8-.894-.745-1.941.48-1.876.948-1.85S7.316,9.457,7.26,10.5Z"/>
                <path class="cls-375" d="M7.25,10.5c-.055,1.034-.475,1.853-.937,1.828s-.792-.884-.736-1.918.474-1.852.936-1.828S7.305,9.47,7.25,10.5Z"/>
                <path class="cls-376" d="M7.24,10.5c-.055,1.023-.469,1.83-.926,1.806s-.782-.872-.727-1.894.469-1.83.925-1.8S7.3,9.482,7.24,10.5Z"/>
                <path class="cls-377" d="M7.23,10.5c-.055,1.009-.464,1.808-.914,1.783s-.773-.861-.719-1.871.463-1.807.914-1.783S7.283,9.493,7.23,10.5Z"/>
                <path class="cls-378" d="M7.219,10.5c-.053,1-.457,1.785-.9,1.762s-.763-.852-.71-1.848.458-1.785.9-1.762S7.273,9.506,7.219,10.5Z"/>
                <path class="cls-379" d="M7.209,10.5c-.053.984-.452,1.762-.891,1.738s-.753-.839-.7-1.824.452-1.762.891-1.738S7.262,9.518,7.209,10.5Z"/>
                <path class="cls-380" d="M7.2,10.5c-.052.972-.446,1.74-.88,1.717s-.744-.83-.691-1.8.445-1.74.879-1.717S7.251,9.53,7.2,10.5Z"/>
                <path class="cls-381" d="M7.189,10.5c-.052.958-.44,1.717-.869,1.693s-.733-.818-.682-1.777.44-1.717.868-1.693S7.24,9.542,7.189,10.5Z"/>
                <path class="cls-382" d="M7.178,10.5c-.05.946-.434,1.694-.857,1.672s-.724-.808-.673-1.754.434-1.694.857-1.672S7.229,9.554,7.178,10.5Z"/>
                <path class="cls-383" d="M7.168,10.5c-.05.934-.428,1.673-.845,1.651s-.715-.8-.665-1.731.429-1.673.846-1.65S7.218,9.567,7.168,10.5Z"/>
                <path class="cls-384" d="M7.158,10.5c-.049.921-.423,1.65-.834,1.627s-.7-.786-.655-1.707S6.091,8.77,6.5,8.792,7.207,9.578,7.158,10.5Z"/>
                <path class="cls-385" d="M7.148,10.5c-.049.908-.417,1.627-.823,1.606s-.7-.776-.646-1.684S6.1,8.793,6.5,8.815,7.2,9.59,7.148,10.5Z"/>
                <path class="cls-386" d="M7.138,10.5c-.048.9-.412,1.6-.812,1.583s-.685-.765-.637-1.661.411-1.6.811-1.583S7.186,9.6,7.138,10.5Z"/>
                <path class="cls-387" d="M7.128,10.5c-.048.883-.406,1.582-.8,1.561S5.652,11.3,5.7,10.421s.406-1.582.8-1.56S7.175,9.614,7.128,10.5Z"/>
                <path class="cls-388" d="M7.117,10.5c-.047.87-.4,1.559-.788,1.538s-.666-.743-.62-1.614.4-1.559.789-1.538S7.164,9.626,7.117,10.5Z"/>
                <path class="cls-389" d="M7.107,10.5c-.046.858-.394,1.536-.777,1.516s-.656-.733-.611-1.59.394-1.536.777-1.516S7.153,9.639,7.107,10.5Z"/>
                <path class="cls-390" d="M7.1,10.5c-.046.845-.388,1.514-.766,1.493s-.647-.721-.6-1.567.388-1.514.765-1.493S7.142,9.651,7.1,10.5Z"/>
                <path class="cls-391" d="M7.087,10.5c-.045.832-.383,1.491-.754,1.472s-.638-.711-.593-1.544.382-1.491.754-1.472S7.131,9.662,7.087,10.5Z"/>
                <path class="cls-392" d="M7.076,10.494c-.044.821-.376,1.469-.742,1.45s-.628-.7-.584-1.52.377-1.469.743-1.449S7.12,9.675,7.076,10.494Z"/>
                <path class="cls-393" d="M7.066,10.494c-.043.807-.371,1.447-.731,1.427s-.618-.689-.575-1.5S6.131,8.978,6.491,9,7.11,9.687,7.066,10.494Z"/>
                <path class="cls-394" d="M7.056,10.493c-.043.8-.365,1.424-.72,1.4s-.608-.679-.565-1.473S6.135,9,6.49,9.021,7.1,9.7,7.056,10.493Z"/>
                <path class="cls-395" d="M7.046,10.493c-.042.783-.359,1.4-.708,1.382s-.6-.668-.558-1.45.36-1.4.709-1.382S7.088,9.711,7.046,10.493Z"/>
                <path class="cls-396" d="M7.036,10.492c-.042.77-.354,1.379-.7,1.361s-.589-.658-.548-1.427.353-1.379.7-1.36S7.077,9.723,7.036,10.492Z"/>
                <path class="cls-397" d="M7.026,10.492c-.041.757-.348,1.356-.686,1.337s-.58-.646-.539-1.4.348-1.356.685-1.337S7.066,9.736,7.026,10.492Z"/>
                <path class="cls-398" d="M7.015,10.491c-.04.745-.341,1.333-.674,1.316s-.569-.636-.53-1.38.342-1.333.675-1.316S7.055,9.747,7.015,10.491Z"/>
                <path class="cls-399" d="M7.005,10.49c-.039.733-.336,1.311-.663,1.293s-.56-.624-.521-1.355.336-1.311.663-1.293S7.044,9.759,7.005,10.49Z"/>
                <path class="cls-400" d="M7,10.49c-.039.719-.33,1.288-.652,1.271s-.55-.614-.511-1.333.33-1.288.651-1.271S7.033,9.772,7,10.49Z"/>
                <path class="cls-401" d="M6.985,10.489c-.038.707-.325,1.266-.64,1.249s-.541-.6-.5-1.309.324-1.266.64-1.249S7.023,9.783,6.985,10.489Z"/>
                <path class="cls-402" d="M6.974,10.489c-.037.694-.318,1.243-.628,1.226s-.531-.592-.494-1.286.319-1.242.629-1.226S7.011,9.8,6.974,10.489Z"/>
                <path class="cls-403" d="M6.964,10.488c-.036.682-.312,1.221-.617,1.205s-.521-.582-.485-1.263.313-1.221.617-1.2S7,9.808,6.964,10.488Z"/>
                <path class="cls-404" d="M6.954,10.488c-.036.668-.307,1.2-.606,1.182s-.511-.571-.475-1.24.306-1.2.6-1.182S6.99,9.819,6.954,10.488Z"/>
                <path class="cls-405" d="M6.944,10.487c-.035.657-.3,1.175-.594,1.16s-.5-.56-.468-1.216.3-1.175.6-1.159S6.979,9.831,6.944,10.487Z"/>
                <path class="cls-406" d="M6.934,10.487c-.035.643-.3,1.153-.583,1.137s-.492-.55-.458-1.193.295-1.153.583-1.137S6.968,9.844,6.934,10.487Z"/>
                <path class="cls-407" d="M6.924,10.486c-.034.631-.29,1.13-.572,1.115s-.483-.538-.449-1.169.29-1.13.571-1.114S6.957,9.856,6.924,10.486Z"/>
                <path class="cls-408" d="M6.913,10.486c-.033.618-.283,1.107-.56,1.092s-.473-.528-.44-1.145.284-1.108.56-1.093S6.946,9.868,6.913,10.486Z"/>
                <path class="cls-409" d="M6.9,10.486c-.032.6-.278,1.083-.548,1.07s-.464-.518-.431-1.123.277-1.084.548-1.071S6.935,9.88,6.9,10.486Z"/>
                <path class="cls-410" d="M6.893,10.485c-.032.592-.272,1.062-.537,1.047s-.454-.505-.422-1.1.272-1.063.537-1.048S6.924,9.892,6.893,10.485Z"/>
                <path class="cls-411" d="M6.882,10.485c-.03.58-.266,1.039-.525,1.025s-.444-.5-.413-1.076S6.21,9.4,6.469,9.408,6.914,9.9,6.882,10.485Z"/>
                <path class="cls-412" d="M6.872,10.484c-.03.567-.26,1.016-.514,1s-.434-.484-.4-1.051.261-1.017.514-1S6.9,9.916,6.872,10.484Z"/>
                <path class="cls-413" d="M6.862,10.484c-.029.554-.254.994-.5.98s-.425-.474-.4-1.029.254-.994.5-.981S6.892,9.928,6.862,10.484Z"/>
                <path class="cls-414" d="M6.852,10.483c-.029.542-.249.971-.491.959s-.416-.464-.387-1.006.25-.972.492-.959S6.881,9.941,6.852,10.483Z"/>
                <path class="cls-415" d="M6.842,10.483c-.029.529-.244.948-.48.935s-.406-.452-.377-.982.243-.949.48-.936S6.87,9.952,6.842,10.483Z"/>
                <path class="cls-416" d="M6.832,10.482c-.028.517-.238.926-.469.914s-.4-.442-.368-.959.238-.927.469-.914S6.859,9.964,6.832,10.482Z"/>
                <path class="cls-417" d="M6.821,10.481c-.027.505-.231.9-.457.892s-.386-.431-.359-.935.232-.905.457-.893S6.848,9.977,6.821,10.481Z"/>
                <path class="cls-418" d="M6.811,10.481c-.026.492-.226.88-.446.869s-.376-.42-.35-.912.226-.881.446-.869S6.838,9.988,6.811,10.481Z"/>
                <path class="cls-419" d="M6.8,10.48c-.026.479-.22.858-.434.847s-.367-.409-.341-.888.22-.859.434-.848S6.827,10,6.8,10.48Z"/>
                <path class="cls-420" d="M6.791,10.48c-.025.466-.215.836-.423.824s-.357-.4-.332-.865.214-.836.423-.825S6.816,10.013,6.791,10.48Z"/>
                <path class="cls-421" d="M6.78,10.479c-.024.454-.208.813-.411.8s-.347-.387-.323-.841.209-.814.411-.8S6.805,10.025,6.78,10.479Z"/>
                <path class="cls-422" d="M6.77,10.479c-.023.441-.2.79-.4.78s-.338-.378-.314-.819.2-.79.4-.781S6.794,10.037,6.77,10.479Z"/>
                <path class="cls-423" d="M6.76,10.478c-.023.428-.2.768-.388.758s-.329-.367-.3-.795.2-.769.388-.758S6.783,10.049,6.76,10.478Z"/>
                <path class="cls-424" d="M6.75,10.477c-.022.417-.191.746-.377.736s-.319-.355-.3-.771.192-.747.378-.737S6.772,10.061,6.75,10.477Z"/>
                <path class="cls-425" d="M6.74,10.477c-.022.4-.186.722-.366.713s-.309-.345-.287-.748.185-.723.365-.713S6.761,10.073,6.74,10.477Z"/>
                <path class="cls-426" d="M6.73,10.476c-.021.391-.18.7-.355.691s-.3-.334-.278-.724.18-.7.354-.692S6.751,10.085,6.73,10.476Z"/>
                <path class="cls-427" d="M6.719,10.476c-.02.378-.173.677-.342.669s-.29-.324-.27-.7.174-.678.343-.669S6.739,10.1,6.719,10.476Z"/>
                <path class="cls-428" d="M6.709,10.475c-.019.366-.168.655-.331.646s-.28-.312-.261-.677.168-.656.332-.647S6.729,10.11,6.709,10.475Z"/>
                <path class="cls-429" d="M6.7,10.475c-.019.352-.162.633-.32.624s-.27-.3-.251-.655.162-.633.319-.625S6.718,10.121,6.7,10.475Z"/>
                <path class="cls-430" d="M6.689,10.474c-.018.341-.157.61-.309.6s-.261-.29-.242-.631.156-.61.308-.6S6.707,10.133,6.689,10.474Z"/>
                <path class="cls-431" d="M6.678,10.474c-.017.327-.15.587-.3.579s-.251-.28-.234-.609.151-.586.3-.579S6.7,10.146,6.678,10.474Z"/>
                <path class="cls-432" d="M6.668,10.473c-.016.315-.144.564-.286.557s-.241-.269-.224-.585.145-.564.286-.557S6.685,10.157,6.668,10.473Z"/>
                <path class="cls-433" d="M6.658,10.472c-.016.3-.139.543-.274.535s-.232-.258-.215-.561.138-.543.274-.535S6.674,10.169,6.658,10.472Z"/>
                <path class="cls-434" d="M6.648,10.472c-.016.29-.133.519-.263.513s-.222-.249-.207-.539.134-.519.264-.512S6.663,10.182,6.648,10.472Z"/>
                <path class="cls-435" d="M6.638,10.471c-.015.277-.128.5-.252.491s-.212-.237-.2-.515.127-.5.251-.491S6.653,10.194,6.638,10.471Z"/>
                <path class="cls-436" d="M6.628,10.471c-.015.265-.122.474-.241.468s-.2-.227-.188-.492.121-.474.24-.467S6.642,10.206,6.628,10.471Z"/>
                <path class="cls-437" d="M6.617,10.47c-.013.253-.115.452-.228.446s-.194-.216-.18-.468S6.325,10,6.438,10,6.631,10.218,6.617,10.47Z"/>
                <path class="cls-438" d="M6.607,10.47c-.013.239-.11.429-.217.423s-.183-.2-.171-.445.11-.428.218-.422S6.62,10.23,6.607,10.47Z"/>
                <path class="cls-439" d="M6.6,10.469c-.012.227-.1.407-.206.4s-.174-.194-.161-.421.1-.407.2-.4S6.609,10.242,6.6,10.469Z"/>
                <path class="cls-440" d="M6.587,10.469c-.012.214-.1.384-.195.379s-.164-.184-.152-.4.1-.383.194-.379S6.6,10.254,6.587,10.469Z"/>
                <path class="cls-441" d="M6.576,10.468c-.01.2-.092.361-.182.356s-.155-.171-.144-.374.092-.361.183-.356S6.587,10.266,6.576,10.468Z"/>
                <path class="cls-442" d="M6.566,10.467c-.01.189-.086.339-.171.335s-.145-.162-.135-.351.087-.339.172-.335S6.576,10.278,6.566,10.467Z"/>
                <path class="cls-443" d="M6.556,10.467c-.009.177-.081.316-.16.311s-.135-.15-.126-.327.082-.316.16-.311S6.566,10.29,6.556,10.467Z"/>
                <path class="cls-444" d="M6.546,10.466c-.009.164-.076.294-.149.29s-.125-.14-.117-.3.076-.294.149-.29S6.555,10.3,6.546,10.466Z"/>
                <path class="cls-445" d="M6.536,10.466c-.008.151-.07.27-.137.268s-.116-.13-.108-.282.07-.27.137-.267S6.544,10.315,6.536,10.466Z"/>
                <path class="cls-446" d="M6.526,10.465c-.008.139-.064.249-.126.245s-.106-.118-.1-.257.064-.249.126-.245S6.533,10.326,6.526,10.465Z"/>
                <path class="cls-447" d="M6.515,10.465c-.007.126-.058.226-.114.223s-.1-.108-.09-.235.058-.225.114-.222S6.522,10.338,6.515,10.465Z"/>
                <path class="cls-448" d="M6.505,10.464c-.006.113-.052.2-.1.2s-.087-.1-.081-.21.053-.2.1-.2S6.511,10.351,6.505,10.464Z"/>
                <path class="cls-449" d="M6.5,10.463c-.006.1-.047.182-.092.179s-.077-.086-.071-.187.046-.181.091-.178S6.5,10.362,6.5,10.463Z"/>
                <path class="cls-450" d="M6.485,10.463c0,.088-.041.158-.081.156s-.067-.076-.062-.164.04-.158.08-.156S6.489,10.375,6.485,10.463Z"/>
                <path class="cls-451" d="M6.474,10.462c0,.076-.034.136-.068.134s-.058-.065-.054-.14.035-.136.069-.134S6.479,10.387,6.474,10.462Z"/>
                <path class="cls-452" d="M6.464,10.462c0,.063-.029.112-.057.111s-.048-.053-.045-.117.029-.112.058-.111S6.467,10.4,6.464,10.462Z"/>
                <path class="cls-453" d="M6.454,10.461c0,.051-.023.091-.046.09s-.038-.044-.036-.094.024-.091.046-.09S6.457,10.411,6.454,10.461Z"/>
                <path class="cls-454" d="M6.444,10.461c0,.037-.018.067-.035.067s-.028-.033-.027-.071.018-.067.035-.066S6.446,10.423,6.444,10.461Z"/>
                <path class="cls-455" d="M6.434,10.46c0,.026-.012.045-.023.045s-.02-.021-.018-.047.011-.045.023-.045S6.435,10.435,6.434,10.46Z"/>
                <path class="cls-456" d="M6.424,10.46c0,.012-.006.023-.012.022s-.009-.011-.009-.024.006-.022.012-.021S6.424,10.447,6.424,10.46Z"/>
              </g>
            </g>
          </g>
        </g>
      </g>
    </g>
  </g>
</svg>
