<svg xmlns="http://www.w3.org/2000/svg" xmlns:xlink="http://www.w3.org/1999/xlink" viewBox="0 0 33.471 43.043">
  <defs>
    <style>
      .cls-1 {
        fill: none;
      }

      .cls-2 {
        isolation: isolate;
      }

      .cls-3 {
        mix-blend-mode: multiply;
        fill: url(#radial-gradient);
      }

      .cls-4 {
        fill: #5c7d00;
      }

      .cls-5 {
        fill: url(#radial-gradient-2);
      }

      .cls-6 {
        fill: url(#radial-gradient-3);
      }

      .cls-7 {
        fill: url(#radial-gradient-4);
      }

      .cls-11, .cls-13, .cls-14, .cls-8 {
        mix-blend-mode: screen;
      }

      .cls-8 {
        fill: url(#linear-gradient);
      }

      .cls-9 {
        fill: url(#radial-gradient-5);
      }

      .cls-10 {
        fill: #5e9703;
      }

      .cls-11 {
        fill: url(#radial-gradient-6);
      }

      .cls-12 {
        fill: #85cf4a;
      }

      .cls-13 {
        fill: url(#radial-gradient-7);
      }

      .cls-15 {
        clip-path: url(#clip-path);
      }

      .cls-16 {
        fill: #010101;
      }

      .cls-17 {
        fill: #020201;
      }

      .cls-18 {
        fill: #030302;
      }

      .cls-19 {
        fill: #040403;
      }

      .cls-20 {
        fill: #040503;
      }

      .cls-21 {
        fill: #050604;
      }

      .cls-22 {
        fill: #060705;
      }

      .cls-23 {
        fill: #070805;
      }

      .cls-24 {
        fill: #080906;
      }

      .cls-25 {
        fill: #090a07;
      }

      .cls-26 {
        fill: #0a0b07;
      }

      .cls-27 {
        fill: #0b0c08;
      }

      .cls-28 {
        fill: #0b0d09;
      }

      .cls-29 {
        fill: #0c0e09;
      }

      .cls-30 {
        fill: #0d0f0a;
      }

      .cls-31 {
        fill: #0e100b;
      }

      .cls-32 {
        fill: #0f110b;
      }

      .cls-33 {
        fill: #10120c;
      }

      .cls-34 {
        fill: #11130d;
      }

      .cls-35 {
        fill: #12140d;
      }

      .cls-36 {
        fill: #12150e;
      }

      .cls-37 {
        fill: #13160f;
      }

      .cls-38 {
        fill: #14170f;
      }

      .cls-39 {
        fill: #151810;
      }

      .cls-40 {
        fill: #161911;
      }

      .cls-41 {
        fill: #171a11;
      }

      .cls-42 {
        fill: #181b12;
      }

      .cls-43 {
        fill: #191c13;
      }

      .cls-44 {
        fill: #191d13;
      }

      .cls-45 {
        fill: #1a1e14;
      }

      .cls-46 {
        fill: #1b1f15;
      }

      .cls-47 {
        fill: #1c2015;
      }

      .cls-48 {
        fill: #1d2116;
      }

      .cls-49 {
        fill: #1e2217;
      }

      .cls-50 {
        fill: #1f2317;
      }

      .cls-51 {
        fill: #202418;
      }

      .cls-52 {
        fill: #202519;
      }

      .cls-53 {
        fill: #212619;
      }

      .cls-54 {
        fill: #22271a;
      }

      .cls-55 {
        fill: #23281b;
      }

      .cls-56 {
        fill: #242a1b;
      }

      .cls-57 {
        fill: #252b1c;
      }

      .cls-58 {
        fill: #262c1d;
      }

      .cls-59 {
        fill: #272d1d;
      }

      .cls-60 {
        fill: #272e1e;
      }

      .cls-61 {
        fill: #282f1f;
      }

      .cls-62 {
        fill: #29301f;
      }

      .cls-63 {
        fill: #2a3120;
      }

      .cls-64 {
        fill: #2b3221;
      }

      .cls-65 {
        fill: #2c3321;
      }

      .cls-66 {
        fill: #2d3422;
      }

      .cls-67 {
        fill: #2e3523;
      }

      .cls-68 {
        fill: #2e3623;
      }

      .cls-69 {
        fill: #2f3724;
      }

      .cls-70 {
        fill: #303825;
      }

      .cls-71 {
        fill: #313925;
      }

      .cls-72 {
        fill: #323a26;
      }

      .cls-73 {
        fill: #333b27;
      }

      .cls-74 {
        fill: #343c27;
      }

      .cls-75 {
        fill: #353d28;
      }

      .cls-76 {
        fill: #353e29;
      }

      .cls-77 {
        fill: #363f29;
      }

      .cls-78 {
        fill: #37402a;
      }

      .cls-79 {
        fill: #38412b;
      }

      .cls-80 {
        fill: #39422b;
      }

      .cls-81 {
        fill: #3a432c;
      }

      .cls-82 {
        fill: #3b442d;
      }

      .cls-83 {
        fill: #3c452d;
      }

      .cls-84 {
        fill: #3c462e;
      }

      .cls-85 {
        fill: #3d472f;
      }

      .cls-86 {
        fill: #3e482f;
      }

      .cls-87 {
        fill: #3f4930;
      }

      .cls-88 {
        fill: #404a31;
      }

      .cls-89 {
        fill: #414b31;
      }

      .cls-90 {
        fill: #424c32;
      }

      .cls-91 {
        fill: #434d33;
      }

      .cls-92 {
        fill: #434e33;
      }

      .cls-93 {
        fill: #444f34;
      }

      .cls-94 {
        fill: #455035;
      }

      .cls-95 {
        fill: #465135;
      }

      .cls-96 {
        fill: #475236;
      }

      .cls-97 {
        fill: #475336;
      }

      .cls-98 {
        fill: #485436;
      }

      .cls-99 {
        fill: #485536;
      }

      .cls-100 {
        fill: #485636;
      }

      .cls-101 {
        fill: #495736;
      }

      .cls-102 {
        fill: #495836;
      }

      .cls-103 {
        fill: #495937;
      }

      .cls-104 {
        fill: #4a5a37;
      }

      .cls-105 {
        fill: #4a5b37;
      }

      .cls-106 {
        fill: #4a5c37;
      }

      .cls-107 {
        fill: #4b5d37;
      }

      .cls-108 {
        fill: #4b5e37;
      }

      .cls-109 {
        fill: #4b5f37;
      }

      .cls-110 {
        fill: #4c6037;
      }

      .cls-111 {
        fill: #4c6137;
      }

      .cls-112 {
        fill: #4c6237;
      }

      .cls-113 {
        fill: #4d6337;
      }

      .cls-114 {
        fill: #4d6437;
      }

      .cls-115 {
        fill: #4d6538;
      }

      .cls-116 {
        fill: #4e6638;
      }

      .cls-117 {
        fill: #4e6738;
      }

      .cls-118 {
        fill: #4e6838;
      }

      .cls-119 {
        fill: #4f6938;
      }

      .cls-120 {
        fill: #4f6a38;
      }

      .cls-121 {
        fill: #4f6b38;
      }

      .cls-122 {
        fill: #506c38;
      }

      .cls-123 {
        fill: #506d38;
      }

      .cls-124 {
        fill: #506e38;
      }

      .cls-125 {
        fill: #516f38;
      }

      .cls-126 {
        fill: #517038;
      }

      .cls-127 {
        fill: #527239;
      }

      .cls-128 {
        fill: #527339;
      }

      .cls-129 {
        fill: #527439;
      }

      .cls-130 {
        fill: #537539;
      }

      .cls-131 {
        fill: #537639;
      }

      .cls-132 {
        fill: #537739;
      }

      .cls-133 {
        fill: #547839;
      }

      .cls-134 {
        fill: #547939;
      }

      .cls-135 {
        fill: #547a39;
      }

      .cls-136 {
        fill: #557b39;
      }

      .cls-137 {
        fill: #557c39;
      }

      .cls-138 {
        fill: #557d39;
      }

      .cls-139 {
        fill: #567e39;
      }

      .cls-140 {
        fill: #567f3a;
      }

      .cls-141 {
        fill: #56803a;
      }

      .cls-142 {
        fill: #57813a;
      }

      .cls-143 {
        fill: #57823a;
      }

      .cls-144 {
        fill: #57833a;
      }

      .cls-145 {
        fill: #58843a;
      }

      .cls-146 {
        fill: #58853a;
      }

      .cls-147 {
        fill: #58863a;
      }

      .cls-148 {
        fill: #59873a;
      }

      .cls-149 {
        fill: #59883a;
      }

      .cls-150 {
        fill: #59893a;
      }

      .cls-151 {
        fill: #5a8a3a;
      }

      .cls-152 {
        fill: #5a8b3b;
      }

      .cls-153 {
        fill: #5a8c3b;
      }

      .cls-154 {
        fill: #5b8d3b;
      }

      .cls-155 {
        fill: #5b8e3b;
      }

      .cls-156 {
        fill: #5b8f3b;
      }

      .cls-157 {
        fill: #5c903b;
      }

      .cls-158 {
        fill: #5c913b;
      }

      .cls-159 {
        clip-path: url(#clip-path-2);
      }

      .cls-160 {
        fill: #030402;
      }

      .cls-161 {
        fill: #050603;
      }

      .cls-162 {
        fill: #060704;
      }

      .cls-163 {
        fill: #070804;
      }

      .cls-164 {
        fill: #080905;
      }

      .cls-165 {
        fill: #090a05;
      }

      .cls-166 {
        fill: #090b06;
      }

      .cls-167 {
        fill: #0a0c06;
      }

      .cls-168 {
        fill: #0b0d07;
      }

      .cls-169 {
        fill: #0c0e07;
      }

      .cls-170 {
        fill: #0d0f08;
      }

      .cls-171 {
        fill: #0e1009;
      }

      .cls-172 {
        fill: #0f1109;
      }

      .cls-173 {
        fill: #0f120a;
      }

      .cls-174 {
        fill: #10130a;
      }

      .cls-175 {
        fill: #11140b;
      }

      .cls-176 {
        fill: #12150b;
      }

      .cls-177 {
        fill: #13160c;
      }

      .cls-178 {
        fill: #14170c;
      }

      .cls-179 {
        fill: #15180d;
      }

      .cls-180 {
        fill: #16190d;
      }

      .cls-181 {
        fill: #161a0e;
      }

      .cls-182 {
        fill: #171b0e;
      }

      .cls-183 {
        fill: #181c0f;
      }

      .cls-184 {
        fill: #191d10;
      }

      .cls-185 {
        fill: #1a1e10;
      }

      .cls-186 {
        fill: #1b1f11;
      }

      .cls-187 {
        fill: #1c2011;
      }

      .cls-188 {
        fill: #1c2112;
      }

      .cls-189 {
        fill: #1d2212;
      }

      .cls-190 {
        fill: #1e2313;
      }

      .cls-191 {
        fill: #1f2413;
      }

      .cls-192 {
        fill: #202514;
      }

      .cls-193 {
        fill: #212614;
      }

      .cls-194 {
        fill: #222715;
      }

      .cls-195 {
        fill: #222815;
      }

      .cls-196 {
        fill: #232916;
      }

      .cls-197 {
        fill: #242a16;
      }

      .cls-198 {
        fill: #252c17;
      }

      .cls-199 {
        fill: #262d18;
      }

      .cls-200 {
        fill: #272e18;
      }

      .cls-201 {
        fill: #282f19;
      }

      .cls-202 {
        fill: #283019;
      }

      .cls-203 {
        fill: #29311a;
      }

      .cls-204 {
        fill: #2a321a;
      }

      .cls-205 {
        fill: #2b331b;
      }

      .cls-206 {
        fill: #2c341b;
      }

      .cls-207 {
        fill: #2d351c;
      }

      .cls-208 {
        fill: #2e361c;
      }

      .cls-209 {
        fill: #2e371d;
      }

      .cls-210 {
        fill: #2f381d;
      }

      .cls-211 {
        fill: #30391e;
      }

      .cls-212 {
        fill: #313a1e;
      }

      .cls-213 {
        fill: #323b1f;
      }

      .cls-214 {
        fill: #333c20;
      }

      .cls-215 {
        fill: #343d20;
      }

      .cls-216 {
        fill: #343e21;
      }

      .cls-217 {
        fill: #353f21;
      }

      .cls-218 {
        fill: #364022;
      }

      .cls-219 {
        fill: #374122;
      }

      .cls-220 {
        fill: #384223;
      }

      .cls-221 {
        fill: #394323;
      }

      .cls-222 {
        fill: #3a4424;
      }

      .cls-223 {
        fill: #3b4524;
      }

      .cls-224 {
        fill: #3b4625;
      }

      .cls-225 {
        fill: #3c4725;
      }

      .cls-226 {
        fill: #3d4826;
      }

      .cls-227 {
        fill: #3e4927;
      }

      .cls-228 {
        fill: #3f4a27;
      }

      .cls-229 {
        fill: #404b28;
      }

      .cls-230 {
        fill: #414c28;
      }

      .cls-231 {
        fill: #414d29;
      }

      .cls-232 {
        fill: #424e29;
      }

      .cls-233 {
        fill: #434f2a;
      }

      .cls-234 {
        fill: #44502a;
      }

      .cls-235 {
        fill: #45512b;
      }

      .cls-236 {
        fill: #46522b;
      }

      .cls-237 {
        fill: #47532c;
      }

      .cls-238 {
        fill: #47542c;
      }

      .cls-239 {
        fill: #48552d;
      }

      .cls-240 {
        fill: #49562d;
      }

      .cls-241 {
        fill: #4a572e;
      }

      .cls-242 {
        fill: #4b582f;
      }

      .cls-243 {
        fill: #4b592f;
      }

      .cls-244 {
        fill: #4c5a30;
      }

      .cls-245 {
        fill: #4d5b30;
      }

      .cls-246 {
        fill: #4d5c31;
      }

      .cls-247 {
        fill: #4e5d31;
      }

      .cls-248 {
        fill: #4f5e32;
      }

      .cls-249 {
        fill: #505f32;
      }

      .cls-250 {
        fill: #506033;
      }

      .cls-251 {
        fill: #516134;
      }

      .cls-252 {
        fill: #526234;
      }

      .cls-253 {
        fill: #526335;
      }

      .cls-254 {
        fill: #536435;
      }

      .cls-255 {
        fill: #546536;
      }

      .cls-256 {
        fill: #546636;
      }

      .cls-257 {
        fill: #556737;
      }

      .cls-258 {
        fill: #566837;
      }

      .cls-259 {
        fill: #566938;
      }

      .cls-260 {
        fill: #576a39;
      }

      .cls-261 {
        fill: #586b39;
      }

      .cls-262 {
        fill: #586c3a;
      }

      .cls-263 {
        fill: #596d3a;
      }

      .cls-264 {
        fill: #5a6f3b;
      }

      .cls-265 {
        fill: #5b703b;
      }

      .cls-266 {
        fill: #5b713c;
      }

      .cls-267 {
        fill: #5c723c;
      }

      .cls-268 {
        fill: #5d733d;
      }

      .cls-269 {
        fill: #5d743e;
      }

      .cls-270 {
        fill: #5e753e;
      }

      .cls-271 {
        fill: #5f763f;
      }

      .cls-272 {
        fill: #5f773f;
      }

      .cls-273 {
        fill: #607840;
      }

      .cls-274 {
        fill: #617940;
      }

      .cls-275 {
        fill: #617a41;
      }

      .cls-276 {
        fill: #627b41;
      }

      .cls-277 {
        fill: #637c42;
      }

      .cls-278 {
        fill: #637d43;
      }

      .cls-279 {
        fill: #647e43;
      }

      .cls-280 {
        fill: #657f44;
      }

      .cls-281 {
        fill: #668044;
      }

      .cls-282 {
        fill: #668145;
      }

      .cls-283 {
        fill: #678245;
      }

      .cls-284 {
        fill: #688346;
      }

      .cls-285 {
        fill: #688446;
      }

      .cls-286 {
        fill: #698547;
      }
    </style>
    <radialGradient id="radial-gradient" cx="-909.823" cy="-404.614" r="37.385" gradientTransform="matrix(0.233, -0.328, 0.342, 0.242, 365.412, -172.868)" gradientUnits="userSpaceOnUse">
      <stop offset="0" stop-color="#6c6c6c"/>
      <stop offset="0.349" stop-color="#b9b9b9"/>
      <stop offset="0.636" stop-color="#d1d1d1"/>
      <stop offset="0.842" stop-color="#fff"/>
    </radialGradient>
    <radialGradient id="radial-gradient-2" cx="599.659" cy="24.172" r="11.877" gradientTransform="matrix(-1, 0, 0, 1, 617.293, 0)" gradientUnits="userSpaceOnUse">
      <stop offset="0" stop-color="#5eb81c"/>
      <stop offset="0.914" stop-color="#456e00"/>
    </radialGradient>
    <radialGradient id="radial-gradient-3" cx="594.158" cy="23.809" r="8.149" gradientTransform="matrix(-1, 0, 0, 1, 617.293, 0)" gradientUnits="userSpaceOnUse">
      <stop offset="0" stop-color="#1c6e00"/>
      <stop offset="0.914" stop-color="#416e00"/>
    </radialGradient>
    <radialGradient id="radial-gradient-4" cx="598.035" cy="16.957" r="10.921" gradientTransform="matrix(-1, 0, 0, 1, 617.293, 0)" gradientUnits="userSpaceOnUse">
      <stop offset="0" stop-color="#1c6100"/>
      <stop offset="0.914" stop-color="#477a00"/>
    </radialGradient>
    <linearGradient id="linear-gradient" x1="601.095" y1="19.383" x2="607.309" y2="17.213" gradientTransform="matrix(-1, 0, 0, 1, 617.293, 0)" gradientUnits="userSpaceOnUse">
      <stop offset="0"/>
      <stop offset="0.761" stop-color="#9eba73"/>
      <stop offset="0.914" stop-color="#9eba73"/>
    </linearGradient>
    <radialGradient id="radial-gradient-5" cx="596.487" cy="13.324" r="9.524" gradientTransform="matrix(-1, 0, 0, 1, 617.293, 0)" gradientUnits="userSpaceOnUse">
      <stop offset="0" stop-color="#305200"/>
      <stop offset="1" stop-color="#6ea11c"/>
    </radialGradient>
    <radialGradient id="radial-gradient-6" cx="637.073" cy="3.761" r="7.322" gradientTransform="matrix(-0.264, -0.965, -0.965, 0.264, 185.403, 622.182)" gradientUnits="userSpaceOnUse">
      <stop offset="0" stop-color="#5c913b"/>
      <stop offset="0.426" stop-color="#475236"/>
      <stop offset="1"/>
    </radialGradient>
    <radialGradient id="radial-gradient-7" cx="603.524" cy="10.741" r="4.066" gradientTransform="matrix(-1, 0, 0, 1, 617.293, 0)" gradientUnits="userSpaceOnUse">
      <stop offset="0" stop-color="#99d440"/>
      <stop offset="0.426" stop-color="#548038"/>
      <stop offset="1"/>
    </radialGradient>
    <clipPath id="clip-path">
      <path class="cls-1" d="M8.712,17a8.288,8.288,0,0,0-1.83,3.343,11.83,11.83,0,0,0-.425,3.805,10.745,10.745,0,0,0,.887,3.732A7.517,7.517,0,0,0,9.73,30.876L10,30.543a22.754,22.754,0,0,1,.529-4.017,11.354,11.354,0,0,0,.218-2.618,11.187,11.187,0,0,0-.514-2.672c-.286-1.022-.753-2.079-1.185-3.967Z"/>
    </clipPath>
    <clipPath id="clip-path-2">
      <path class="cls-1" d="M23.168,3.29a8.34,8.34,0,0,1,1.768,4.079c.129,1.006.162,1.863.28,2.821l.316,3.042a12.268,12.268,0,0,1,.055,1.807,5.406,5.406,0,0,1-.731,2.418l.112.415A5.026,5.026,0,0,0,27.2,16.708a6.745,6.745,0,0,0,1.463-2.051,9.679,9.679,0,0,0,.832-4.895,8.587,8.587,0,0,0-1.9-4.6,6.792,6.792,0,0,0-1.956-1.584,7.435,7.435,0,0,0-2.375-.715Z"/>
    </clipPath>
  </defs>
  <title>pin-2</title>
  <g class="cls-2">
    <g id="Шар_2" data-name="Шар 2">
      <g id="Paper_clips" data-name="Paper clips">
        <g>
          <path class="cls-3" d="M24.156,15.506c7.057,5,8.891,14.545,4.09,21.327S13.822,45.068,6.762,40.07-2.125,25.521,2.683,18.731C7.476,11.964,17.094,10.513,24.156,15.506Z"/>
          <g>
            <path class="cls-4" d="M5.464,22.909a11.88,11.88,0,0,0,9.255,14.015,11.875,11.875,0,0,0,14.408-8.619,11.879,11.879,0,0,0-9.252-14.018A11.881,11.881,0,0,0,5.464,22.909Z"/>
            <path class="cls-5" d="M5.8,21.475a11.882,11.882,0,0,0,9.252,14.014,11.881,11.881,0,0,0,14.414-8.62,11.886,11.886,0,0,0-9.252-14.015A11.885,11.885,0,0,0,5.8,21.475Z"/>
            <path class="cls-6" d="M24.924,24.782a7.8,7.8,0,0,1-9.4,3.008A31.8,31.8,0,0,0,27.6,30.967a11.321,11.321,0,0,0,2.051-8.013,16.716,16.716,0,0,0-3.582-2.479Z"/>
            <path class="cls-7" d="M11.461,19.467a7.316,7.316,0,1,0,14.267,3.25c.449-1.965.748-5.659-.229-7.246a7.631,7.631,0,0,0-4.691-3.411c-2.163-.492-4.068-.863-5.727.369C13.722,13.443,11.869,17.674,11.461,19.467Z"/>
            <path class="cls-8" d="M11.9,18.02l3.251-7.647,4.569,2.373L15.523,27.79S9.375,25.039,11.9,18.02Z"/>
            <path class="cls-9" d="M12.421,10.518A8.6,8.6,0,1,0,22.729,3.983,8.631,8.631,0,0,0,12.421,10.518Z"/>
            <path class="cls-10" d="M12.808,8.822a8.6,8.6,0,1,0,10.31-6.537A8.628,8.628,0,0,0,12.808,8.822Z"/>
            <path class="cls-11" d="M19.941,3.086a7.293,7.293,0,1,0,7.651,6.975A7.316,7.316,0,0,0,19.941,3.086Z"/>
            <path class="cls-12" d="M20.255,35.592a15.564,15.564,0,0,1-2.424.213,14.4,14.4,0,0,1-2.431-.243,12.581,12.581,0,0,1-4.552-1.79A12.1,12.1,0,0,1,7.48,30.226a14.3,14.3,0,0,1-1.118-2.173,17.982,17.982,0,0,1-.707-2.329l.025-.006a15.8,15.8,0,0,0,1.944,4.414,11.876,11.876,0,0,0,3.363,3.432,13.684,13.684,0,0,0,9.265,2Z"/>
            <path class="cls-12" d="M12.972,13.258a9.786,9.786,0,0,0,1.346,2.675,7.985,7.985,0,0,0,2.165,2.057,8.879,8.879,0,0,0,5.746,1.318l0,.025a8,8,0,0,1-3.033-.006A8.252,8.252,0,0,1,16.347,18.2a7.818,7.818,0,0,1-2.186-2.152,8.523,8.523,0,0,1-1.212-2.781Z"/>
            <path class="cls-13" d="M15.566,6.468a4.327,4.327,0,0,0-1.459,1.949,6.141,6.141,0,0,0-.427,2.426,6.238,6.238,0,0,0,.649,2.373,4.1,4.1,0,0,0,1.664,1.8l.174-.271a8.5,8.5,0,0,1,.481-2.65,4.148,4.148,0,0,0,.254-1.4,4.015,4.015,0,0,0-.377-1.364A8.987,8.987,0,0,1,15.789,6.7Z"/>
            <g class="cls-14">
              <g class="cls-15">
                <rect x="6.401" y="17.003" width="4.39" height="13.873"/>
                <path d="M10.928,23.933c-.352-4.812-2.321-8.588-4.4-8.437s-3.474,4.176-3.122,8.988,2.321,8.587,4.4,8.436S11.28,28.744,10.928,23.933Z"/>
                <path class="cls-16" d="M10.9,23.935c-.35-4.778-2.3-8.529-4.367-8.377s-3.451,4.146-3.1,8.924,2.3,8.528,4.367,8.377S11.251,28.712,10.9,23.935Z"/>
                <path class="cls-17" d="M10.875,23.937c-.347-4.744-2.288-8.468-4.336-8.319S3.113,19.735,3.46,24.48,5.749,32.947,7.8,32.8,11.223,28.681,10.875,23.937Z"/>
                <path class="cls-18" d="M10.849,23.939c-.345-4.71-2.272-8.409-4.305-8.259s-3.4,4.088-3.057,8.8,2.272,8.408,4.305,8.258S11.194,28.649,10.849,23.939Z"/>
                <path class="cls-19" d="M10.823,23.941c-.343-4.677-2.256-8.348-4.275-8.2S3.171,19.8,3.513,24.476s2.256,8.347,4.275,8.2S11.165,28.617,10.823,23.941Z"/>
                <path class="cls-20" d="M10.8,23.943c-.34-4.643-2.239-8.289-4.243-8.141S3.2,19.831,3.54,24.474s2.239,8.288,4.243,8.14S11.136,28.585,10.8,23.943Z"/>
                <path class="cls-21" d="M10.77,23.944c-.337-4.609-2.224-8.227-4.213-8.082s-3.329,4-2.991,8.61S5.79,32.7,7.779,32.554,11.107,28.554,10.77,23.944Z"/>
                <path class="cls-22" d="M10.744,23.946c-.335-4.575-2.207-8.167-4.183-8.022S3.257,19.9,3.592,24.47,5.8,32.637,7.774,32.492,11.079,28.522,10.744,23.946Z"/>
                <path class="cls-23" d="M10.717,23.948c-.332-4.542-2.191-8.107-4.151-7.963s-3.28,3.941-2.947,8.483S5.81,32.575,7.77,32.432,11.05,28.49,10.717,23.948Z"/>
                <path class="cls-24" d="M10.691,23.95c-.33-4.507-2.175-8.047-4.121-7.9s-3.255,3.913-2.925,8.421,2.175,8.047,4.121,7.905S11.021,28.458,10.691,23.95Z"/>
                <path class="cls-25" d="M10.665,23.952c-.328-4.474-2.159-7.987-4.09-7.845s-3.231,3.882-2.9,8.357,2.159,7.987,4.09,7.846S10.992,28.427,10.665,23.952Z"/>
                <path class="cls-26" d="M10.638,23.954c-.325-4.44-2.142-7.927-4.058-7.787S3.373,20.022,3.7,24.462s2.142,7.927,4.058,7.787S10.963,28.4,10.638,23.954Z"/>
                <path class="cls-27" d="M10.612,23.956c-.322-4.407-2.126-7.867-4.028-7.727S3.4,20.053,3.724,24.46s2.126,7.867,4.028,7.728S10.935,28.363,10.612,23.956Z"/>
                <path class="cls-28" d="M10.586,23.958c-.32-4.373-2.11-7.807-4-7.669s-3.158,3.8-2.838,8.169,2.11,7.807,4,7.669S10.906,28.331,10.586,23.958Z"/>
                <path class="cls-29" d="M10.56,23.96c-.318-4.34-2.094-7.747-3.967-7.609s-3.134,3.765-2.817,8.105S5.87,32.2,7.743,32.066,10.877,28.3,10.56,23.96Z"/>
                <path class="cls-30" d="M10.533,23.962c-.315-4.307-2.077-7.686-3.936-7.551S3.488,20.149,3.8,24.454s2.077,7.687,3.936,7.551S10.848,28.268,10.533,23.962Z"/>
                <path class="cls-31" d="M10.507,23.964c-.313-4.272-2.061-7.626-3.9-7.491S3.517,20.18,3.829,24.452s2.061,7.626,3.905,7.491S10.819,28.236,10.507,23.964Z"/>
                <path class="cls-32" d="M10.48,23.966c-.31-4.239-2.044-7.566-3.874-7.433S3.545,20.212,3.855,24.45,5.9,32.017,7.729,31.883,10.79,28.2,10.48,23.966Z"/>
                <path class="cls-33" d="M10.454,23.968c-.308-4.2-2.028-7.506-3.843-7.373s-3.037,3.648-2.729,7.853,2.028,7.506,3.843,7.373S10.762,28.173,10.454,23.968Z"/>
                <path class="cls-34" d="M10.428,23.97c-.305-4.172-2.013-7.446-3.813-7.315S3.6,20.276,3.908,24.446s2.012,7.447,3.813,7.315S10.733,28.141,10.428,23.97Z"/>
                <path class="cls-35" d="M10.4,23.972c-.3-4.138-2-7.386-3.781-7.255s-2.988,3.591-2.685,7.727,2,7.386,3.781,7.255S10.7,28.109,10.4,23.972Z"/>
                <path class="cls-36" d="M10.375,23.974c-.3-4.105-1.98-7.326-3.751-7.2s-2.963,3.562-2.663,7.666,1.979,7.326,3.751,7.2S10.675,28.077,10.375,23.974Z"/>
                <path class="cls-37" d="M10.349,23.976c-.3-4.071-1.964-7.266-3.721-7.138s-2.939,3.533-2.641,7.6,1.964,7.265,3.72,7.137S10.646,28.045,10.349,23.976Z"/>
                <path class="cls-38" d="M10.322,23.978c-.295-4.037-1.947-7.206-3.689-7.078s-2.915,3.5-2.619,7.539S5.961,31.645,7.7,31.517,10.618,28.014,10.322,23.978Z"/>
                <path class="cls-39" d="M10.3,23.98c-.293-4-1.931-7.146-3.658-7.02s-2.891,3.475-2.6,7.477S5.971,31.582,7.7,31.456,10.589,27.982,10.3,23.98Z"/>
                <path class="cls-40" d="M10.27,23.982c-.291-3.97-1.915-7.086-3.628-6.96s-2.867,3.444-2.576,7.413,1.915,7.086,3.628,6.96S10.561,27.95,10.27,23.982Z"/>
                <path class="cls-41" d="M10.244,23.983c-.288-3.935-1.9-7.025-3.6-6.9S3.8,20.5,4.092,24.434s1.9,7.024,3.6,6.9S10.532,27.918,10.244,23.983Z"/>
                <path class="cls-42" d="M10.217,23.985c-.285-3.9-1.882-6.964-3.566-6.841s-2.818,3.385-2.532,7.288S6,31.4,7.685,31.273,10.5,27.887,10.217,23.985Z"/>
                <path class="cls-43" d="M10.191,23.986c-.283-3.867-1.866-6.9-3.536-6.782s-2.793,3.358-2.51,7.226,1.866,6.9,3.536,6.782S10.474,27.855,10.191,23.986Z"/>
                <path class="cls-44" d="M10.165,23.988c-.281-3.834-1.85-6.843-3.5-6.722s-2.769,3.327-2.489,7.162,1.85,6.844,3.505,6.723S10.445,27.823,10.165,23.988Z"/>
                <path class="cls-45" d="M10.138,23.99c-.278-3.8-1.833-6.784-3.474-6.664s-2.745,3.3-2.466,7.1S6.031,31.21,7.672,31.09,10.416,27.791,10.138,23.99Z"/>
                <path class="cls-46" d="M10.112,23.992c-.276-3.766-1.818-6.723-3.443-6.6s-2.721,3.268-2.445,7.036,1.817,6.724,3.443,6.6S10.388,27.76,10.112,23.992Z"/>
                <path class="cls-47" d="M10.085,23.994c-.273-3.733-1.8-6.664-3.412-6.546s-2.7,3.241-2.423,6.974,1.8,6.664,3.413,6.546S10.359,27.728,10.085,23.994Z"/>
                <path class="cls-48" d="M10.059,24c-.27-3.7-1.785-6.6-3.381-6.486s-2.672,3.21-2.4,6.91,1.784,6.6,3.381,6.486S10.33,27.7,10.059,24Z"/>
                <path class="cls-49" d="M10.033,24c-.268-3.666-1.769-6.544-3.351-6.428S4.035,20.752,4.3,24.418s1.769,6.544,3.351,6.428S10.3,27.664,10.033,24Z"/>
                <path class="cls-50" d="M10.006,24c-.265-3.632-1.752-6.483-3.32-6.369S4.063,20.783,4.33,24.416,6.081,30.9,7.649,30.785,10.272,27.633,10.006,24Z"/>
                <path class="cls-51" d="M9.98,24c-.263-3.6-1.736-6.423-3.289-6.309s-2.6,3.123-2.335,6.721,1.736,6.423,3.289,6.31S10.244,27.6,9.98,24Z"/>
                <path class="cls-52" d="M9.954,24c-.261-3.564-1.72-6.363-3.259-6.251s-2.574,3.094-2.313,6.659,1.72,6.364,3.259,6.251S10.215,27.569,9.954,24Z"/>
                <path class="cls-53" d="M9.928,24.006c-.259-3.531-1.7-6.3-3.228-6.191S4.15,20.879,4.408,24.41s1.7,6.3,3.228,6.192S10.186,27.537,9.928,24.006Z"/>
                <path class="cls-54" d="M9.9,24.008c-.256-3.5-1.687-6.243-3.2-6.133s-2.526,3.035-2.27,6.533,1.687,6.243,3.2,6.133S10.157,27.506,9.9,24.008Z"/>
                <path class="cls-55" d="M9.875,24.01c-.253-3.464-1.671-6.183-3.166-6.073s-2.5,3.006-2.248,6.469,1.671,6.183,3.166,6.074S10.128,27.474,9.875,24.01Z"/>
                <path class="cls-56" d="M9.849,24.012C9.6,20.582,8.194,17.889,6.713,18S4.236,20.975,4.487,24.4s1.655,6.123,3.136,6.015S10.1,27.442,9.849,24.012Z"/>
                <path class="cls-57" d="M9.822,24.014c-.248-3.4-1.638-6.063-3.1-5.955s-2.453,2.947-2.2,6.343,1.638,6.063,3.1,5.956S10.071,27.41,9.822,24.014Z"/>
                <path class="cls-58" d="M9.8,24.016c-.246-3.363-1.622-6-3.074-5.9S4.294,21.038,4.54,24.4s1.622,6,3.074,5.9S10.042,27.378,9.8,24.016Z"/>
                <path class="cls-59" d="M9.769,24.018c-.243-3.329-1.605-5.943-3.042-5.837s-2.4,2.888-2.161,6.218,1.606,5.942,3.043,5.836S10.013,27.347,9.769,24.018Z"/>
                <path class="cls-60" d="M9.743,24.02c-.241-3.295-1.59-5.882-3.012-5.779S4.352,21.1,4.593,24.4s1.59,5.881,3.011,5.778S9.984,27.315,9.743,24.02Z"/>
                <path class="cls-61" d="M9.717,24.022C9.478,20.76,8.144,18.2,6.736,18.3S4.38,21.133,4.619,24.4,6.192,30.217,7.6,30.113,9.956,27.283,9.717,24.022Z"/>
                <path class="cls-62" d="M9.69,24.024c-.236-3.228-1.557-5.762-2.95-5.661s-2.331,2.8-2.1,6.03S6.2,30.154,7.6,30.053,9.927,27.251,9.69,24.024Z"/>
                <path class="cls-63" d="M9.664,24.026c-.233-3.195-1.541-5.7-2.919-5.6S4.438,21.2,4.672,24.391s1.54,5.7,2.919,5.6S9.9,27.22,9.664,24.026Z"/>
                <path class="cls-64" d="M9.638,24.027c-.231-3.161-1.525-5.641-2.889-5.542s-2.282,2.744-2.051,5.9,1.525,5.641,2.889,5.542S9.869,27.188,9.638,24.027Z"/>
                <path class="cls-65" d="M9.612,24.029C9.383,20.9,8.1,18.447,6.753,18.546S4.5,21.26,4.724,24.387s1.509,5.582,2.858,5.483S9.84,27.156,9.612,24.029Z"/>
                <path class="cls-66" d="M9.585,24.031c-.226-3.093-1.492-5.521-2.827-5.423S4.524,21.292,4.75,24.385s1.493,5.521,2.828,5.424S9.811,27.124,9.585,24.031Z"/>
                <path class="cls-67" d="M9.559,24.033c-.224-3.059-1.476-5.462-2.8-5.365s-2.21,2.655-1.986,5.715,1.476,5.462,2.8,5.365S9.783,27.093,9.559,24.033Z"/>
                <path class="cls-68" d="M9.533,24.035c-.222-3.026-1.46-5.4-2.766-5.3S4.582,21.356,4.8,24.381s1.46,5.4,2.766,5.306S9.754,27.061,9.533,24.035Z"/>
                <path class="cls-69" d="M9.506,24.037C9.287,21.045,8.063,18.7,6.771,18.79s-2.16,2.6-1.941,5.589,1.443,5.342,2.734,5.247S9.725,27.029,9.506,24.037Z"/>
                <path class="cls-70" d="M9.48,24.039c-.216-2.959-1.427-5.281-2.7-5.187s-2.136,2.567-1.92,5.525,1.427,5.281,2.7,5.188S9.7,27,9.48,24.039Z"/>
                <path class="cls-71" d="M9.454,24.041C9.24,21.116,8.042,18.82,6.78,18.912s-2.112,2.538-1.9,5.463S6.293,29.6,7.556,29.5,9.667,26.966,9.454,24.041Z"/>
                <path class="cls-72" d="M9.427,24.043c-.211-2.892-1.394-5.161-2.642-5.069s-2.088,2.509-1.876,5.4,1.394,5.161,2.642,5.07S9.639,26.934,9.427,24.043Z"/>
                <path class="cls-73" d="M9.4,24.045c-.209-2.857-1.379-5.1-2.612-5.011s-2.063,2.48-1.854,5.337,1.378,5.1,2.612,5.011S9.61,26.9,9.4,24.045Z"/>
                <path class="cls-74" d="M9.374,24.047c-.206-2.824-1.361-5.041-2.58-4.951s-2.04,2.45-1.833,5.273S6.323,29.41,7.542,29.32,9.581,26.87,9.374,24.047Z"/>
                <path class="cls-75" d="M9.348,24.049c-.2-2.79-1.346-4.981-2.55-4.893s-2.015,2.421-1.81,5.211,1.345,4.981,2.55,4.893S9.553,26.839,9.348,24.049Z"/>
                <path class="cls-76" d="M9.322,24.051c-.2-2.757-1.33-4.921-2.519-4.833S4.812,21.61,5.014,24.365s1.33,4.921,2.519,4.833S9.524,26.807,9.322,24.051Z"/>
                <path class="cls-77" d="M9.3,24.053c-.2-2.723-1.314-4.86-2.489-4.775S4.841,21.642,5.04,24.363s1.313,4.861,2.489,4.775S9.495,26.775,9.3,24.053Z"/>
                <path class="cls-78" d="M9.269,24.055c-.2-2.69-1.3-4.8-2.458-4.716S4.87,21.673,5.066,24.361s1.3,4.8,2.458,4.716S9.466,26.743,9.269,24.055Z"/>
                <path class="cls-79" d="M9.243,24.056C9.049,21.4,7.962,19.317,6.816,19.4S4.9,21.705,5.093,24.36,6.374,29.1,7.52,29.016,9.437,26.711,9.243,24.056Z"/>
                <path class="cls-80" d="M9.217,24.058c-.192-2.621-1.265-4.679-2.4-4.6s-1.893,2.275-1.7,4.9,1.265,4.678,2.4,4.6S9.409,26.68,9.217,24.058Z"/>
                <path class="cls-81" d="M9.19,24.06C9,21.472,7.942,19.441,6.825,19.523s-1.869,2.246-1.68,4.834,1.249,4.619,2.366,4.537S9.38,26.648,9.19,24.06Z"/>
                <path class="cls-82" d="M9.164,24.062C8.977,21.508,7.932,19.5,6.83,19.583S4.985,21.8,5.172,24.355,6.4,28.913,7.506,28.833,9.351,26.616,9.164,24.062Z"/>
                <path class="cls-83" d="M9.138,24.064c-.185-2.521-1.216-4.5-2.3-4.419S5.014,21.832,5.2,24.353s1.216,4.5,2.3,4.419S9.322,26.584,9.138,24.064Z"/>
                <path class="cls-84" d="M9.111,24.066c-.182-2.487-1.2-4.439-2.273-4.361s-1.8,2.158-1.613,4.646,1.2,4.438,2.273,4.36S9.293,26.553,9.111,24.066Z"/>
                <path class="cls-85" d="M9.085,24.068c-.18-2.454-1.183-4.379-2.242-4.3S5.071,21.9,5.251,24.349s1.183,4.379,2.242,4.3S9.265,26.521,9.085,24.068Z"/>
                <path class="cls-86" d="M9.059,24.069c-.177-2.418-1.167-4.318-2.212-4.242s-1.747,2.1-1.57,4.52,1.167,4.318,2.212,4.242S9.236,26.489,9.059,24.069Z"/>
                <path class="cls-87" d="M9.032,24.071c-.174-2.385-1.151-4.258-2.18-4.182S5.129,21.959,5.3,24.345s1.151,4.259,2.18,4.182S9.207,26.457,9.032,24.071Z"/>
                <path class="cls-88" d="M9.006,24.073c-.172-2.351-1.134-4.2-2.15-4.124s-1.7,2.041-1.526,4.394,1.134,4.2,2.149,4.124S9.178,26.426,9.006,24.073Z"/>
                <path class="cls-89" d="M8.98,24.075c-.17-2.318-1.119-4.137-2.119-4.064s-1.675,2.012-1.5,4.33,1.119,4.138,2.119,4.064S9.149,26.394,8.98,24.075Z"/>
                <path class="cls-90" d="M8.954,24.077c-.168-2.284-1.1-4.078-2.089-4.006s-1.65,1.983-1.483,4.268,1.1,4.078,2.089,4.006S9.121,26.362,8.954,24.077Z"/>
                <path class="cls-91" d="M8.927,24.079c-.165-2.251-1.086-4.017-2.057-3.947s-1.626,1.954-1.461,4.2S6.5,28.355,7.466,28.284,9.092,26.33,8.927,24.079Z"/>
                <path class="cls-92" d="M8.9,24.081c-.163-2.217-1.07-3.958-2.027-3.888s-1.6,1.924-1.439,4.142,1.07,3.958,2.027,3.888S9.063,26.3,8.9,24.081Z"/>
                <path class="cls-93" d="M8.874,24.083c-.159-2.183-1.053-3.9-2-3.829S5.3,22.15,5.461,24.333s1.054,3.9,2,3.829S9.034,26.267,8.874,24.083Z"/>
                <path class="cls-94" d="M8.848,24.085c-.157-2.149-1.037-3.838-1.965-3.769s-1.552,1.865-1.395,4.015,1.037,3.838,1.965,3.77S9.005,26.235,8.848,24.085Z"/>
                <path class="cls-95" d="M8.822,24.087C8.667,21.971,7.8,20.31,6.888,20.376s-1.529,1.837-1.374,3.953,1.021,3.778,1.934,3.711S8.977,26.2,8.822,24.087Z"/>
                <path class="cls-96" d="M8.8,24.089c-.152-2.082-1-3.718-1.9-3.651s-1.5,1.806-1.352,3.889,1,3.718,1.9,3.652S8.948,26.172,8.8,24.089Z"/>
                <path class="cls-96" d="M8.769,24.091c-.15-2.049-.988-3.657-1.873-3.593s-1.479,1.778-1.329,3.827.988,3.658,1.872,3.593S8.919,26.14,8.769,24.091Z"/>
                <path class="cls-97" d="M8.744,24.093c-.148-2.017-.973-3.6-1.843-3.535s-1.456,1.749-1.309,3.765.973,3.6,1.843,3.536S8.891,26.11,8.744,24.093Z"/>
                <path class="cls-98" d="M8.718,24.1c-.145-1.985-.957-3.541-1.813-3.479s-1.432,1.722-1.287,3.705.957,3.541,1.813,3.479S8.863,26.078,8.718,24.1Z"/>
                <path class="cls-99" d="M8.693,24.1c-.143-1.951-.942-3.484-1.784-3.422S5.5,22.368,5.643,24.319s.941,3.484,1.784,3.422S8.836,26.048,8.693,24.1Z"/>
                <path class="cls-100" d="M8.667,24.1c-.14-1.919-.925-3.426-1.753-3.365S5.528,22.4,5.668,24.318s.926,3.425,1.754,3.365S8.808,26.017,8.667,24.1Z"/>
                <path class="cls-101" d="M8.642,24.1c-.138-1.887-.91-3.367-1.724-3.308S5.556,22.43,5.694,24.316s.91,3.367,1.724,3.307S8.78,25.986,8.642,24.1Z"/>
                <path class="cls-102" d="M8.617,24.1c-.136-1.854-.9-3.309-1.7-3.25s-1.339,1.608-1.2,3.463.895,3.308,1.695,3.25S8.752,25.956,8.617,24.1Z"/>
                <path class="cls-103" d="M8.591,24.1c-.133-1.822-.878-3.251-1.664-3.194s-1.316,1.581-1.182,3.4.878,3.251,1.664,3.193S8.725,25.925,8.591,24.1Z"/>
                <path class="cls-104" d="M8.566,24.106c-.131-1.788-.863-3.193-1.635-3.136S5.639,22.522,5.77,24.311s.863,3.192,1.635,3.135S8.7,25.9,8.566,24.106Z"/>
                <path class="cls-105" d="M8.54,24.108c-.128-1.756-.847-3.135-1.6-3.08S5.667,22.553,5.8,24.309s.848,3.134,1.606,3.079S8.669,25.863,8.54,24.108Z"/>
                <path class="cls-106" d="M8.515,24.11c-.126-1.724-.831-3.078-1.576-3.023s-1.244,1.5-1.118,3.22.831,3.077,1.575,3.022S8.641,25.833,8.515,24.11Z"/>
                <path class="cls-107" d="M8.49,24.111c-.124-1.691-.816-3.018-1.546-2.964s-1.221,1.466-1.1,3.158.816,3.018,1.546,2.965S8.613,25.8,8.49,24.111Z"/>
                <path class="cls-108" d="M8.464,24.113c-.121-1.659-.8-2.961-1.516-2.908s-1.2,1.44-1.076,3.1.8,2.961,1.516,2.908S8.585,25.772,8.464,24.113Z"/>
                <path class="cls-109" d="M8.439,24.115c-.119-1.626-.785-2.9-1.486-2.851S5.778,22.675,5.9,24.3s.785,2.9,1.486,2.851S8.558,25.741,8.439,24.115Z"/>
                <path class="cls-110" d="M8.413,24.117c-.116-1.593-.769-2.844-1.457-2.8S5.806,22.706,5.923,24.3s.768,2.845,1.456,2.8S8.53,25.71,8.413,24.117Z"/>
                <path class="cls-111" d="M8.388,24.119c-.115-1.561-.753-2.787-1.427-2.737S5.834,22.736,5.948,24.3s.753,2.787,1.427,2.737S8.5,25.68,8.388,24.119Z"/>
                <path class="cls-112" d="M8.362,24.12c-.112-1.528-.737-2.727-1.4-2.679s-1.1,1.326-.991,2.855.737,2.728,1.4,2.68S8.474,25.65,8.362,24.12Z"/>
                <path class="cls-113" d="M8.337,24.122c-.11-1.5-.722-2.67-1.367-2.623S5.889,22.8,6,24.294s.722,2.67,1.367,2.623S8.447,25.618,8.337,24.122Z"/>
                <path class="cls-114" d="M8.311,24.124c-.106-1.463-.706-2.612-1.337-2.565s-1.057,1.269-.95,2.733S6.73,26.9,7.362,26.858,8.419,25.588,8.311,24.124Z"/>
                <path class="cls-115" d="M8.286,24.126c-.1-1.431-.69-2.554-1.308-2.509S5.945,22.86,6.05,24.29s.69,2.554,1.307,2.509S8.391,25.557,8.286,24.126Z"/>
                <path class="cls-116" d="M8.261,24.128c-.1-1.4-.675-2.5-1.279-2.452s-1.009,1.214-.907,2.612.674,2.5,1.278,2.452S8.363,25.526,8.261,24.128Z"/>
                <path class="cls-117" d="M8.235,24.13c-.1-1.366-.658-2.438-1.248-2.395S6,22.92,6.1,24.286s.658,2.439,1.248,2.4S8.335,25.5,8.235,24.13Z"/>
                <path class="cls-118" d="M8.21,24.132c-.1-1.333-.643-2.38-1.219-2.338s-.963,1.157-.865,2.49.643,2.38,1.219,2.338S8.308,25.465,8.21,24.132Z"/>
                <path class="cls-119" d="M8.185,24.134c-.1-1.3-.628-2.322-1.189-2.281s-.94,1.129-.845,2.429.628,2.323,1.189,2.282S8.28,25.435,8.185,24.134Z"/>
                <path class="cls-120" d="M8.159,24.136C8.066,22.867,7.547,21.871,7,21.911s-.916,1.1-.823,2.369.612,2.265,1.159,2.225S8.252,25.4,8.159,24.136Z"/>
                <path class="cls-121" d="M8.134,24.138c-.091-1.237-.6-2.206-1.13-2.167s-.892,1.072-.8,2.307.6,2.207,1.129,2.167S8.224,25.373,8.134,24.138Z"/>
                <path class="cls-122" d="M8.108,24.14c-.088-1.2-.58-2.149-1.1-2.111s-.868,1.044-.781,2.247.581,2.149,1.1,2.111S8.2,25.343,8.108,24.14Z"/>
                <path class="cls-123" d="M8.083,24.141c-.086-1.17-.565-2.09-1.07-2.053s-.846,1.017-.76,2.188.565,2.089,1.07,2.052S8.168,25.312,8.083,24.141Z"/>
                <path class="cls-124" d="M8.058,24.143c-.084-1.138-.55-2.032-1.041-2s-.822.987-.739,2.126.55,2.031,1.041,1.995S8.141,25.281,8.058,24.143Z"/>
                <path class="cls-125" d="M8.032,24.145c-.081-1.106-.534-1.974-1.011-1.939s-.8.96-.717,2.066.533,1.973,1.01,1.938S8.113,25.25,8.032,24.145Z"/>
                <path class="cls-126" d="M8.007,24.147c-.079-1.074-.518-1.916-.981-1.882s-.776.931-.7,2,.518,1.916.981,1.881S8.085,25.22,8.007,24.147Z"/>
                <path class="cls-127" d="M7.981,24.149c-.076-1.041-.5-1.858-.951-1.826s-.752.9-.676,1.945.5,1.857.952,1.825S8.058,25.19,7.981,24.149Z"/>
                <path class="cls-128" d="M7.956,24.151c-.074-1.008-.486-1.8-.922-1.768s-.728.875-.654,1.883.486,1.8.922,1.767S8.03,25.158,7.956,24.151Z"/>
                <path class="cls-129" d="M7.931,24.152c-.072-.975-.471-1.741-.892-1.71s-.7.846-.634,1.822.471,1.741.892,1.711S8,25.128,7.931,24.152Z"/>
                <path class="cls-130" d="M7.905,24.154c-.069-.943-.455-1.683-.862-1.654s-.681.818-.612,1.762.455,1.683.862,1.654S7.974,25.1,7.905,24.154Z"/>
                <path class="cls-131" d="M7.879,24.156c-.066-.911-.439-1.626-.832-1.6s-.657.79-.591,1.7.439,1.626.833,1.6S7.946,25.067,7.879,24.156Z"/>
                <path class="cls-132" d="M7.854,24.158c-.064-.879-.423-1.567-.8-1.54s-.635.762-.57,1.64.423,1.567.8,1.54S7.918,25.036,7.854,24.158Z"/>
                <path class="cls-133" d="M7.829,24.159c-.062-.844-.408-1.508-.773-1.482s-.611.734-.549,1.58.408,1.509.773,1.482S7.891,25.005,7.829,24.159Z"/>
                <path class="cls-134" d="M7.8,24.161c-.059-.812-.392-1.451-.743-1.425s-.587.706-.527,1.519.392,1.451.743,1.425S7.863,24.975,7.8,24.161Z"/>
                <path class="cls-135" d="M7.778,24.163c-.057-.78-.377-1.392-.714-1.368s-.563.677-.506,1.458.377,1.393.713,1.368S7.835,24.944,7.778,24.163Z"/>
                <path class="cls-136" d="M7.752,24.165c-.054-.748-.36-1.335-.683-1.311s-.54.649-.486,1.4.361,1.335.684,1.312S7.807,24.913,7.752,24.165Z"/>
                <path class="cls-137" d="M7.727,24.167c-.052-.716-.345-1.277-.654-1.255s-.516.621-.464,1.337.345,1.277.654,1.255S7.779,24.883,7.727,24.167Z"/>
                <path class="cls-138" d="M7.7,24.169c-.05-.683-.33-1.219-.624-1.2s-.494.593-.444,1.275.33,1.219.624,1.2S7.751,24.852,7.7,24.169Z"/>
                <path class="cls-139" d="M7.676,24.171c-.047-.65-.314-1.161-.595-1.141s-.469.565-.421,1.215.314,1.161.594,1.141S7.724,24.821,7.676,24.171Z"/>
                <path class="cls-140" d="M7.651,24.173c-.046-.618-.3-1.1-.565-1.084s-.446.536-.4,1.154.3,1.1.565,1.084S7.7,24.791,7.651,24.173Z"/>
                <path class="cls-141" d="M7.625,24.175c-.043-.586-.282-1.045-.535-1.026s-.423.507-.38,1.092.283,1.045.536,1.027S7.668,24.76,7.625,24.175Z"/>
                <path class="cls-142" d="M7.6,24.177c-.04-.554-.267-.987-.5-.97s-.4.48-.359,1.032.266.988.5.97S7.641,24.73,7.6,24.177Z"/>
                <path class="cls-143" d="M7.575,24.179c-.038-.521-.251-.93-.476-.913s-.376.452-.338.971.251.93.476.914S7.613,24.7,7.575,24.179Z"/>
                <path class="cls-144" d="M7.549,24.18c-.035-.487-.235-.87-.446-.855s-.352.423-.316.911.235.871.445.855S7.585,24.668,7.549,24.18Z"/>
                <path class="cls-145" d="M7.524,24.182c-.034-.455-.22-.813-.417-.8s-.328.394-.295.851.22.812.416.8S7.557,24.638,7.524,24.182Z"/>
                <path class="cls-146" d="M7.5,24.184c-.031-.423-.2-.755-.386-.741s-.3.367-.275.79.2.754.387.741S7.529,24.607,7.5,24.184Z"/>
                <path class="cls-147" d="M7.473,24.186c-.029-.39-.188-.7-.357-.685s-.282.339-.253.73.188.7.357.684S7.5,24.576,7.473,24.186Z"/>
                <path class="cls-148" d="M7.448,24.188c-.027-.358-.173-.639-.327-.627s-.259.31-.233.668.173.638.327.627S7.474,24.545,7.448,24.188Z"/>
                <path class="cls-149" d="M7.422,24.19c-.024-.326-.157-.58-.3-.571s-.235.282-.211.608.157.58.3.57S7.446,24.515,7.422,24.19Z"/>
                <path class="cls-150" d="M7.4,24.192c-.021-.293-.141-.523-.267-.514s-.211.254-.19.547.142.522.267.513S7.418,24.485,7.4,24.192Z"/>
                <path class="cls-151" d="M7.371,24.193c-.019-.26-.125-.464-.238-.456s-.187.226-.168.486.125.465.238.456S7.39,24.453,7.371,24.193Z"/>
                <path class="cls-152" d="M7.346,24.2c-.017-.227-.11-.406-.208-.4s-.164.2-.148.425.11.406.208.4S7.362,24.423,7.346,24.2Z"/>
                <path class="cls-153" d="M7.32,24.2c-.014-.2-.093-.348-.178-.342s-.141.17-.126.364.093.349.178.343S7.335,24.392,7.32,24.2Z"/>
                <path class="cls-154" d="M7.3,24.2c-.012-.162-.078-.29-.149-.284s-.117.141-.1.3.078.29.148.284S7.307,24.361,7.3,24.2Z"/>
                <path class="cls-155" d="M7.269,24.2c-.009-.13-.062-.231-.118-.227s-.094.112-.085.243.063.231.119.227S7.279,24.331,7.269,24.2Z"/>
                <path class="cls-156" d="M7.244,24.2c-.007-.1-.047-.174-.089-.171s-.071.085-.063.183.047.174.089.171S7.251,24.3,7.244,24.2Z"/>
                <path class="cls-157" d="M7.219,24.2c0-.064-.032-.116-.06-.114s-.047.057-.042.122.031.116.06.114S7.224,24.27,7.219,24.2Z"/>
                <path class="cls-158" d="M7.193,24.206c0-.032-.015-.057-.029-.056s-.024.028-.021.06.015.058.029.057S7.2,24.238,7.193,24.206Z"/>
              </g>
            </g>
            <g class="cls-14">
              <g class="cls-159">
                <rect x="23.168" y="2.868" width="6.458" height="15.004"/>
                <path d="M24.094,10.71c.31,5.775,2.652,10.345,5.232,10.207s4.421-4.932,4.111-10.707S30.785-.135,28.206,0,23.785,4.935,24.094,10.71Z"/>
                <path class="cls-16" d="M24.137,10.708c.307,5.722,2.628,10.25,5.184,10.113s4.38-4.886,4.073-10.609S30.767-.038,28.21.1,23.831,4.985,24.137,10.708Z"/>
                <path class="cls-17" d="M24.18,10.706c.3,5.669,2.6,10.154,5.135,10.019s4.34-4.841,4.036-10.511S30.748.06,28.216.2,23.876,5.036,24.18,10.706Z"/>
                <path class="cls-18" d="M24.223,10.7c.3,5.616,2.579,10.061,5.088,9.926s4.3-4.8,4-10.412S30.729.156,28.221.291,23.922,5.087,24.223,10.7Z"/>
                <path class="cls-160" d="M24.266,10.7c.3,5.563,2.554,9.965,5.039,9.832s4.258-4.751,3.96-10.314S30.711.254,28.226.387,23.968,5.138,24.266,10.7Z"/>
                <path class="cls-20" d="M24.309,10.7c.295,5.51,2.53,9.869,4.991,9.738s4.218-4.705,3.923-10.216S30.692.352,28.231.484,24.014,5.189,24.309,10.7Z"/>
                <path class="cls-161" d="M24.352,10.7c.292,5.457,2.5,9.776,4.943,9.645s4.177-4.66,3.885-10.117S30.674.448,28.236.579,24.06,5.239,24.352,10.7Z"/>
                <path class="cls-162" d="M24.394,10.694c.29,5.4,2.482,9.68,4.9,9.551s4.136-4.615,3.847-10.019S30.655.546,28.241.675,24.105,5.29,24.394,10.694Z"/>
                <path class="cls-163" d="M24.437,10.692c.287,5.351,2.457,9.584,4.848,9.457s4.1-4.57,3.809-9.92S30.637.644,28.247.772,24.151,5.341,24.437,10.692Z"/>
                <path class="cls-164" d="M24.48,10.69c.284,5.3,2.433,9.49,4.8,9.363s4.054-4.525,3.771-9.822S30.618.74,28.251.867,24.2,5.392,24.48,10.69Z"/>
                <path class="cls-165" d="M24.523,10.688c.281,5.244,2.409,9.394,4.751,9.268s4.015-4.478,3.734-9.723S30.6.838,28.257.964,24.242,5.443,24.523,10.688Z"/>
                <path class="cls-166" d="M24.566,10.685c.278,5.192,2.384,9.3,4.7,9.175s3.974-4.433,3.7-9.625-2.384-9.3-4.7-9.175S24.288,5.493,24.566,10.685Z"/>
                <path class="cls-167" d="M24.609,10.683c.275,5.138,2.36,9.205,4.655,9.082s3.933-4.389,3.658-9.528-2.36-9.2-4.655-9.082S24.334,5.544,24.609,10.683Z"/>
                <path class="cls-168" d="M24.652,10.681c.272,5.085,2.335,9.109,4.607,8.987s3.893-4.343,3.62-9.429S30.544,1.13,28.272,1.252,24.379,5.6,24.652,10.681Z"/>
                <path class="cls-169" d="M24.7,10.678c.269,5.033,2.311,9.015,4.559,8.894s3.852-4.3,3.582-9.33-2.311-9.014-4.559-8.894S24.425,5.646,24.7,10.678Z"/>
                <path class="cls-170" d="M24.738,10.676c.267,4.979,2.286,8.92,4.51,8.8s3.812-4.253,3.545-9.233-2.286-8.92-4.51-8.8S24.471,5.7,24.738,10.676Z"/>
                <path class="cls-171" d="M24.781,10.674c.264,4.926,2.262,8.824,4.463,8.706s3.771-4.207,3.506-9.134S30.488,1.422,28.288,1.54,24.517,5.747,24.781,10.674Z"/>
                <path class="cls-172" d="M24.824,10.671c.261,4.874,2.237,8.73,4.414,8.613s3.731-4.162,3.469-9.035S30.47,1.52,28.293,1.636,24.562,5.8,24.824,10.671Z"/>
                <path class="cls-173" d="M24.867,10.669c.258,4.82,2.213,8.635,4.366,8.52s3.69-4.118,3.432-8.938S30.451,1.616,28.3,1.732,24.608,5.849,24.867,10.669Z"/>
                <path class="cls-174" d="M24.91,10.667c.255,4.767,2.189,8.539,4.318,8.425s3.649-4.071,3.394-8.839S30.433,1.714,28.3,1.828,24.654,5.9,24.91,10.667Z"/>
                <path class="cls-175" d="M24.952,10.664c.253,4.715,2.165,8.446,4.271,8.332s3.608-4.026,3.356-8.74-2.165-8.445-4.271-8.332S24.7,5.95,24.952,10.664Z"/>
                <path class="cls-176" d="M25,10.662c.25,4.661,2.141,8.35,4.223,8.239s3.568-3.982,3.318-8.643S30.4,1.908,28.313,2.02,24.746,6,25,10.662Z"/>
                <path class="cls-177" d="M25.038,10.659c.247,4.609,2.116,8.255,4.175,8.145s3.527-3.936,3.28-8.543-2.116-8.255-4.175-8.145S24.791,6.052,25.038,10.659Z"/>
                <path class="cls-178" d="M25.081,10.657c.244,4.556,2.092,8.161,4.126,8.051s3.487-3.89,3.243-8.445S30.358,2.1,28.324,2.212,24.837,6.1,25.081,10.657Z"/>
                <path class="cls-179" d="M25.124,10.655c.241,4.5,2.067,8.065,4.078,7.957s3.446-3.845,3.2-8.347S30.34,2.2,28.329,2.308,24.883,6.153,25.124,10.655Z"/>
                <path class="cls-180" d="M25.167,10.652c.238,4.45,2.042,7.97,4.03,7.864s3.4-3.8,3.167-8.248S30.322,2.3,28.334,2.4,24.929,6.2,25.167,10.652Z"/>
                <path class="cls-181" d="M25.21,10.651c.235,4.4,2.018,7.875,3.982,7.769s3.365-3.754,3.129-8.15S30.3,2.4,28.339,2.5,24.974,6.254,25.21,10.651Z"/>
                <path class="cls-182" d="M25.253,10.649c.232,4.342,1.994,7.779,3.934,7.675s3.324-3.709,3.091-8.052S30.285,2.492,28.344,2.6,25.02,6.305,25.253,10.649Z"/>
                <path class="cls-183" d="M25.3,10.646c.23,4.29,1.97,7.684,3.887,7.582s3.283-3.663,3.054-7.953S30.266,2.59,28.35,2.693,25.066,6.356,25.3,10.646Z"/>
                <path class="cls-184" d="M25.338,10.644c.227,4.237,1.946,7.59,3.839,7.488s3.243-3.618,3.016-7.856-1.945-7.589-3.839-7.488S25.111,6.406,25.338,10.644Z"/>
                <path class="cls-185" d="M25.381,10.642c.224,4.183,1.921,7.494,3.79,7.394s3.2-3.573,2.979-7.758-1.921-7.494-3.79-7.394S25.157,6.457,25.381,10.642Z"/>
                <path class="cls-186" d="M25.424,10.639c.221,4.131,1.9,7.4,3.742,7.3s3.162-3.528,2.941-7.659-1.9-7.4-3.742-7.3S25.2,6.508,25.424,10.639Z"/>
                <path class="cls-187" d="M25.467,10.637c.219,4.078,1.872,7.305,3.694,7.207s3.122-3.483,2.9-7.561-1.872-7.3-3.694-7.207S25.248,6.559,25.467,10.637Z"/>
                <path class="cls-188" d="M25.51,10.635c.216,4.024,1.848,7.209,3.646,7.113s3.081-3.437,2.865-7.463-1.848-7.209-3.646-7.113S25.294,6.61,25.51,10.635Z"/>
                <path class="cls-189" d="M25.553,10.632c.213,3.972,1.823,7.115,3.6,7.019s3.04-3.391,2.827-7.363-1.823-7.115-3.6-7.019S25.34,6.66,25.553,10.632Z"/>
                <path class="cls-190" d="M25.6,10.63c.21,3.919,1.8,7.02,3.55,6.926s3-3.347,2.79-7.266-1.8-7.019-3.551-6.926S25.386,6.711,25.6,10.63Z"/>
                <path class="cls-191" d="M25.639,10.628c.207,3.865,1.775,6.924,3.5,6.831s2.959-3.3,2.752-7.167-1.775-6.924-3.5-6.831S25.432,6.762,25.639,10.628Z"/>
                <path class="cls-192" d="M25.682,10.625c.2,3.813,1.75,6.83,3.453,6.738s2.919-3.255,2.715-7.068S30.1,3.465,28.4,3.557,25.477,6.813,25.682,10.625Z"/>
                <path class="cls-193" d="M25.725,10.623c.2,3.76,1.726,6.735,3.4,6.645s2.878-3.211,2.677-6.971S30.081,3.563,28.4,3.652,25.523,6.863,25.725,10.623Z"/>
                <path class="cls-194" d="M25.768,10.62c.2,3.707,1.7,6.64,3.357,6.551s2.837-3.165,2.639-6.871-1.7-6.64-3.358-6.551S25.569,6.914,25.768,10.62Z"/>
                <path class="cls-195" d="M25.811,10.618c.2,3.654,1.677,6.545,3.309,6.457s2.8-3.12,2.6-6.773-1.678-6.545-3.31-6.457S25.615,6.965,25.811,10.618Z"/>
                <path class="cls-196" d="M25.853,10.616c.193,3.6,1.653,6.45,3.262,6.364S31.871,13.9,31.678,10.3s-1.653-6.449-3.262-6.363S25.661,7.016,25.853,10.616Z"/>
                <path class="cls-197" d="M25.9,10.613c.19,3.548,1.629,6.355,3.214,6.27s2.715-3.029,2.525-6.576-1.629-6.355-3.214-6.27S25.706,7.067,25.9,10.613Z"/>
                <path class="cls-198" d="M25.939,10.611c.187,3.495,1.6,6.26,3.165,6.176s2.675-2.984,2.488-6.478-1.6-6.26-3.165-6.176S25.752,7.117,25.939,10.611Z"/>
                <path class="cls-199" d="M25.982,10.61c.184,3.441,1.58,6.164,3.118,6.082s2.633-2.94,2.449-6.381-1.58-6.164-3.117-6.082S25.8,7.168,25.982,10.61Z"/>
                <path class="cls-200" d="M26.025,10.607c.181,3.388,1.556,6.069,3.069,5.988s2.594-2.894,2.412-6.281-1.555-6.07-3.069-5.989S25.843,7.219,26.025,10.607Z"/>
                <path class="cls-201" d="M26.068,10.605c.179,3.335,1.531,5.974,3.021,5.894s2.553-2.848,2.374-6.183-1.531-5.975-3.021-5.895S25.889,7.27,26.068,10.605Z"/>
                <path class="cls-202" d="M26.111,10.6c.176,3.282,1.507,5.879,2.973,5.8s2.512-2.8,2.336-6.085-1.506-5.879-2.973-5.8S25.935,7.32,26.111,10.6Z"/>
                <path class="cls-203" d="M26.154,10.6c.173,3.229,1.482,5.784,2.925,5.707s2.472-2.758,2.3-5.987S29.9,4.536,28.452,4.613,25.98,7.371,26.154,10.6Z"/>
                <path class="cls-204" d="M26.2,10.6c.17,3.176,1.458,5.689,2.877,5.613s2.431-2.713,2.26-5.889-1.458-5.689-2.877-5.613S26.026,7.422,26.2,10.6Z"/>
                <path class="cls-205" d="M26.239,10.6c.168,3.123,1.434,5.594,2.829,5.519s2.391-2.668,2.224-5.791-1.434-5.593-2.829-5.519S26.072,7.473,26.239,10.6Z"/>
                <path class="cls-206" d="M26.282,10.593c.165,3.07,1.41,5.5,2.781,5.426s2.351-2.621,2.186-5.692-1.41-5.5-2.781-5.426S26.118,7.523,26.282,10.593Z"/>
                <path class="cls-207" d="M26.325,10.591c.162,3.017,1.385,5.4,2.733,5.332s2.31-2.576,2.148-5.594S29.821,4.925,28.473,5,26.164,7.573,26.325,10.591Z"/>
                <path class="cls-208" d="M26.368,10.589c.159,2.964,1.361,5.309,2.685,5.238s2.269-2.531,2.11-5.5S29.8,5.023,28.478,5.093,26.209,7.624,26.368,10.589Z"/>
                <path class="cls-209" d="M26.411,10.586c.156,2.911,1.337,5.215,2.637,5.145s2.228-2.486,2.072-5.4S29.784,5.119,28.483,5.19,26.255,7.675,26.411,10.586Z"/>
                <path class="cls-210" d="M26.454,10.584c.153,2.858,1.312,5.119,2.589,5.051s2.187-2.441,2.034-5.3-1.312-5.119-2.589-5.051S26.3,7.726,26.454,10.584Z"/>
                <path class="cls-211" d="M26.5,10.581c.15,2.806,1.288,5.025,2.541,4.958s2.147-2.395,2-5.2-1.287-5.024-2.54-4.958S26.347,7.776,26.5,10.581Z"/>
                <path class="cls-212" d="M26.54,10.579c.147,2.752,1.263,4.93,2.493,4.864s2.106-2.35,1.958-5.1S29.728,5.411,28.5,5.478,26.393,7.827,26.54,10.579Z"/>
                <path class="cls-213" d="M26.582,10.577c.145,2.7,1.24,4.834,2.445,4.77s2.066-2.3,1.922-5-1.24-4.834-2.445-4.77S26.438,7.878,26.582,10.577Z"/>
                <path class="cls-214" d="M26.625,10.574c.143,2.647,1.215,4.74,2.4,4.677s2.025-2.26,1.884-4.9-1.215-4.739-2.4-4.677S26.484,7.929,26.625,10.574Z"/>
                <path class="cls-215" d="M26.668,10.572c.14,2.593,1.191,4.645,2.349,4.582S31,12.941,30.863,10.348,29.672,5.7,28.514,5.766,26.53,7.98,26.668,10.572Z"/>
                <path class="cls-216" d="M26.711,10.57c.137,2.54,1.166,4.549,2.3,4.489s1.944-2.169,1.808-4.709-1.166-4.549-2.3-4.489S26.575,8.03,26.711,10.57Z"/>
                <path class="cls-217" d="M26.754,10.568c.134,2.487,1.142,4.454,2.253,4.394s1.9-2.123,1.77-4.609S29.635,5.9,28.524,5.958,26.621,8.081,26.754,10.568Z"/>
                <path class="cls-218" d="M26.8,10.566c.131,2.433,1.118,4.359,2.2,4.3s1.863-2.078,1.733-4.511-1.117-4.36-2.2-4.3S26.667,8.132,26.8,10.566Z"/>
                <path class="cls-219" d="M26.84,10.564c.128,2.379,1.093,4.263,2.157,4.207s1.822-2.034,1.694-4.414S29.6,6.093,28.535,6.15,26.712,8.183,26.84,10.564Z"/>
                <path class="cls-220" d="M26.883,10.561c.125,2.328,1.069,4.169,2.108,4.113s1.782-1.987,1.657-4.314S29.58,6.191,28.54,6.246,26.758,8.234,26.883,10.561Z"/>
                <path class="cls-221" d="M26.926,10.559c.122,2.274,1.044,4.074,2.06,4.019s1.741-1.942,1.619-4.217-1.044-4.074-2.06-4.019S26.8,8.284,26.926,10.559Z"/>
                <path class="cls-222" d="M26.969,10.557c.119,2.22,1.02,3.978,2.012,3.926s1.7-1.9,1.581-4.12-1.02-3.978-2.012-3.925S26.85,8.335,26.969,10.557Z"/>
                <path class="cls-223" d="M27.012,10.554c.116,2.169,1,3.885,1.964,3.832s1.66-1.852,1.543-4.02-.995-3.884-1.964-3.832S26.9,8.386,27.012,10.554Z"/>
                <path class="cls-224" d="M27.055,10.552c.113,2.115.971,3.789,1.916,3.738s1.619-1.806,1.506-3.922-.972-3.789-1.916-3.738S26.941,8.437,27.055,10.552Z"/>
                <path class="cls-225" d="M27.1,10.55c.11,2.061.946,3.693,1.868,3.644s1.578-1.761,1.468-3.824-.947-3.693-1.869-3.644S26.987,8.487,27.1,10.55Z"/>
                <path class="cls-226" d="M27.141,10.547c.107,2.01.922,3.6,1.819,3.551s1.538-1.716,1.431-3.725-.923-3.6-1.82-3.551S27.033,8.538,27.141,10.547Z"/>
                <path class="cls-227" d="M27.183,10.545c.105,1.956.9,3.5,1.773,3.457s1.5-1.671,1.392-3.627-.9-3.5-1.772-3.457S27.079,8.589,27.183,10.545Z"/>
                <path class="cls-228" d="M27.226,10.542c.1,1.9.874,3.409,1.724,3.364s1.457-1.626,1.355-3.528-.874-3.409-1.724-3.364S27.124,8.64,27.226,10.542Z"/>
                <path class="cls-229" d="M27.269,10.54c.1,1.851.85,3.315,1.676,3.27s1.416-1.58,1.317-3.43-.849-3.314-1.676-3.27S27.17,8.691,27.269,10.54Z"/>
                <path class="cls-230" d="M27.312,10.538c.1,1.8.825,3.219,1.628,3.176s1.375-1.535,1.279-3.332-.825-3.219-1.628-3.176S27.216,8.741,27.312,10.538Z"/>
                <path class="cls-231" d="M27.355,10.535c.093,1.744.8,3.124,1.58,3.083s1.334-1.49,1.241-3.233S29.375,7.261,28.6,7.3,27.262,8.792,27.355,10.535Z"/>
                <path class="cls-232" d="M27.4,10.533c.09,1.692.776,3.03,1.532,2.989s1.294-1.444,1.2-3.135S29.357,7.358,28.6,7.4,27.307,8.842,27.4,10.533Z"/>
                <path class="cls-233" d="M27.441,10.531c.087,1.638.752,2.934,1.483,2.895s1.254-1.4,1.166-3.037-.752-2.934-1.483-2.895S27.353,8.893,27.441,10.531Z"/>
                <path class="cls-234" d="M27.484,10.528c.084,1.585.727,2.839,1.435,2.8s1.213-1.353,1.128-2.938-.727-2.839-1.435-2.8S27.4,8.943,27.484,10.528Z"/>
                <path class="cls-235" d="M27.526,10.526c.083,1.533.7,2.745,1.388,2.708s1.173-1.308,1.091-2.84-.7-2.744-1.388-2.707S27.444,8.994,27.526,10.526Z"/>
                <path class="cls-236" d="M27.569,10.525c.08,1.478.679,2.648,1.34,2.613s1.132-1.263,1.053-2.742-.679-2.649-1.34-2.614S27.49,9.045,27.569,10.525Z"/>
                <path class="cls-237" d="M27.612,10.522c.077,1.425.655,2.554,1.292,2.52S30,11.824,29.919,10.4s-.655-2.555-1.292-2.521S27.536,9.1,27.612,10.522Z"/>
                <path class="cls-238" d="M27.655,10.52c.074,1.373.631,2.459,1.244,2.425s1.051-1.171.977-2.544-.63-2.459-1.244-2.426S27.581,9.147,27.655,10.52Z"/>
                <path class="cls-239" d="M27.7,10.518c.071,1.319.606,2.363,1.2,2.332s1.01-1.127.939-2.448-.606-2.363-1.195-2.332S27.627,9.2,27.7,10.518Z"/>
                <path class="cls-240" d="M27.741,10.515c.068,1.266.582,2.269,1.148,2.239s.969-1.082.9-2.349-.582-2.269-1.147-2.239S27.673,9.248,27.741,10.515Z"/>
                <path class="cls-241" d="M27.784,10.513c.065,1.214.557,2.174,1.1,2.144s.929-1.036.864-2.25-.557-2.173-1.1-2.144S27.719,9.3,27.784,10.513Z"/>
                <path class="cls-241" d="M27.827,10.511c.062,1.16.533,2.078,1.051,2.051s.889-.992.827-2.153-.534-2.078-1.052-2.05S27.765,9.35,27.827,10.511Z"/>
                <path class="cls-242" d="M27.847,10.509c.061,1.136.522,2.034,1.029,2.007s.869-.97.808-2.105S29.163,8.377,28.655,8.4,27.787,9.374,27.847,10.509Z"/>
                <path class="cls-243" d="M27.868,10.508c.059,1.11.509,1.988,1.005,1.962s.85-.948.791-2.058-.51-1.988-1.006-1.962S27.808,9.4,27.868,10.508Z"/>
                <path class="cls-244" d="M27.888,10.507c.058,1.085.5,1.943.983,1.917s.83-.926.772-2.011-.5-1.943-.983-1.917S27.83,9.422,27.888,10.507Z"/>
                <path class="cls-245" d="M27.909,10.506c.056,1.06.486,1.9.96,1.873s.811-.9.754-1.965-.487-1.9-.96-1.873S27.852,9.446,27.909,10.506Z"/>
                <path class="cls-246" d="M27.929,10.505c.055,1.034.475,1.853.937,1.828s.792-.884.736-1.918-.475-1.852-.937-1.828S27.873,9.471,27.929,10.505Z"/>
                <path class="cls-247" d="M27.949,10.5c.054,1.009.464,1.808.914,1.783s.773-.861.719-1.871-.463-1.807-.914-1.783S27.9,9.494,27.949,10.5Z"/>
                <path class="cls-248" d="M27.97,10.5c.052.983.451,1.762.891,1.738s.753-.84.7-1.824-.451-1.762-.891-1.738S27.917,9.519,27.97,10.5Z"/>
                <path class="cls-249" d="M27.99,10.5c.051.958.44,1.717.868,1.694s.734-.819.683-1.778S29.1,8.7,28.673,8.724,27.939,9.543,27.99,10.5Z"/>
                <path class="cls-250" d="M28.011,10.5c.05.934.428,1.673.845,1.651s.715-.8.664-1.731-.428-1.673-.845-1.65S27.96,9.568,28.011,10.5Z"/>
                <path class="cls-251" d="M28.031,10.5c.049.908.417,1.627.822,1.606s.7-.776.647-1.684-.417-1.627-.822-1.6S27.982,9.591,28.031,10.5Z"/>
                <path class="cls-252" d="M28.051,10.5c.048.883.406,1.582.8,1.561s.676-.754.629-1.637-.406-1.582-.8-1.561S28,9.615,28.051,10.5Z"/>
                <path class="cls-253" d="M28.072,10.5c.046.858.394,1.537.777,1.516s.656-.733.61-1.59-.394-1.537-.776-1.516S28.026,9.64,28.072,10.5Z"/>
                <path class="cls-254" d="M28.092,10.5c.045.833.383,1.491.754,1.472s.638-.711.593-1.544-.382-1.491-.754-1.472S28.047,9.663,28.092,10.5Z"/>
                <path class="cls-255" d="M28.113,10.5c.043.808.37,1.447.731,1.427s.618-.689.574-1.5S29.048,8.979,28.687,9,28.069,9.688,28.113,10.5Z"/>
                <path class="cls-256" d="M28.133,10.494c.042.782.359,1.4.708,1.382s.6-.668.557-1.45-.359-1.4-.708-1.382S28.091,9.712,28.133,10.494Z"/>
                <path class="cls-257" d="M28.153,10.493c.041.757.348,1.356.686,1.337s.579-.646.539-1.4-.348-1.356-.686-1.337S28.113,9.736,28.153,10.493Z"/>
                <path class="cls-258" d="M28.174,10.491c.039.733.336,1.312.662,1.294s.56-.625.521-1.356-.336-1.312-.662-1.294S28.135,9.76,28.174,10.491Z"/>
                <path class="cls-259" d="M28.194,10.49c.038.707.325,1.266.64,1.249s.541-.6.5-1.309-.324-1.266-.64-1.249S28.156,9.784,28.194,10.49Z"/>
                <path class="cls-260" d="M28.215,10.489c.036.682.312,1.221.616,1.2s.522-.582.485-1.262S29,9.21,28.7,9.227,28.178,9.809,28.215,10.489Z"/>
                <path class="cls-261" d="M28.235,10.488c.035.657.3,1.175.594,1.16s.5-.56.467-1.216S29,9.257,28.7,9.273,28.2,9.832,28.235,10.488Z"/>
                <path class="cls-262" d="M28.255,10.487c.034.631.29,1.13.572,1.115s.483-.538.449-1.169-.29-1.13-.571-1.115S28.222,9.857,28.255,10.487Z"/>
                <path class="cls-263" d="M28.276,10.486c.032.606.278,1.085.548,1.071s.464-.518.431-1.123-.278-1.085-.548-1.071S28.244,9.881,28.276,10.486Z"/>
                <path class="cls-264" d="M28.3,10.485c.031.581.266,1.04.526,1.026s.444-.5.413-1.076-.266-1.039-.526-1.026S28.265,9.9,28.3,10.485Z"/>
                <path class="cls-265" d="M28.317,10.485c.029.554.254.994.5.98s.425-.474.395-1.029-.254-.994-.5-.981S28.287,9.929,28.317,10.485Z"/>
                <path class="cls-266" d="M28.337,10.484c.028.529.244.948.48.935s.406-.452.377-.982-.243-.949-.48-.936S28.309,9.953,28.337,10.484Z"/>
                <path class="cls-267" d="M28.357,10.482c.027.5.232.9.457.892s.387-.431.36-.935-.232-.9-.457-.893S28.331,9.978,28.357,10.482Z"/>
                <path class="cls-268" d="M28.378,10.481c.026.479.22.859.434.847s.367-.409.341-.888-.22-.86-.434-.848S28.352,10,28.378,10.481Z"/>
                <path class="cls-269" d="M28.4,10.48c.025.454.209.813.412.8s.347-.387.323-.841-.209-.814-.411-.8S28.374,10.026,28.4,10.48Z"/>
                <path class="cls-270" d="M28.419,10.479c.023.428.2.768.388.757s.329-.366.3-.794-.2-.769-.388-.758S28.4,10.05,28.419,10.479Z"/>
                <path class="cls-271" d="M28.439,10.478c.022.4.185.722.366.713s.309-.345.287-.748-.185-.723-.365-.713S28.417,10.074,28.439,10.478Z"/>
                <path class="cls-272" d="M28.459,10.477c.021.378.174.677.343.669s.29-.324.27-.7-.174-.677-.343-.668S28.439,10.1,28.459,10.477Z"/>
                <path class="cls-273" d="M28.48,10.476c.019.352.162.633.32.624s.27-.3.251-.656-.162-.632-.32-.624S28.461,10.122,28.48,10.476Z"/>
                <path class="cls-274" d="M28.5,10.475c.018.327.151.587.3.579s.251-.28.234-.609-.151-.586-.3-.579S28.483,10.147,28.5,10.475Z"/>
                <path class="cls-275" d="M28.52,10.473c.017.3.14.543.275.535s.232-.258.216-.561-.139-.543-.275-.535S28.5,10.17,28.52,10.473Z"/>
                <path class="cls-276" d="M28.541,10.472c.015.278.127.5.251.491s.213-.237.2-.515-.127-.5-.251-.491S28.526,10.194,28.541,10.472Z"/>
                <path class="cls-277" d="M28.561,10.471c.014.253.116.452.229.446s.193-.216.18-.468S28.854,10,28.741,10,28.548,10.219,28.561,10.471Z"/>
                <path class="cls-278" d="M28.582,10.47c.012.227.1.407.206.4s.173-.194.161-.421-.1-.407-.205-.4S28.57,10.243,28.582,10.47Z"/>
                <path class="cls-279" d="M28.6,10.469c.011.2.093.361.183.356s.154-.172.144-.374-.093-.361-.183-.356S28.592,10.267,28.6,10.469Z"/>
                <path class="cls-280" d="M28.623,10.468c.009.177.081.316.16.311s.135-.15.126-.327-.082-.316-.161-.311S28.613,10.291,28.623,10.468Z"/>
                <path class="cls-281" d="M28.643,10.467c.008.151.07.27.137.268s.116-.13.108-.282-.07-.27-.137-.267S28.635,10.316,28.643,10.467Z"/>
                <path class="cls-282" d="M28.664,10.466c.006.126.058.226.114.223s.1-.108.09-.235-.058-.225-.115-.222S28.657,10.339,28.664,10.466Z"/>
                <path class="cls-283" d="M28.684,10.464c0,.1.046.182.091.179s.077-.086.072-.187-.046-.181-.091-.179S28.679,10.363,28.684,10.464Z"/>
                <path class="cls-284" d="M28.705,10.463c0,.076.034.136.068.134s.058-.065.054-.14-.035-.136-.069-.134S28.7,10.388,28.705,10.463Z"/>
                <path class="cls-285" d="M28.725,10.462c0,.051.023.091.045.09s.039-.044.037-.094-.024-.091-.046-.09S28.722,10.412,28.725,10.462Z"/>
                <path class="cls-286" d="M28.745,10.461c0,.025.012.045.023.045s.02-.021.018-.047-.012-.045-.023-.045S28.744,10.436,28.745,10.461Z"/>
              </g>
            </g>
          </g>
        </g>
      </g>
    </g>
  </g>
</svg>
