<svg xmlns="http://www.w3.org/2000/svg" viewBox="0 0 742.311 73.244">
  <title>underline</title>
  <g id="Шар_2" data-name="Шар 2">
    <g id="svg3336">
      <g>
        <path fill="#1b1919" d="M489.511,54.27c-5.318.707-12.859,1.711-16.759,2.232s-10.426,1.166-14.5,1.434c-9.7.636-9.219.6-19.659,1.661l-9.024.921,5.479.327h0a121.593,121.593,0,0,0,26.526-1.3c4.96-.746,11.97-1.642,15.578-1.992,9.416-.915,26.687-3.5,27.247-4.076C505.213,52.633,499.566,52.934,489.511,54.27Z"/>
        <path fill="#1b1919" d="M447.171,72.844h0c-.514.21-.361.365.39.4.679.029,1.06-.126.846-.344A1.279,1.279,0,0,0,447.171,72.844Z"/>
        <path fill="#1b1919" d="M325.3,66.345a1.277,1.277,0,0,0-1.235-.052h0c-.515.21-.362.365.389.4C325.13,66.718,325.511,66.563,325.3,66.345Z"/>
        <path fill="#1b1919" d="M429.889,63.1c-5.849.507-15.131,1.095-20.625,1.307-17.82.686-30.989,1.126-44.8,1.5-21.266.569-26.8.88-26.429,1.487.189.31-.184.734-.829.942-1.3.419-35.634.978-61.8,1.006-9.276.01-17.324.2-17.886.417-1.556.607,1.4,2.723,4.172,2.992h0c1.22.118,14.835.168,30.256.111,30.284-.113,60.716-1.141,85.081-2.875,4.786-.34,11.437-.621,14.781-.621s8.565-.289,11.6-.638,9.574-.953,14.526-1.341,9.171-.979,9.375-1.313c.44-.725,8.084-1.92,12.4-1.939,2.286-.009,3.061-.261,3.061-.995C442.78,61.955,443.133,61.956,429.889,63.1Z"/>
        <path fill="#1b1919" d="M425,61.449c.68.028,1.061-.127.846-.345a1.278,1.278,0,0,0-1.235-.051h0C424.1,61.262,424.251,61.417,425,61.449Z"/>
        <path fill="#1b1919" d="M419.254,46.923c1.418.007,2.074-.121,1.458-.285a6.923,6.923,0,0,0-2.578-.013h0C417.332,46.781,417.836,46.915,419.254,46.923Z"/>
        <path fill="#1b1919" d="M65.727,51.353c-.361-.227-.655.048-.655.61,0,1.15.386,1.32.939.411A.761.761,0,0,0,65.727,51.353Z"/>
        <path fill="#1b1919" d="M4.012,25.7a3.623,3.623,0,0,0-1.933-.024h0c-.627.166-.27.313.793.326S4.449,25.875,4.012,25.7Z"/>
        <path fill="#1b1919" d="M35.3,21.092h0c-.514.209-.361.364.39.395.679.029,1.06-.126.846-.344A1.279,1.279,0,0,0,35.3,21.092Z"/>
        <path fill="#1b1919" d="M25.109,20.885c2.659-.057,4.457-.257,3.995-.446-.632-.257-.552-.582.322-1.312,1.1-.92,1.1-.944-.127-.474-1.282.492-5.363.939-19.817,2.172-4.163.355-8.079.947-8.7,1.316-1.032.61-1.036.671-.046.689a9.564,9.564,0,0,0,2.819-.649C5.125,21.574,11.814,21.172,25.109,20.885Z"/>
        <path fill="#1b1919" d="M504.98.412c1.418.007,2.074-.121,1.458-.285a6.928,6.928,0,0,0-2.579-.013h0C503.058.27,503.562.4,504.98.412Z"/>
        <path fill="#1b1919" d="M727.164,21.662c-5.757-.246-11.277-1.286-9.024-1.7.71-.13,2.258-.491,3.442-.8,1.85-.485,1.986-.6.967-.814a19.527,19.527,0,0,0-3.012-.273c-1.166-.016-1.726-.18-1.549-.455.2-.306,2.017-.42,6.338-.394,3.525.02,6.241-.113,6.492-.32.523-.43-4.247-1.771-7.276-2.045a44.05,44.05,0,0,1-4.726-.774c-2.143-.486-2.373-.629-1.45-.905,2.036-.608,1.221-1.054-1.481-.81-2.876.26-3.7-.353-.967-.719,1.752-.235,1.9-.4,1-1.154-.4-.341-.249-.629.492-.918.6-.232.906-.515.692-.629-.333-.178-10.136-.67-19.913-1-5.334-.18-10.982-.658-11.332-.96a3.241,3.241,0,0,0-1.559-.3c-1.513,0-2.135-.528-1.406-1.108q-9.529.1-19.051.628c-.426.036-.854.082-1.281.119-7.712.21-17.4.61-23.449,1.022-2.675.181-8.067.445-11.982.585s-9.886.367-13.268.5-13.568.374-22.634.529c-19.027.323-32.14.816-42.717,1.607a160.54,160.54,0,0,1-20.164-.265c-8.18-.529-12.719-.586-12.744-.159-.022.365-1.272.613-2.778.553l-2.738-.112,2.124.767c1.168.421,1.973.9,1.79,1.066-.756.679-25.065.072-49.8-1.244-14.516-.772-27.416-1.292-28.667-1.155s-9.386.1-18.077-.075c-27.629-.564-30.183-.5-31.8.752a4.719,4.719,0,0,1-2.341,1.07c-.492-.031-4.888.121-9.769.337s-13.962.413-20.179.439c-19.194.079-34.232.415-42.354.945-4.279.279-11.391.592-15.805.694a72.118,72.118,0,0,0-8.581.49c-.305.166-8.6-.066-18.431-.517-18.344-.84-46.737-.767-90.91.234-3.47.079-38.049.034-53.917-.07-6.055-.04-37.777-1.462-75.995-3.407-20.858-1.061-28.188-.968-32.958.417-4.61,1.338-8.328,1.54-9.407.511-.514-.49-1.157-.69-1.43-.444s.2,1.041,1.04,1.765,2,1.79,2.567,2.366c2.2,2.232,4.741,3.2,10.294,3.906,3.172.4,8.725,1.108,12.341,1.563s6.705,1.073,6.865,1.376c.5.939-3.526,1.215-7.008.479C25.61,22,6.115,20.629,6.08,21.2c-.061.993,14.786,3.5,27.168,4.579,7.42.65,18.535,1.857,24.7,2.682,12.748,1.707,32.98,3.049,86.67,5.75,20.627,1.037,37.488,2.12,37.471,2.406-.048.794-5.314,1.027-12.755.564-4.305-.268-6.575-.175-6.345.261.2.383,3.309.863,7.129,1.1,5.067.316,6.693.62,6.459,1.208-1.034,2.61-20.06,2.835-29.569.351-5.11-1.336-8.693-1.8-29.475-3.816-4.767-.463-9.568-1.089-10.668-1.391-1.689-.465-2.083-.332-2.533.851-.487,1.281-.886,1.361-4.643.929-5.59-.644-5.261.145.435,1.043,2.525.4,4.926,1.044,5.337,1.436,1.234,1.177,2.836,1.394,22.626,3.057,19.249,1.619,22.9,2.274,18.575,3.336-1.668.41,2.717.763,16.405,1.32,26.169,1.066,56.4,2.872,56.676,3.386.369.7-2.4,1.052-6.561.848-3.192-.157-3.6-.062-2.327.547,1.649.792,9.8.81,11.978.027a55.279,55.279,0,0,1,8.438-.7c6.989-.225,7.164-.2,9.754,1.567,2.4,1.635,3.834,1.956,15.929,3.562,13.221,1.757,29.685,4.472,31.491,5.2.52.208-4.571-.077-11.313-.635s-12.686-.773-13.209-.481c-.6.337,1.643.729,6.12,1.069,3.889.3,12.706,1.071,19.592,1.722h0c17.7,1.674,29.362,2.33,30.031,1.689.334-.319-.441-.454-1.849-.323-1.333.125-2.56-.031-2.726-.346-.5-.946,3.759-.956,20.32-.051,8.665.474,15.982.738,16.259.586a73.227,73.227,0,0,1,8.734-.011c11.075.355,28.769.29,40.218-.148,5.162-.2,12.435-.33,16.162-.3s7.509-.028,8.4-.138,7.589-.292,14.877-.4,14.272-.271,15.52-.355,8.972-.471,17.164-.858,18.541-.929,23-1.2,11.017-.648,14.58-.831c7.5-.386,22.164-1.579,25.957-2.112,2.582-.363,2.771-.6,2.114-2.68-.279-.886.6-1.2,5.066-1.8A74.15,74.15,0,0,1,551.768,53a14.513,14.513,0,0,0,3.9-.36,71.136,71.136,0,0,1,8.458-1.035c4.105-.347,8.782-.811,10.394-1.029s4.872-.462,7.246-.54c3.059-.1,4.447-.434,4.766-1.145.682-1.522.164-1.7-3.251-1.13a61.708,61.708,0,0,1-6.693.643c-1.957.065-5.167.289-7.133.5-13.216,1.4-13.5,1.386-12.217-.727.923-1.52,4.122-2.164,11.1-2.234,3.021-.03,7.246-.212,9.388-.4s7.968-.415,12.945-.5,11.817-.259,15.2-.4,14-.522,23.6-.857,17.911-.866,18.475-1.181c.694-.388-.228-.53-2.857-.44-2.136.073-7.229.2-11.319.289s-10.637.236-14.549.332-14.381.2-23.262.237-20.372.232-25.534.443-11.133.431-13.268.49c-5.426.149-15.848,1.021-26.935,2.254-5.184.576-11.035,1.22-13,1.431s-6.8.782-10.732,1.269c-7.691.951-21.787,2.071-32.768,2.6-3.74.181-7.675.386-8.745.455s-5.285.1-9.368.069-8.886.122-10.675.339-8.483.392-14.876.389-13.193.013-15.111.036a11.78,11.78,0,0,1-4.663-.7c-.848-.531-1.725-.5-3.141.111-1.753.756-1.958.739-1.9-.163.043-.719-.183-.838-.782-.412-.464.329-2.939.406-5.5.171s-4.67-.18-4.689.122.328.595.768.651c.63.08.627.161-.013.379-.448.152-1.643-.405-2.657-1.238-1.626-1.336-2.662-1.557-8.776-1.872-18.454-.951-33.624-2.151-33.593-2.657.034-.568,5.213-.6,30.361-.167,7.628.13,17.941.177,22.918.105s15.445-.184,23.262-.246c20.43-.164,21.526-.176,26.17-.274,2.311-.048,6.971-.214,10.354-.368s8.891-.269,12.238-.256a32.91,32.91,0,0,0,7.21-.5c.618-.288,1.24-.392,1.381-.229.249.287,3.348.181,20.925-.715,4.632-.236,11.043-.542,14.248-.68s8.895-.534,12.646-.881c22.555-2.089,29.727-2.439,56.023-2.735,25.618-.288,41.207-.828,63.74-2.207,4.1-.251,10.216-.474,13.591-.5s7.233-.133,8.571-.248l12.015.235a1.052,1.052,0,0,0,.946-.548c.317-.007.624-.017.968-.017,2.148,0,3.749-.135,3.558-.3-.49-.423,3.192-.693,12.518-.918,4.431-.107,9.8-.349,11.924-.539s4.605-.385,5.506-.434a12.053,12.053,0,0,0,2.578-.411c.661-.227-.3-.383-3.25-.524-3.119-.15-3.821-.27-2.746-.47,2.8-.519.73-.826-4.836-.718-3.91.077-6.124-.035-7.242-.364-.887-.26-1.311-.476-.944-.479a.663.663,0,0,0,.667-.65c0-.549-.367-.62-2.44-.471-1.579.113-2.44.037-2.44-.215s1.243-.389,3.178-.389c2.805,0,3.2-.091,3.384-.775.2-.756.418-.776,9.418-.87,5.758-.059,9.067-.221,8.824-.43a4.346,4.346,0,0,0-1.96-.334c-.866,0-1.574-.15-1.574-.333,0-.572,2.126-.939,5.8-1,1.95-.032,4.416-.155,5.479-.274l1.934-.216-2.25-.41-2.25-.409,1.55-.443c1.238-.353,2.246-.359,5.02-.028,3.466.414,5.342.157,5.342-.734C742.311,23.041,735.082,22,727.164,21.662ZM319.5,44.321c.543-.174.971-.031.95.317s-.473.606-1,.573-.958-.176-.949-.317S318.952,44.5,319.5,44.321Zm-46.52.421c-2.123-.136-2.907-.307-1.742-.381a16.845,16.845,0,0,1,3.86.247h0C276.051,44.818,275.1,44.881,272.975,44.742Zm26.988,18.29a.655.655,0,1,1,.683-.614A.654.654,0,0,1,299.963,63.032ZM388.028,51a5.211,5.211,0,0,1,2.252.14c.609.2.094.306-1.144.229S387.4,51.122,388.028,51Zm-12.939,1.025c1.031.027,1.657-.245,1.453-.631s.238-.641.966-.6,1.31.328,1.292.629,3.086.627,6.9.724c4.569.118,6.59.371,5.929.744-1.186.669-14.817.347-16.905-.4C373.393,52.016,373.423,51.978,375.089,52.021Zm-13.108-2.79c8.291.373,11.74.743,11.709,1.254-.025.416-1.349.684-3.105.627l-3.061-.1,2.547.6,2.547.6-2.455.375a7.236,7.236,0,0,1-4.4-.591c-2.717-1.347-22-2.657-27.563-1.873h0c-3.138.442-10.813.155-29.638-1.111-13.973-.94-26.121-1.882-27-2.094-1.5-.363-1.513-.416-.27-.89.975-.372.687-.466-1.1-.358-2.794.169-3.926-.921-1.237-1.191.985-.1,3.966-.11,6.624-.024s5.222-.133,5.7-.488,5.219-.659,10.539-.677c9.461-.031,15.788.7,15.067,1.735-.2.286.567.74,1.7,1.009C321.249,46.661,346.828,48.547,361.981,49.231ZM703.638,12.543c-1.418,0-2.579-.154-2.579-.344s1.161-.344,2.579-.344,2.578.155,2.578.344S705.056,12.543,703.638,12.543Zm11.279,2.082h0c-1.7.2-6.123.171-6.123-.041,0-.4,3.265-.6,5.069-.309C714.8,14.426,715.272,14.583,714.917,14.625Z"/>
      </g>
    </g>
  </g>
</svg>
