<svg xmlns="http://www.w3.org/2000/svg" viewBox="0 0 240.188 62.796">
  <defs>
    <style>
      .cls-1 {
        opacity: 0.8;
      }

      .cls-2 {
        fill: #82d1f2;
      }

      .cls-3 {
        fill: #caeefc;
      }

      .cls-4 {
        fill: #bbe8fa;
      }

      .cls-5 {
        fill: #a0ddf6;
      }

      .cls-6 {
        fill: #ace2f8;
      }

      .cls-7 {
        fill: #b3e5f9;
      }

      .cls-8 {
        fill: #c0e9fb;
      }

      .cls-9 {
        fill: #98daf5;
      }

      .cls-10 {
        opacity: 0.9;
      }

      .cls-11 {
        fill: #a2ddf7;
      }

      .cls-12 {
        fill: #b7e5fa;
      }

      .cls-13 {
        fill: #6dc9ef;
      }

      .cls-14 {
        fill: #5bc1ed;
      }

      .cls-15 {
        fill: #8ed6f4;
      }

      .cls-16 {
        fill: #7ecef2;
      }

      .cls-17 {
        fill: #47b9ea;
      }
    </style>
  </defs>
  <title>underline-03</title>
  <g id="Шар_2" data-name="Шар 2">
    <g id="object">
      <g>
        <g class="cls-1">
          <g class="cls-1">
            <path class="cls-2" d="M148.2,52.333c.332,2.595,1.607.964,2.934.033-.216-.059-.431-.13-.65-.2C149.73,52.225,148.969,52.289,148.2,52.333Z"/>
            <path class="cls-2" d="M150.485,52.162c.219.074.434.145.65.2a3.936,3.936,0,0,1,.492-.3Z"/>
            <path class="cls-2" d="M148.12,51.009a12.226,12.226,0,0,0,.081,1.324c.768-.044,1.529-.108,2.284-.171A10.381,10.381,0,0,1,148.12,51.009Z"/>
            <path class="cls-2" d="M151.627,52.066l1.208-.109A1.277,1.277,0,0,0,151.627,52.066Z"/>
            <path class="cls-3" d="M182.15,30.94l-14.411-.858L153.415,29.3c2.663,1.347,5.255,2.718,7.574,3.615C167.967,35.8,175.062,32.984,182.15,30.94Z"/>
            <path class="cls-4" d="M139.147,28.829l-9.613-.35A25.717,25.717,0,0,0,139.147,28.829Z"/>
            <path class="cls-3" d="M181.7,31.648c-7.089,2.039-14.187,4.86-21.165,1.966-2.321-.9-4.914-2.267-7.577-3.615-7.591-.4-15.147-.753-22.736-1.052A25.943,25.943,0,0,1,120.6,28.6c-15.009-.5-30.144-.728-45.595-.571s-31.227.674-47.519,1.852C25.575,29.958,15.62,32,13.9,34.16l-3.2,1.784.083.93c2.941-.147,5.87,0,9.018-.826,1.9-.15,3.725-1.333,5.63-1.464,4.28-.284,8.337-.3,12.5-.576A63.283,63.283,0,0,0,51.04,32.032c2.814-1.177,7.728,2.707,10.53,1.568,11.348-1.484,20.923,2.318,31.27,1.063,8.466-1.195,14.1-3.324,22.589-2.436,1.883-.028,4.694-1.082,6.577-1.11,12.244.84,24.46,1.712,36.67,3.54,2.808-.045,5.69,3.958,8.486,2.9a50.492,50.492,0,0,1,11.152-4.278c.933-.021,1.939,3,3.809,2.955,7.235.582,13.815-2.386,20.318-2.579-.376-.289-.751-.553-1.127-.8Z"/>
            <g>
              <path class="cls-3" d="M221.635,33.171a23.984,23.984,0,0,1-2.944,1.362,34.834,34.834,0,0,0,20.021-.457Z"/>
              <path class="cls-3" d="M211.3,33.334l.2.164-10.192-.646c.376.25.751.514,1.127.8a17.135,17.135,0,0,1,5.814.768c.516.181,1.046.347,1.579.5a20.734,20.734,0,0,0,2.22-.992c.133.108.265.2.4.32,1.664,1.321,3.827,1.173,6.24.278-.531-.152-1.065-.313-1.582-.488A17.041,17.041,0,0,0,211.3,33.334Z"/>
            </g>
            <path class="cls-5" d="M209.736,60.7c-6.743-2.817-10.375,2.421-17.071.564-4.869-1.17-9.533-.837-14.149-.287,10.574,1.074,20.826,1.987,31.134,1.5A2.35,2.35,0,0,1,209.736,60.7Z"/>
            <path class="cls-6" d="M236.205,46.556a9.2,9.2,0,0,1-7.578,2.129c-5.712-.683-10.553-3.556-15.248-3.329-13.156-.48-28.033,8.069-41.355,1.213-12.323-5.824-26.329-1.6-40.427-1.411-2.819.039-6.548,2.108-9.364,2.152l-26.286.441c-6.565.162-7.627-4.89-15.127-3.677-.937.029-2.877-1.935-3.82-1.906-21.64,1.63-44.164,1.856-66.095,1.948a32.343,32.343,0,0,0,.579,6.331c14.823-1.848,30.346.377,44.231.615,18.779,1.169,37.451-1.278,56.255.446,8.808.73,18.3,1.451,27.3.946a11.532,11.532,0,0,1-.08-1.324,10.306,10.306,0,0,0,2.365,1.154l1.142-.1a1.273,1.273,0,0,1,1.205-.108l-1.205.108a3.81,3.81,0,0,0-.495.3c6.905,1.89,14.488-3.36,18.61-1.671,14.229,5.849,31.983-1.622,44.324.93,12.546,1.674,23.253.776,32.1-4.246A10.247,10.247,0,0,1,236.205,46.556Z"/>
            <path class="cls-7" d="M234.855,37.183c-.413-.6-.787-1.111-1.09-1.505a31.635,31.635,0,0,1-14.41,5.35,74.853,74.853,0,0,1-8.209.7c-2.769.083-5.544.036-8.247-.029-.936.033-2.879-1.926-4.785-2.871-4.705-.851-7.376,4.256-11.156,3.354-16.513-3.622-32.9-3.895-49.332-3.048s-32.864,2.828-49.307,3.738c-1.883.045-.124-5.059-2.981-6-3.783-.429-7.328-.3-10.759-.447a29.331,29.331,0,0,1-10.128-1.93c-.988-.971-3.709,2.18-6.5,3.31-10.236,3.476-19.969-1.042-30.264,1.705-5.5,1.868-11.2,1.117-16.727,2.442-.039.726-.056,1.45-.056,2.166C32.836,44.024,55.36,43.8,77,42.168c.943-.029,2.883,1.935,3.82,1.906,5.792-.942,6.856,3.88,15.127,3.677l26.286-.441c2.816-.044,6.545-2.113,9.364-2.152,14.1-.184,28.1-4.413,40.427,1.411,13.322,6.856,28.2-1.693,41.355-1.213,4.7-.227,9.536,2.646,15.248,3.329a9.2,9.2,0,0,0,7.578-2.129,14.714,14.714,0,0,1-3.5-9.251Z"/>
            <path class="cls-8" d="M240.188,44.482c-3.184-9.449-7.409-12.4-3.516-6.719l-2.147.122a14.7,14.7,0,0,0,3.513,9.248A11.812,11.812,0,0,0,240.188,44.482Z"/>
            <path class="cls-8" d="M233.028,34.751l-3.165-.174a34.349,34.349,0,0,1-5.041,1.224,36.34,36.34,0,0,1-5.129.417,34.632,34.632,0,0,1-9.859-1.291c-2.423.871-4.588,1-6.248-.341-.381-.338-.763-.638-1.145-.931-6.5.193-13.083,3.161-20.318,2.579-1.87.048-2.876-2.976-3.809-2.955a50.492,50.492,0,0,0-11.152,4.278c-2.8,1.058-5.678-2.945-8.486-2.9-12.21-1.828-24.426-2.7-36.67-3.54-1.883.028-4.694,1.082-6.577,1.11-8.488-.888-14.123,1.241-22.589,2.436C82.493,35.918,72.918,32.116,61.57,33.6c-2.8,1.139-7.716-2.745-10.53-1.568a63.283,63.283,0,0,1-13.117,1.976c-4.159.276-8.216.292-12.5.576-1.905.131-3.727,1.314-5.63,1.464-3.148.826-6.077.679-9.018.826l.308,3.44c-.055.546-.095,1.09-.126,1.636,5.53-1.325,11.23-.574,16.727-2.442,10.295-2.747,20.028,1.771,30.264-1.705,2.79-1.13,5.511-4.281,6.5-3.31a29.331,29.331,0,0,0,10.128,1.93c3.431.15,6.976.018,10.759.447,2.857.942,1.1,6.046,2.981,6,16.443-.91,32.879-2.894,49.307-3.738s32.819-.574,49.332,3.048c3.78.9,6.451-4.2,11.156-3.354,1.906.945,3.849,2.9,4.785,2.871,2.7.065,5.478.112,8.247.029a74.853,74.853,0,0,0,8.209-.7,31.635,31.635,0,0,0,14.41-5.35C233.317,35.091,233.028,34.751,233.028,34.751Z"/>
            <path class="cls-5" d="M117.178,57.605c4.107-.013,8.323.047,12.708.23.273,0,.933.018,1.855.052C126.906,57.486,121.912,56.959,117.178,57.605Z"/>
            <path class="cls-5" d="M138.863,58.211l12.918.6a21.279,21.279,0,0,0-10.172-2.651S139.819,58.134,138.863,58.211Z"/>
            <g>
              <path class="cls-9" d="M216.884,61.867a90.215,90.215,0,0,0,10.347-1.831,88.368,88.368,0,0,0,10.485-3.279,38.53,38.53,0,0,0-10.59,1.419A68.615,68.615,0,0,0,216.884,61.867Z"/>
              <path class="cls-5" d="M237.243,47.5c-8.851,5.022-19.558,5.92-32.1,4.246-12.341-2.552-30.095,4.919-44.324-.93-4.122-1.689-11.7,3.561-18.61,1.671-1.327.93-2.605,2.561-2.932-.034-9.006.505-18.495-.216-27.3-.946-18.8-1.724-37.476.723-56.255-.446-13.885-.238-29.408-2.463-44.231-.615,1.148,5.727,3.988,9.82,8.807,9.426,19.288,1.59,35.366.743,51.656-.378a59.978,59.978,0,0,1,18.1-1.881,72.982,72.982,0,0,0-9.252,1.6c7.394-.443,14.814-.967,22.555-1.275l-.684-.1c1.852-.045,3.712-.085,5.613-.1,4.727-.66,9.724-.124,14.55.263l7.116.322c.954-.077,9.754-1.01,12.9.6.969.036,1.657.058,1.935.054,8.577.429,16.77,1.333,24.761,2.176a38.713,38.713,0,0,1,14.127.344c6.68,1.858,16.781.822,16.96,1.291q3.6-.16,7.224-.558a71.466,71.466,0,0,1,10.257-3.644,40.36,40.36,0,0,1,10.59-1.326q2.734-1.044,5.49-2.306c3.33-1.532,4.655-3.821,4.859-6.312A9.586,9.586,0,0,1,237.243,47.5Z"/>
            </g>
          </g>
        </g>
        <g class="cls-10">
          <g class="cls-10">
            <path class="cls-11" d="M215.577,12.4c-.146-.988-1-1.449-.726-2.613l2.751.034C217.684,11.256,217.137,13.224,215.577,12.4Z"/>
            <path class="cls-11" d="M202.974,39.356c-1.269.075-2.468.24-3.735.4a22.863,22.863,0,0,0-2.4-.474c-.212-.006-.424-.008-.635-.01-1.129-.193-2.258-.3-3.387-.491-.777-.006-1.62-.017-2.4-.026-.071-.09-.214-.273-.356-.452a20.861,20.861,0,0,1-2.323.419,7.02,7.02,0,0,1-.71-.817,16.455,16.455,0,0,0-1.33,1.242c-.775-.007-1.622-.019-2.4-.031,0,.092,0,.274,0,.452-1.9.067-3.807.224-5.709.379-3.172-.215-6.347-.434-9.52-.561,0-.449-.009-.9-.012-1.345-.635-.01-1.34-.017-2.045-.025,0,.448.008.9.012,1.346-1.76.069-3.593.228-5.355.384-.7-.006-1.41-.014-2.043-.024-1.916-1.638-1.41.073-2.044-.025-.779-.456-1.56-.915-2.409-1.374-.282-.005-.635-.006-.987-.012-.708-.275-1.343-.553-2.051-.833-4.231.13-6.843-.527-10.507-.573-2.256.332-6.828,1.267-8.4-1.445-1.469,1.24-3.025.772-4.433.843.059-1.345-1.063-.73-1.7-1.277-.423,0-.916-.008-1.339-.014-.7-.009-1.341-.017-2.044-.023-.636-.01-1.34-.017-2.045-.023q-3.383-.045-6.768-.084a21.255,21.255,0,0,0-2.33-.476,22.743,22.743,0,0,0-2.395.418c-.774.085-1.547.253-2.321.333-.845.349-1.617.611-2.391.871-.141,0-.212,0-.354-.006-.984.079-2.041.244-3.027.412-1.127.075-2.253.244-3.379.411a16.894,16.894,0,0,0-2.05-.475c-.833,1.6-2.316,1.141-3.377.766-1.9.16-3.8.317-5.7.383-.7.529-1.4,1.15-2.031,1.683a15.225,15.225,0,0,1-.368-1.71c-1.831.158-3.591.225-5.426.381.009.9.016,1.711.023,2.608-1.332.7-1.672,2.134-2.021,2.578-.775.08-1.55.251-2.325.331-2.542-.66-3.959-1.4-4.723-.058-1.617.342-3.168.59-4.787.841-2.335-1.016-3.744-.851-3.662.406-.492-.005-.915-.01-1.41-.017-1.127-.013-2.256-.024-3.384-.04-2.051-1.012-2.393.422-2.672.778l-2.68-.035c-1.128-.012-2.325-.024-3.383-.04-1.906-.381-1.545.7-2.743.867-.636-.278-1.343-.554-2.051-.922-.212,0-.424-.006-.635-.009-.62,1.7-1.963,1.145-2.742.865l-.635-.008c-.409,1.614-1.47,1.15-2.036.875-.207.534-.414,1.072-.692,1.7-.919-.371-1.767-.649-2.686-.932-.7-.006-1.34-.016-2.044-.023-.207.537-.413,1.164-.622,1.7-.7-.28-1.412-.558-2.05-.834-1.271-.194-2.469-.389-3.741-.493-.148-.99-.227-2.067-.377-3.058a19.2,19.2,0,0,0,1.682-1.234c.141,0,.211,0,.352,0,.219.9.437,1.709.727,2.61l1.974.022c.908-.975,2.04-.514,2.738-1.313a15.047,15.047,0,0,0,2.052.92c.774-.167,1.549-.247,2.324-.419.421-.265.91-.528,1.332-.792.617-2.147,1.608-1.6,2.382-1.767,0-.359-.007-.806-.011-1.259.212.006.424.006.7.012.99.1,1.977.292,3.036.484,1.414.376,1.892-1.234,2.309-2.127a20.745,20.745,0,0,1,2.041-.427,8.337,8.337,0,0,1,1.343.466c.28-.359.488-.622.7-.89,2.046.3,4.094.587,6.069.972.49-.621.908-1.155,1.4-1.688.849.278,1.767.557,2.686.839.915-.079,1.76-.247,2.675-.417.353.006.705.007,1.057.012l-.006-.809c.987.1,2.047.3,3.033.487,0,.269,0,.54.01.806,1.977.563,1.894-.873,3.019-1.218a22.271,22.271,0,0,1,2.393-.423c-.652-2.252-2.347-2.719-3.041-1.293-.28,0-.494,0-.7-.007-.71-.638-1.348-1.183-2.06-1.818,2.372-3.117,4.437-.669,6.4-2.081,2.185.207,2.436-3.739,4.779-1.647,1.911.919,3.108.663,3.377-.769,1.972-.153,4.015-.311,6.061-.376.506,1.533,1.2.2,2.047.472,3.709-3.278,7.41,1.164,11.122-2.022,1.7,1.277,2.537.12,4.085-.4,1.127.1,2.256.3,3.389.489,1.738-2.761,3.679,1.661,6.064.434,1.059.19,2.048.383,3.036.483,1.406-.251,3.436-2.021,3.732-.405,1.269-.162,1.638,2.176,3.4,1.387,1.895-1.144,4.58-.127,5.766-1.635,2.411,1.554,6.829-1.356,9.455.921,1.962-1.591,5.424-.475,8.1-.714l1.692.022c-.062.985.854.817,1.347.824.491-.086,1.13.372,1.405-.432-.076-.722.916-.258,1.984,1.369,0,.091,0,.269.006.448-.56.534-1.05,1.067-1.678,1.687.927,1.265,1.631,1.276,2.414,2.184.138-.449.2-.9.34-1.343a20.241,20.241,0,0,0,1.686-1.236c.423.542.923,1.179,1.352,1.719,1.768,1.01.831-1.694,2.025-2.129.994.729,2.056,1.46,3.05,2.189,2.25-.6,4.1,1.4,6.063.076.288.719.506,1.442.722,2.161a16.383,16.383,0,0,0,2.043-.425c1.129.191,2.257.386,3.386.489.624-1.338,2.592-1.853,2.679.031,1.128.013,2.256.03,3.385.042.7-.709,1.327-1.42,2.026-2.13a1.6,1.6,0,0,1,2.025-2.131c.217.54.435,1.173.65,1.713.491-.265.911-.528,1.4-.792.426.454.923.82,1.35,1.275l1.34.017c.706.007,1.339.013,2.044.024a6.08,6.08,0,0,0,2.669-1.227c-.006-.627-.011-1.167-.015-1.708.49-.619.907-1.154,1.326-1.778,1.83-.335,3.177.667,4.8.956,2.265.923,1.437,3.068,1.729,4.332.563,0,1.128.011,1.693.017.289.9.646,1.713,1.008,2.615C205.863,39.391,204.313,39.46,202.974,39.356Z"/>
            <path class="cls-11" d="M192.827,6.024c-1.331,1.061-2.04.692-2.682-.393C191.263,4.567,192.807,3.6,192.827,6.024Z"/>
            <path class="cls-12" d="M186.142,15.906c-.279.443-.628.8-.977,1.247-2.685-.662-4.925,1.285-7.755-.095-1.031,3.039.947,3.511.325,5.211-.341,1.342-1.266.344-1.964,1.234,0,.178,0,.268,0,.449a11.677,11.677,0,0,0-.672,3.85c-.775.262-1.548.52-2.39.869-.642-.9-1.354-1.719-2-2.627.335-2.06,1.966-.781,1.952-2.578.491-.264.912-.528,1.4-.792-2.275-2.182-4.314-1.665-6.148-1.869-.429-.541-.926-1.177-1.353-1.718a16.375,16.375,0,0,1,.689-1.7c.422-.172.916-.259,1.336-.43,1.341-.075,2.678-.239,4.014-.4.635-.082,1.129-.254,1.692-.339.271-.892.477-1.789.682-2.6.7-.439,1.331-.88,2.032-1.322.781.368,1.557.645,2.335.925,1.132.373,1.829-.516,2.742-.864.212,0,.423,0,.634.009,1.13.37,2.332.656,3.393.939C186.129,14.2,186.135,15.01,186.142,15.906Z"/>
            <path class="cls-13" d="M205.063,10.923c-1.547.43-3.094.866-4.712,1.291-1.267.257-2.464.509-3.731.765-.211,0-.422,0-.632-.008-.36-.812-.721-1.713-1.081-2.617-1.554-.379-.759,1.966-1.67,2.586-1.2.161-2.464.24-3.733.4-.567-.186-1.059-.282-1.7-.468-.287-.81-.648-1.712-1.009-2.614-1.621-.109-3.527-.223-4.071,2.106-.211-.006-.422,0-.634-.009-.913.348-1.61,1.237-2.742.864-.778-.28-1.554-.557-2.335-.925-.7.442-1.331.883-2.032,1.322-.776-.006-1.552-.019-2.4-.027a3.149,3.149,0,0,0,.022,2.961c-1.336.165-2.673.329-4.014.4-.013-1.441-.023-2.872-.036-4.313-2.632-2.993-5.706.382-9.174-1.365-3.678-1.478-6.689,1-9.807-1.012,5.273-1.551,10.639-.414,14.5-1.986,0,.184,0,.272,0,.45,2.394-.51,5.014.959,7.83.543,1.545-.609,2.877-1.58,3.387.489.563.008,1.128.013,1.691.023a2.829,2.829,0,0,1,.632-.445,20.25,20.25,0,0,1,2.4.48c-.009-.81-.013-1.436-.018-2.159a6.181,6.181,0,0,0,3.013-2.114c2.4.026,4.723.055,7.12.084.642,1.085,1.351,1.454,2.682.393,4.8.773,9.53,1.547,14.259,2.322C206.388,9.234,205.762,10.125,205.063,10.923Z"/>
            <path class="cls-14" d="M183.025,5.547a6.181,6.181,0,0,1-3.013,2.114c0,.723.009,1.349.018,2.159a20.25,20.25,0,0,0-2.4-.48,2.829,2.829,0,0,0-.632.445c-.563-.01-1.128-.015-1.691-.023-.51-2.069-1.842-1.1-3.387-.489-2.816.416-5.436-1.053-7.83-.543,0-.178,0-.266,0-.45-3.864,1.572-9.23.435-14.5,1.986,3.118,2.009,6.129-.466,9.807,1.012,3.468,1.747,6.542-1.628,9.174,1.365.013,1.441.023,2.872.036,4.313-.42.171-.914.258-1.336.43a21.259,21.259,0,0,0-1.7-1.276c-1.059-.193-.341,1.253-1.042,1.694-.917-.011-1.762-.022-2.678-.035l-5.783-.066c-.98.708-2.464.24-3.732.4a19.908,19.908,0,0,0-1.981-.919c-1.774-1.278-2.551-1.467-3.109-.935-.637-.366-1.347-.823-1.985-1.281a11.833,11.833,0,0,0-1.4.884,24.9,24.9,0,0,0-2.334-.93c-.912.442-1.826.878-2.739,1.227-.847-.1-1.764-.293-2.681-.391l-1.692-.019c-1.01-2.618-1.261,1.242-3.384-.041a3.955,3.955,0,0,1-.347.8c-1.257,1.6-3.026.5-4.011.848-.71-.458-1.348-.914-2.055-1.371-.7-.1-1.342-.285-2.048-.383-.985.26-2.041.516-3.025.771-.14,0-.211,0-.351,0-1.27-.1-2.47-.3-3.741-.494-2.259-.208-2.389,1.048-3.65,1.751-1.983-.921-2.327.244-3.1.324a6.748,6.748,0,0,0-3.039-.845c-1.55-.018-3.172-.036-4.722-.057-.419.444-.765,1.249-1.331,1.243-.282-.006-.493-.006-.7-.011a20.394,20.394,0,0,1-2.05-.472c-.847-.369-2.477-1.465-3.667-.4-1.412-.2-2.753-.393-4.093-.5-1.476.61-2.534.688-4.078,1.206-.986.261-1.969.515-3.025.864-3.249-.759-3.941.758-6.056.734q-1.684.654-3.373,1.307c-1.055.254-2.04.515-3.025.771-.427-.451-1.265.255-2.044-.025-4.1-1.214-6.207-.521-8.1.8-1.124.258-2.321.51-3.375.859L53.96,23.4c-1.843-1.1-2.049-.383-2.75-.032,0,.268,0,.539.007.808-.988-.013-1.976-.024-3.033-.036-.07.179-.21.266-.348.444-.637-.186-1.343-.285-1.978-.472a5.8,5.8,0,0,0-.7.441,22.351,22.351,0,0,0-2.392.419,8.3,8.3,0,0,0-1.345-.466c-.633.085-1.335.257-2.04.423-1.341-.012-2.679-.029-4.018-.044,1.754-1.059,2.794-3.018,4.007-1.3.7-.081,1.408-.253,2.041-.333a4.429,4.429,0,0,1,4.086-.4q.308-1.074.617-2.148l1.408.018c.2-2.061,1.186-1.6,1.963-1.682a12.645,12.645,0,0,0,.692-1.339c.775-.263,1.546-.52,2.39-.779.64.546,1.075,2.075,1.989,1.729.2-1.974-.685-6.024,2-5.633,2.681.482,5.491-.74,8.459.1.838-.977,1.392-2.136,3.018-1.668-.061,1.077.853.907,1.417.914,1.622-.07,1.893-1.322,3.658-.856a6.515,6.515,0,0,1,.711.459c1.044-1.333.9-1.874,1.672-2.134-1.631-1.185-1.835-.381-2.4-.478-.209,0-.424,0-.634-.008-.707-.276-1.343-.551-2.051-.831.7.009,1.34.015,2.044.022.2-1.074.407-2.058.611-3.043.352,0,.7.009,1.056.012a18.354,18.354,0,0,1,4.041,2.653c.281,0,.492.006.7.008.7-.621,1.33-1.15,2.03-1.684.214.094.425.277.638.368.562-.263,1.124-.523,1.684-.786.706.007,1.411.016,2.046.024.138-.179.208-.357.35-.447.7.01,1.338.017,2.044.028a16.13,16.13,0,0,1,1.7.915c.006.81.014,1.707.021,2.515a7.907,7.907,0,0,0,.64.905c.143,0,.283,0,.355,0,1.118-.884,2.241-1.676,3.36-2.561a4.116,4.116,0,0,0-.358-.815c1.411.109,2.752.305,4.092.409a23.789,23.789,0,0,0,2.035-1.233c1.2.286,2.471.568,3.743.943,2.528-1.135,4.357-1.654,5.707-.381,1.271.108,2.469.3,3.742.493.349,0,.7.007.985.013a8.116,8.116,0,0,1,1.408-.431c.565.275,1.061.549,1.7.827a6.483,6.483,0,0,0,1.32-2.141c.99.195,2.049.387,3.038.486,3.45-.229,6.974-.453,10.5-.682,1.126-.165,1.82-1.595,3.017-1.76.211,0,.423.005.705.009.638.457,1.347.915,1.984,1.37l4.723.054c1.055-.165,2.043-.334,3.1-.409l1.34.013c8.459.192,16.921.473,25.383.752,1.851,2.265,1.484.467,2.044.025,1.977.293,4.023.586,6.07.88C180.981,5.789,182.037,5.623,183.025,5.547Z"/>
            <path class="cls-11" d="M174.3,16.213c-.563.085-1.057.257-1.692.339a3.149,3.149,0,0,1-.022-2.961c.844.008,1.62.021,2.4.027C174.78,14.424,174.574,15.321,174.3,16.213Z"/>
            <path class="cls-15" d="M195.1,33.247a6.08,6.08,0,0,1-2.669,1.227c-.7-.011-1.338-.017-2.044-.024l-1.34-.017a9.226,9.226,0,0,0-.345.891c-.358-.72-.716-1.443-1.005-2.166-.492.264-.912.527-1.4.792-.215-.54-.433-1.173-.65-1.713a1.6,1.6,0,0,0-2.025,2.131c-.7.71-1.327,1.421-2.026,2.13-1.129-.012-2.257-.029-3.385-.042-.087-1.884-2.055-1.369-2.679-.031-1.129-.1-2.257-.3-3.386-.489a16.383,16.383,0,0,1-2.043.425c-.216-.719-.434-1.442-.722-2.161-1.963,1.323-3.813-.674-6.063-.076-.994-.729-2.056-1.46-3.05-2.189-1.194.435-.257,3.139-2.025,2.129-.429-.54-.929-1.177-1.352-1.719a20.241,20.241,0,0,1-1.686,1.236c-.136.447-.2.894-.34,1.343a6.4,6.4,0,0,0-.7.438c-.573-.9-1.074-1.806-1.714-2.622.628-.713,1.115-1.425,1.672-2.135-1.068-1.627-2.06-2.091-1.984-1.369-.275.8-.914.346-1.405.432-.493-.007-1.409.161-1.347-.824l-1.692-.022c-2.677.239-6.139-.877-8.1.714-2.626-2.277-7.044.633-9.455-.921-1.186,1.508-3.871.491-5.766,1.635-1.757.789-2.126-1.549-3.4-1.387-.3-1.616-2.326.154-3.732.405-.988-.1-1.977-.293-3.036-.483-2.385,1.227-4.326-3.195-6.064-.434-1.133-.191-2.262-.386-3.389-.489-1.548.521-2.382,1.678-4.085.4-3.712,3.186-7.413-1.256-11.122,2.022C88.7,30.008,88,31.346,87.5,29.813c-2.046.065-4.089.223-6.061.376-.269,1.432-1.466,1.688-3.377.769-2.343-2.092-2.594,1.854-4.779,1.647-1.962,1.412-4.027-1.036-6.4,2.081.712.635,1.35,1.18,2.06,1.818.211.005.425.005.7.007.694-1.426,2.389-.959,3.041,1.293a22.271,22.271,0,0,0-2.393.423c-.983.436-2.035.782-3.019,1.218-.005-.266-.006-.537-.01-.806-.986-.192-2.046-.384-3.033-.487l.006.809c-.352,0-.7-.006-1.057-.012a15.612,15.612,0,0,1-1.971.424c-.283,0-.494-.007-.7-.007-.919-.282-1.837-.561-2.686-.839a11.623,11.623,0,0,0-.691,1.7c-.212,0-.423,0-.706-.007-1.975-.385-4.023-.675-6.069-.972-.21.268-.418.531-.7.89a8.337,8.337,0,0,0-1.343-.466c-.005-.449-.007-.9-.01-1.253-.428-.633-.925-1.179-1.356-1.816.349-.533.7-1.154.975-1.689,2.035-.875,4.061-3.277,6.1-3.789.79,1.626,1.838.559,3.746.944,0-.36-.005-.631-.007-.9,1.76-.249,3.591-.495,5.351-.834,1.2.643.835-1.159,1.4-1.688l1.692.019a45.356,45.356,0,0,0,4.347-2.553c7.9.542,14.237-.548,21.628-1.9,1.9-.159,1.991,2.179,4.724.056.773-.081,1.619-.248,2.393-.331,2.827,1.022,4.515.5,5.795,1.775,1.9-.607,1.321-2.228,1.956-2.13.5.005.916.01,1.41.017,1.91.83,2.325-.244,3.028-.413,1.911,1.009,2.114-.157,2.681.031.139,0,.21.006.352,0,1.338.016,2.677.031,4.087.049.283,0,.635.007.987.012.991.46,2.052.921,3.044,1.294,1.338-.076,2.746-.237,4.084-.31.564,0,1.128.012,1.694.019,0,.087,0,.27,0,.358,3.534,1.029,8.318.007,11.147,1.032,1.753-1.148,3.947-.135,5.425-.384.508,1.62,1.767.556,2.69,1.375.707.1,1.341.288,2.048.386,2.258.386,5.21-.658,6.778,1.427,1.123-.615,2.246-1.141,3.37-1.663.217.36.431.809.716,1.262.986.012,1.341.014,1.693.019.074.54-.27,1.435.295,1.71,1.692-.159,2.249-.962,3.362-2.565.708.37,1.415.646,2.052.924.564-.171,1.127-.256,1.688-.43.348-.532.7-1.158,1.045-1.693.641.908,1.353,1.724,2,2.627.842-.349,1.615-.607,2.39-.869a22.113,22.113,0,0,0,2.392-.421c.214,0,.423,0,.634.01.918.008,1.835.02,2.751.03.427.454.925.91,1.351,1.364,1.69-.157,3.37-1.574,5.075.059,1.552.109,3.176.31,4.728.507,1.2.1,1.917,1.638,3.048,2.188C195.086,32.08,195.091,32.62,195.1,33.247Z"/>
            <path class="cls-16" d="M172.67,23.466A14.354,14.354,0,0,1,170.975,23c-1.133-.552-1.263.883-1.679,1.775a16.393,16.393,0,0,0-1.978-.472c-.488.534-.906,1.158-1.4,1.691,0,.449.007.9.01,1.254-1.113,1.6-1.67,2.406-3.362,2.565-.565-.275-.221-1.17-.295-1.71-.352,0-.707-.007-1.693-.019-.285-.453-.5-.9-.716-1.262-1.124.522-2.247,1.048-3.37,1.663-1.568-2.085-4.52-1.041-6.778-1.427-.707-.1-1.341-.284-2.048-.386-.923-.819-2.182.245-2.69-1.375-1.478.249-3.672-.764-5.425.384-2.829-1.025-7.613,0-11.147-1.032,0-.088,0-.271,0-.358-.566-.007-1.13-.016-1.694-.019-1.338.073-2.746.234-4.084.31-.992-.373-2.053-.834-3.044-1.294-.352-.005-.7-.011-.987-.012-1.41-.018-2.749-.033-4.087-.049-.142,0-.213,0-.352,0-.567-.188-.77.978-2.681-.031-.7.169-1.118,1.243-3.028.413-.494-.007-.915-.012-1.41-.017-.635-.1-.058,1.523-1.956,2.13-1.28-1.271-2.968-.753-5.795-1.775-.774.083-1.62.25-2.393.331-2.733,2.123-2.822-.215-4.724-.056-7.391,1.348-13.726,2.438-21.628,1.9A45.356,45.356,0,0,1,66.2,28.662l-1.692-.019c-.56.529-.191,2.331-1.4,1.688-1.76.339-3.591.585-5.351.834,0,.268,0,.539.007.9-1.908-.385-2.956.682-3.746-.944-2.038.512-4.064,2.914-6.1,3.789-.278.535-.626,1.156-.975,1.689.431.637.928,1.183,1.356,1.816,0,.357.005.8.01,1.253a20.745,20.745,0,0,0-2.041.427c-.417.893-.895,2.5-2.309,2.127-1.059-.192-2.046-.386-3.036-.484-.28-.006-.492-.006-.7-.012-.565-.184-1.131-.281-1.7-.466-2.11.694-3.789,2.021-6.4,2.077-1.831.16-3.664.227-5.425.387-.141,0-.211,0-.352,0,0-.449-.008-.9-.011-1.259a19.368,19.368,0,0,1,2.038-.871c0-.449,1.051-.706.691-1.7-2.535.418-3.054-2.639-5.09-1.766-.494.085-.914.259-1.408.343q-1.7-1.1-3.4-2.2l4.434-.755c3.028-.5,6.619-.908,9.451.559,1.765.381,1.954-2.4,3.366-2.112a28.379,28.379,0,0,1,6.1-3.428c.276-.717.622-1.429.969-2.148a23.576,23.576,0,0,0,2.393-.416c.071,0,.212,0,.282.006q1.383,1.092,2.767,2.184c.344-.984.619-1.967.963-2.953-.64-.454-1.347-.911-2.055-1.368-.006-.357-.008-.808-.011-1.257.138-.178.278-.265.348-.444,1.057.012,2.045.023,3.033.036.775.19,1.624.288,2.4.478A5.841,5.841,0,0,1,53.96,23.4L56,23.424c1.054-.349,2.251-.6,3.375-.859,1.9-1.322,4-2.015,8.1-.8.779.28,1.617-.426,2.044.025.985-.256,1.97-.517,3.025-.771,1.128.1,2.258.294,3.388.49,2.041-.424,4.01-.849,6.052-1.277.565.188,1.13.286,1.695.47.92.46,1.335-.7,2.037-.872,2.466-.062,4.933-.211,7.47-.273,1.9-.332,3.8-.578,5.7-.828,0-.18,0-.267,0-.45.211.005.422.005.7.011.638.278,1.345.552,2.054.921,1.337-.164,2.893.393,4.013-.4.213.271.427.542.713.907q1.158-.663,2.316-1.319c.565.185,1.13.282,1.695.466.489-.442.765-1.337,1.4-1.239.563.277,1.06.55,1.7.827.637.189,1.129-.166,1.688-.429,1.062.194,2.26.389,3.391.491.632.008,1.338.015,1.973.026,0-.274-.006-.54-.006-.81a19.209,19.209,0,0,1,2.039-.424c0,.088,0,.27,0,.448a16,16,0,0,1,2.042-.423c.7.006,1.339.013,2.043.022.985-.349,2.754.754,4.011-.848.78.459,1.628.914,2.407,1.374.841-.8,2.187.025,3.026-.865.426.546.926,1.182,1.353,1.724.49-.443.91-.794,1.33-1.241,1.058.1,2.046.294,3.105.487,0-.18,0-.359,0-.45.635.01,1.339.016,1.975.023,1.127.015,2.326.029,3.383.04,0,.272.006.54.006.81-1.888,1.771-3.438,1.753-5.341,1.733,0,.266,0,.536.006.8,3.041,1.294,5.57.07,6.781,1.428,2.75.482,7.2,1.074,10.147-.329l1.353,1.722c.351-.173.631-.263.985-.435.7.185,1.34.282,2.045.472,0-.54-.008-1.167-.012-1.707l2.371-3.021c-.358-.454-.712-.819-1.068-1.27.7-.441-.017-1.887,1.042-1.694a21.259,21.259,0,0,1,1.7,1.276,16.375,16.375,0,0,0-.689,1.7c.427.541.924,1.177,1.353,1.718,1.834.2,3.873-.313,6.148,1.869C173.582,22.938,173.161,23.2,172.67,23.466Z"/>
            <path class="cls-11" d="M169.673,27.737c-.561.174-1.124.259-1.688.43-.637-.278-1.344-.554-2.052-.924,0-.356-.006-.8-.01-1.254.489-.533.907-1.157,1.4-1.691a16.393,16.393,0,0,1,1.978.472,18.972,18.972,0,0,1,1.422,1.274C170.37,26.579,170.021,27.205,169.673,27.737Z"/>
            <path class="cls-11" d="M61.916,5.362a7.737,7.737,0,0,0-1.335.432c-1.342-.193-2.754-.389-4.094-.5,0-.449-.008-.9-.01-1.258L53.445,4a3.942,3.942,0,0,0-.712-.9,2.132,2.132,0,0,1,3.732-.407c.137-.446.2-.8.341-1.253,1.694.112,3.387.312,5.082.509,1.268.109,2.469.3,3.738.405.08.9.227,1.8.375,2.608C64.592,5.125,63.255,5.2,61.916,5.362Z"/>
            <path class="cls-13" d="M17.881,42.359c.6,3.867-4.794-.147-3.341,5.077.148.719.224,1.44.371,2.159.005.537.01,1.166.014,1.708-.7-.011-1.339-.019-2.045-.025-.205.625-.412,1.16-.618,1.785-.913.529-1.825,1.059-2.736,1.676a8.03,8.03,0,0,1-1.02-3.872,14.41,14.41,0,0,1,1.686-.881c-.15-.985-.3-2.065-.379-3.055,0-.089,0-.269,0-.36-.007-.809-.012-1.435-.017-2.153-.777-.008-1.622-.018-2.4-.03-.073-.448-.218-.9-.293-1.35-.291-1.17-.512-2.246-.733-3.417,1.127-.167,2.254-.335,3.381-.409l.352,0c.007.718.011,1.437.018,2.154a9.149,9.149,0,0,1,.994.912c.912-.618,1.824-1.146,2.734-1.763-.291-1.26-.513-2.521-.736-3.869,0-.092,0-.27,0-.449.064-.717.2-1.435.334-2.149-.355-.366-.712-.82-1.068-1.27-.077-.9-.226-1.71-.3-2.607,0-.092,0-.27,0-.448.631-.264,1.333-.524,1.967-.786,1.269-.074,1.777,1.816,2.069,2.988q.011,1.077.018,2.154c.144.448.219.9.363,1.35-.346.713-.692,1.428-.969,2.143.075.539.222,1.171.3,1.71-.067.266-.208.534-.274.892C16.319,40.9,17.1,41.542,17.881,42.359Z"/>
            <path class="cls-11" d="M13.97,55.24l-1.708-2.177c.206-.625.413-1.16.618-1.785.706.006,1.34.014,2.045.025a19.391,19.391,0,0,0,.72,1.8A21.916,21.916,0,0,0,13.97,55.24Z"/>
            <path class="cls-11" d="M1.944,33.106c.435,1.44.871,2.882,1.375,4.32,0,.274,0,.543.007.809a9.585,9.585,0,0,0-.341,1.346c.085,1.794.242,3.68.4,5.57.433,1.349,1.223,3.062.026,3.051-.354,0-.706-.009-1.059-.014-.008-.9-.014-1.705-.022-2.6C1.539,43.6-.307,42.144,1.65,40.01c-1.641-2.26-2.516-5.774-.41-6.917.338-1.609.679-3.131.947-4.743l1.058.011a8.181,8.181,0,0,1,.642.906C3.263,30.514,2.568,31.766,1.944,33.106Z"/>
            <path class="cls-12" d="M202.937,35.049c-.292-1.264.536-3.409-1.729-4.332,1.126-.167,2.255-.242,3.381-.409,1.136,1.092,1.656,4.237.041,4.758C204.065,35.06,203.5,35.053,202.937,35.049Z"/>
            <path class="cls-12" d="M205.077,12.629c-.2.9-.409,1.793-.613,2.6-3.5,2.829-1.639-1.994-4.095-.858-.566-.006-1.128-.013-1.693-.018-.709-.459-1.346-.914-2.056-1.371,1.267-.256,2.464-.508,3.731-.765,1.618-.425,3.165-.861,4.712-1.291C205.07,11.824,205.074,12.272,205.077,12.629Z"/>
            <path class="cls-12" d="M193.237,12.94c-.973,1.6.108,4.669-2.3,3.473-1-.821-.934-2.078-1.436-3.071C190.773,13.18,192.039,13.1,193.237,12.94Z"/>
            <path class="cls-12" d="M189.454,41.349a1.688,1.688,0,0,1-1.7-.919c-.7-.007-1.412-.017-2.045-.025a16.014,16.014,0,0,1-2.04.425,8.87,8.87,0,0,0-.362-1.26c0-.178,0-.36,0-.452.775.012,1.622.024,2.4.031a16.455,16.455,0,0,1,1.33-1.242,7.02,7.02,0,0,0,.71.817,20.861,20.861,0,0,0,2.323-.419c.142.179.285.362.356.452C190.076,39.65,189.729,40.454,189.454,41.349Z"/>
            <path class="cls-12" d="M187.889,22.392c-2.176,1.408-3.585,1.213-4.021-.049C185.973,21.111,187.169,20.857,187.889,22.392Z"/>
            <path class="cls-12" d="M180,5.869c-2.047-.294-4.093-.587-6.07-.88-.284-.363-.5-.633-.712-.9a10.558,10.558,0,0,0-1.332.878c-8.462-.279-16.924-.56-25.383-.752.2-.894.408-1.7.611-2.595,2.471.391,4.875,1.134,6.766-.366,2.333.926,4.287-1.388,6.757-1.18.147.723-.2,1.706.371,2.16,2.4.3,4.476-4.255,6.406-.821,1.054-.347,2.04-.784,3.092-1.22.778.28,1.557.557,2.335.926a8.163,8.163,0,0,1,.712.815c.777.19,1.552.289,2.329.479,1.271.1,3.225-2.3,3.741.494a3.054,3.054,0,0,1,2.036-.876c-.27,1.256.931,1.717,1.37,3.519C182.037,5.623,180.981,5.789,180,5.869Z"/>
            <path class="cls-12" d="M168.079,39.388c-.635-.007-1.339-.014-2.045-.024,0-.448-.007-.9-.012-1.346.705.008,1.41.015,2.045.025C168.07,38.491,168.075,38.939,168.079,39.388Z"/>
            <path class="cls-12" d="M160.679,39.748c-1.048,1.157-1.889,1.6-2.043-.024C159.269,39.734,159.975,39.742,160.679,39.748Z"/>
            <path class="cls-12" d="M153.2,38.313c-4.421,2.55-7.819.627-11.483.761-4.36,1.387-10.639.771-15.227.268-.358-.811-1.129-.37-1.7-.468-.138.089-.207.266-.347.445-7.111,1.081-13.615-.97-20.291,1.462-.57-.812-1.553-.375-2.33-.473-2.455,1.585-6.34.462-9.511.783-.974,1.693-3.593.135-5.065,1.2-3.668-.4-6.747,2.433-10.5.772.349-.444.689-1.879,2.021-2.578-.007-.9-.014-1.708-.023-2.608,1.835-.156,3.595-.223,5.426-.381a15.225,15.225,0,0,0,.368,1.71c.629-.533,1.33-1.154,2.031-1.683,1.9-.066,3.8-.223,5.7-.383,1.061.375,2.544.839,3.377-.766a16.894,16.894,0,0,1,2.05.475c1.126-.167,2.252-.336,3.379-.411.986-.168,2.043-.333,3.027-.412.142,0,.213.005.354.006.774-.26,1.546-.522,2.391-.871.774-.08,1.547-.248,2.321-.333a22.743,22.743,0,0,1,2.395-.418,21.255,21.255,0,0,1,2.33.476q3.382.036,6.768.084c.7.006,1.409.013,2.045.023.7.006,1.339.014,2.044.023.423.006.916.012,1.339.014.64.547,1.762-.068,1.7,1.277,1.408-.071,2.964.4,4.433-.843,1.575,2.712,6.147,1.777,8.4,1.445,3.664.046,6.276.7,10.507.573C151.853,37.76,152.488,38.038,153.2,38.313Z"/>
            <path class="cls-12" d="M142.059,4.608l-4.723-.054c-.637-.455-1.346-.913-1.984-1.37.615-2.238,2.675-.239,3.295-2.116.837-1.155,2.329.386,3.391.938l2.4.027c-.136.629.43.9.724,2.166C144.1,4.274,143.114,4.443,142.059,4.608Z"/>
            <path class="cls-12" d="M121.133,5.617c-.989-.1-2.048-.291-3.038-.486q-.529-.406-1.062-.82c-1.686.79-.969,2.324-1.955,2.134a8.116,8.116,0,0,0-1.408.431c-.28-.006-.636-.01-.985-.013-1.273-.194-2.471-.385-3.742-.493-1.35-1.273-3.179-.754-5.707.381-1.272-.375-2.543-.657-3.743-.943a23.789,23.789,0,0,1-2.035,1.233c-1.34-.1-2.681-.3-4.092-.409q-2.01-.019-4.018-.047a16.13,16.13,0,0,0-1.7-.915c-.706-.011-1.34-.018-2.044-.028-.142.09-.212.268-.35.447-.635-.008-1.34-.017-2.046-.024-.642-.908-1.353-1.723-2-2.627-.848-.372-1.19.884-2.04.425q-1.374-.018-2.748-.034c-.637-.007-1.341-.017-1.976-.022a14.793,14.793,0,0,0-.338,1.7c-.353,0-.7-.007-1.056-.012-.992-.279-1.98-.563-3.041-.933-1.267.164-2.465.328-3.733.405-.07,0-.21,0-.281,0-.148-.811-.3-1.709-.375-2.608C66.259,2,66.96,1.562,67.661,1.12a3.266,3.266,0,0,1,1.979.471c.771-.345,1.615-.607,2.388-.866.7-.8,1.761-.248,2.676-.418l2.044.024c2.824.395,5.644.7,8.468,1a6.086,6.086,0,0,1,.7-.441c1.131.283,2.259.564,3.392.938.423.007.916.012,1.339.016,1.774,1.277,2.48,1.377,3.038.842.564-.081,1.126-.253,1.688-.337,1.486.645.409-1.971,1.678-1.775.429.633.927,1.178,1.354,1.809,1.058.015,2.977,2.013,3.1-.41a3.278,3.278,0,0,0,3.384.042c1.274.553,1.481.195,3.023-.863.231,2.247.653,2.161,1.7.467,2.55,1.466,5.366.963,7.406.536.988.283,2.476.931,2.746-.412,2.749-.149,4.515.411,7.117-.365C126.083-.88,128.631.231,129.2.6c1.221,2.616,4.02.134,5.451,2.577-1.2.165-1.891,1.595-3.017,1.76C128.107,5.164,124.583,5.388,121.133,5.617Z"/>
            <path class="cls-12" d="M74.426,43.392c-1.4.971-3.865,1.39-4.723-.058C70.467,42,71.884,42.732,74.426,43.392Z"/>
            <path class="cls-12" d="M64.916,44.175a3.014,3.014,0,0,1-3.662.406C61.172,43.324,62.581,43.159,64.916,44.175Z"/>
            <path class="cls-12" d="M59.844,44.564c-1.33,1.24-2.315,1.228-3.377.769-.916-.013-1.764-.023-2.679-.031.279-.356.621-1.79,2.672-.778C57.588,44.54,58.717,44.551,59.844,44.564Z"/>
            <path class="cls-12" d="M51.108,45.267c-1.4,1.331-2.384,1.319-3.376.859-.914.256-1.828.518-2.742.864-.984.257-2.039.515-3.026.773-2.043-.114-3.086,1.76-5.766,1.635a29.682,29.682,0,0,1-3.024.861c-.844.084-1.416-.732-2.335-.922.209-.536.415-1.163.622-1.7.7.007,1.34.017,2.044.023.919.283,1.767.561,2.686.932.278-.625.485-1.163.692-1.7.566.275,1.627.739,2.036-.875l.635.008c.779.28,2.122.833,2.742-.865.211,0,.423,0,.635.009.708.368,1.415.644,2.051.922,1.2-.167.837-1.248,2.743-.867C48.783,45.243,49.98,45.255,51.108,45.267Z"/>
            <path class="cls-12" d="M25.067,50.167c.028,3.322-2.382,1.675-3.722,1.659-1.114,1.693-3.66.764-3.711,3.008-1.2.255-1.2-.464-1.989-1.728a19.391,19.391,0,0,1-.72-1.8c1.478-.345,2.955-.775,4.361-1.208.351,0,.7.009,1.058.016.07,0,.211,0,.352,0,.28-.176.632-.262.983-.438C22.809,49.87,23.938,49.972,25.067,50.167Z"/>
            <path class="cls-12" d="M13.97,55.24c.221.99.582,2.161.019,2.155A4.791,4.791,0,0,1,12.6,59.889c-1.136-.91-1.434-2.708-3.071-4.7-.2.8-.408,1.7-.613,2.505-.307-2.877-3.254-1.387-3.409-3,0-.36,0-.631-.008-.9C4.857,52.706,3.93,51.528,3.43,50.8c-.007-.9-.014-1.794-.019-2.6,1.2.011.407-1.7-.026-3.051-.158-1.89-.315-3.776-.4-5.57a9.585,9.585,0,0,1,.341-1.346c.992.464,2.053.925,3.043,1.386.221,1.171.442,2.247.733,3.417.075.45.22.9.293,1.35.36.815.72,1.716,1.079,2.528.011,1.344.021,2.6.032,3.951a8.03,8.03,0,0,0,1.02,3.872c.911-.617,1.823-1.147,2.736-1.676Z"/>
            <path class="cls-12" d="M3.81,20.2c-.341,1.253-.688,1.97-1.323,1.693-1.346-.827-1.428-2.084-1.369-3.429.768-.89,1.972-.334,2.682.393C3.805,19.571,3.808,19.842,3.81,20.2Z"/>
            <path class="cls-15" d="M195.988,12.971c-.628.981-2.669,1.4-2.751-.031.911-.62.116-2.965,1.67-2.586C195.267,11.258,195.628,12.159,195.988,12.971Z"/>
            <path class="cls-15" d="M187.808,12.874c-.2,1.253-1.192.7-1.687.431-1.061-.283-2.263-.569-3.393-.939.544-2.329,2.45-2.215,4.071-2.106C187.16,11.162,187.521,12.064,187.808,12.874Z"/>
            <path class="cls-15" d="M40.927,41.737c.99.1,1.977.292,3.036.484,1.414.376,1.892-1.234,2.309-2.127-.417.893-.895,2.5-2.309,2.127C42.9,42.029,41.917,41.835,40.927,41.737Z"/>
            <path class="cls-15" d="M40.234,42.984c-.774.171-1.765-.38-2.382,1.767-.422.264-.911.527-1.332.792-.775.172-1.55.252-2.324.419a15.047,15.047,0,0,1-2.052-.92c-.7.8-1.83.338-2.738,1.313l-2.326-.028a3.739,3.739,0,0,0-.727-2.609c.141,0,.211,0,.352,0,1.761-.16,3.594-.227,5.425-.387,2.609-.056,4.288-1.383,6.4-2.077.564.185,1.13.282,1.7.466C40.227,42.178,40.231,42.625,40.234,42.984Z"/>
            <path class="cls-15" d="M14.925,51.3c0-.542-.009-1.171-.014-1.708.913-.436,1.756-.786,2.669-1.226.912-.525,1.134.821,1.706,1.726C17.88,50.528,16.4,50.958,14.925,51.3Z"/>
            <path class="cls-13" d="M214.218,9.777c-1.176,2.769-3.586,1.216-5.414,1.64-.08-.987-.229-2.067-.379-3.058C210.4,8.833,212.309,9.306,214.218,9.777Z"/>
            <path class="cls-13" d="M173.926,4.989c-.56.442-.193,2.24-2.044-.025a10.558,10.558,0,0,1,1.332-.878C173.427,4.356,173.642,4.626,173.926,4.989Z"/>
            <path class="cls-13" d="M165.584,19.074,163.213,22.1c0,.54.008,1.167.012,1.707-.7-.19-1.34-.287-2.045-.472-.354.172-.634.262-.985.435l-1.353-1.722c-2.95,1.4-7.4.811-10.147.329-1.211-1.358-3.74-.134-6.781-1.428,0-.269,0-.539-.006-.8,1.9.02,3.453.038,5.341-1.733,0-.27,0-.538-.006-.81-1.057-.011-2.256-.025-3.383-.04-.636-.007-1.34-.013-1.975-.023,0,.091,0,.27,0,.45-1.059-.193-2.047-.384-3.105-.487-.42.447-.84.8-1.33,1.241-.427-.542-.927-1.178-1.353-1.724-.839.89-2.185.067-3.026.865-.779-.46-1.627-.915-2.407-1.374a3.955,3.955,0,0,0,.347-.8c2.123,1.283,2.374-2.577,3.384.041l1.692.019c.917.1,1.834.288,2.681.391.913-.349,1.827-.785,2.739-1.227a24.9,24.9,0,0,1,2.334.93,11.833,11.833,0,0,1,1.4-.884c.638.458,1.348.915,1.985,1.281.558-.532,1.335-.343,3.109.935a15.4,15.4,0,0,1-1.047,1.244c1.985,1.368,2.251-.424,3.028-.325,1.268-.162,2.752.306,3.732-.4l5.783.066c.916.013,1.761.024,2.678.035C164.872,18.255,165.226,18.62,165.584,19.074Z"/>
            <path class="cls-13" d="M124.614,17.33a16,16,0,0,0-2.042.423c0-.178,0-.36,0-.448a19.209,19.209,0,0,0-2.039.424c0,.27,0,.536.006.81-.635-.011-1.341-.018-1.973-.026-1.131-.1-2.329-.3-3.391-.491-.559.263-1.051.618-1.688.429-.636-.277-1.133-.55-1.7-.827,1.261-.7,1.391-1.959,3.65-1.751,1.271.194,2.471.39,3.741.494.14,0,.211,0,.351,0,.984-.255,2.04-.511,3.025-.771.706.1,1.343.288,2.048.383.707.457,1.345.913,2.055,1.371C125.953,17.343,125.317,17.336,124.614,17.33Z"/>
            <path class="cls-13" d="M118.1,5.131a6.483,6.483,0,0,1-1.32,2.141c-.636-.278-1.132-.552-1.7-.827.986.19.269-1.344,1.955-2.134Q117.564,4.725,118.1,5.131Z"/>
            <path class="cls-13" d="M98.9,18.728c-1.9.25-3.8.5-5.7.828-2.537.062-5,.211-7.47.273-.7.171-1.117,1.332-2.037.872-.565-.184-1.13-.282-1.695-.47-2.042.428-4.011.853-6.052,1.277-1.13-.2-2.26-.386-3.388-.49q1.689-.653,3.373-1.307c2.115.024,2.807-1.493,6.056-.734,1.056-.349,2.039-.6,3.025-.864,1.544-.518,2.6-.6,4.078-1.206,1.34.1,2.681.3,4.093.5,1.19-1.062,2.82.034,3.667.4a20.394,20.394,0,0,0,2.05.472C98.892,18.461,98.894,18.548,98.9,18.728Z"/>
            <path class="cls-13" d="M81.525,6.851c-.213-.091-.424-.274-.638-.368-.7.534-1.328,1.063-2.03,1.684-.212,0-.423-.007-.7-.008a18.354,18.354,0,0,0-4.041-2.653,14.793,14.793,0,0,1,.338-1.7c.635,0,1.339.015,1.976.022q1.372.015,2.748.034c.85.459,1.192-.8,2.04-.425.642.9,1.353,1.719,2,2.627C82.649,6.328,82.087,6.588,81.525,6.851Z"/>
            <path class="cls-17" d="M73.815,11.966c-.213,0-.425,0-.708-.006,0-.182,0-.27,0-.453-1.765-.466-2.036.786-3.658.856-.564-.007-1.478.163-1.417-.914-1.626-.468-2.18.691-3.018,1.668-2.968-.84-5.778.382-8.459-.1-2.683-.391-1.8,3.659-2,5.633-.914.346-1.349-1.183-1.989-1.729-.844.259-1.615.516-2.39.779a12.645,12.645,0,0,1-.692,1.339c-.777.08-1.766-.379-1.963,1.682L46.112,20.7q-.309,1.076-.617,2.148a4.429,4.429,0,0,0-4.086.4c-.633.08-1.336.252-2.041.333-1.213-1.719-2.253.24-4.007,1.3-.282,0-.493-.008-.7-.009-.36-.9-.649-1.712-1.01-2.615-1.266.254-2.462.511-3.729.855-.7.529-1.329,1.057-2.029,1.681a19.531,19.531,0,0,0-2.04.424c0,.359.006.807.01,1.255a11.884,11.884,0,0,0-1.333.882c-.988-.012-2.044-.023-3.031-.036-.765,1.248-1.6,2.494-2.364,3.832-.283,0-.636-.006-.989-.012-.23-2.247-.651-2.16-1-2.166-.63.533-.268,1.7-.33,2.6-.277.714-.979,1.156-.7.352-.292-1.172-.8-3.062-2.069-2.988-.634.262-1.336.522-1.967.786a3.838,3.838,0,0,0-2.4-.839c-.775-.008-1.621-.017-2.4-.03-.007-.9-.014-1.705-.021-2.6a12.1,12.1,0,0,0,1.4-.881c-.157-1.974-.315-3.955-.4-6.018,0-.091,0-.268,0-.449.352,0,.634.008.986.013.141,0,.212,0,.353,0,1.129.191,2.259.384,3.388.487.211,0,.424.006.706.011.633.008,1.339.013,1.973.023.49-.442.763-1.338,1.4-1.238.423,0,.846.009,1.339.012.639.458,1.346.826,2.054,1.284,1.2-.077,2.683.388,4.016-.4-.218-.81-.437-1.712-.656-2.52-1.059-.193-2.048-.382-3.106-.487.767-1.155,2.463-.688,2.381-2.124,1.267-.166,2.463-.333,3.732-.406,2.249-.692,3.93-2.015,7.095-2.967-2.606.148-2.55-1.379-3.12-2.19a6.406,6.406,0,0,0,.694-1.25,21.283,21.283,0,0,1,2.053.924C33.521,7,33.513,6.011,33.5,5.024c.562-.174,1.126-.257,1.688-.428a9.422,9.422,0,0,0,.364,1.348c2.673-.775,3.264,2.643,5.083.87,0-.09,0-.267,0-.451l2.679.036c.914-.259,1.758-.521,2.672-.775.136-.718.271-1.435.335-2.153,1.621.018,3.173.035,4.722.054.505,1.177.936,2.258,1.44,3.431-.691,1.606-3.035-.394-3.085,2.116.5.455.924.909,1.422,1.364.7-.081,1.553.2,1.966-.873,3.381-.41,5.846-.831,8.8-1.152,1.341.013,2.749.031,4.089.048.565.1,1.13.282,1.694.379.987-.079,2.043-.245,3.029-.323.708.28,1.344.555,2.051.831.21.005.425.006.634.008.566.1.77-.707,2.4.478C74.715,10.092,74.859,10.633,73.815,11.966Z"/>
            <path class="cls-13" d="M72.445,8.537c-.7-.007-1.339-.013-2.044-.022-.986.078-2.042.244-3.029.323-.358-.723-.718-1.443-1.076-2.166-.205.622-.413,1.16-.618,1.787-1.34-.017-2.748-.035-4.089-.048-.361-.9-.649-1.8-1.008-2.617a7.737,7.737,0,0,1,1.335-.432c1.339-.161,2.676-.237,4.085-.4.071,0,.211,0,.281,0,1.268-.077,2.466-.241,3.733-.405,1.061.37,2.049.654,3.041.933C72.852,6.479,72.649,7.463,72.445,8.537Z"/>
            <path class="cls-13" d="M67.48,21.764c-4.1-1.214-6.207-.521-8.1.8C61.273,21.243,63.381,20.55,67.48,21.764Z"/>
            <path class="cls-14" d="M49.4,9.072c.05-2.51,2.394-.51,3.085-2.116-.5-1.173-.935-2.254-1.44-3.431a11.517,11.517,0,0,1,1.69-.425,3.942,3.942,0,0,1,.712.9c.006.718.01,1.35.019,2.152,1.7.471,1.889-1.591,3.023-.859,1.34.108,2.752.3,4.094.5.359.814.647,1.715,1.008,2.617-2.957.321-5.422.742-8.8,1.152-.413,1.07-1.263.792-1.966.873C50.322,9.981,49.9,9.527,49.4,9.072Z"/>
            <path class="cls-13" d="M56.487,5.3c-1.134-.732-1.327,1.33-3.023.859-.009-.8-.013-1.434-.019-2.152l3.032.035C56.479,4.4,56.484,4.848,56.487,5.3Z"/>
            <path class="cls-13" d="M53.618,24.653c-.777-.19-1.626-.288-2.4-.478,0-.269,0-.54-.007-.808.7-.351.907-1.066,2.75.032A5.841,5.841,0,0,0,53.618,24.653Z"/>
            <path class="cls-13" d="M48.939,30.161q-1.385-1.089-2.767-2.184c-.07,0-.211-.006-.282-.006a23.576,23.576,0,0,1-2.393.416c-.206.719-.411,1.437-.688,2.153-1.969.605-3.151,2.741-5.689,2.533.369,1.89-2.257-.3-1.672,2.137-4.066,2.823-8.126-2.164-12.191.752-.775.079-1.836-.381-2.393.328.5,1.172,1.628,1.01,1.709,2.176l.012,1.345c-.914.262-1.759.516-2.673.78a7.9,7.9,0,0,1-1-1.271c.061-.987.194-2.06.256-3.049,2.23-2.935,3.488-4.178,5.392-4.244.772-.35,1.615-.79,2.387-1.228-.778-.281-1.626-.559-2.405-.926-.006-.809-.014-1.706-.021-2.516a11.884,11.884,0,0,1,1.333-.882c.7.01,1.41.018,2.043.023a16.439,16.439,0,0,1,2.049.477c1.688-.52,2.949-1.4,4.709-1.651,0-.179,0-.359,0-.449.212,0,.423,0,.7.009,1.339.015,2.677.032,4.018.044.705-.166,1.407-.338,2.04-.423a8.3,8.3,0,0,1,1.345.466,22.351,22.351,0,0,1,2.392-.419,5.8,5.8,0,0,1,.7-.441c.635.187,1.341.286,1.978.472,0,.449.005.9.011,1.257.708.457,1.415.914,2.055,1.368C49.558,28.194,49.283,29.177,48.939,30.161Z"/>
            <path class="cls-14" d="M33.9,10.594c-3.165.952-4.846,2.275-7.095,2.967-1.269.073-2.465.24-3.732.406.082,1.436-1.614.969-2.381,2.124,1.058.105,2.047.294,3.106.487.219.808.438,1.71.656,2.52-1.333.792-2.818.327-4.016.4-.708-.458-1.415-.826-2.054-1.284-.493,0-.916-.013-1.339-.012-.637-.1-.91.8-1.4,1.238-.634-.01-1.34-.015-1.973-.023.2-.807.408-1.7.612-2.6-.635,0-1.34-.016-2.045-.023l-.282,0c0-.359-.006-.808-.011-1.256-.006-.9-.014-1.707-.021-2.6-.441-2.248-.938-2.614-.733-3.418a11.4,11.4,0,0,1,1.332-.883L13.6,10.8c1.48.019,3.034.4,4.008-1.2q-.009-1.077-.019-2.155c1.269.015,2.468.029,3.737.042,1.266-.343,2.463-.6,3.729-.853a4.288,4.288,0,0,1,3.024-.771c1.126-.348,2.252-.6,3.377-.858.706.011,1.341.017,2.045.025.009.987.017,1.974.026,3.054a21.283,21.283,0,0,0-2.053-.924,6.406,6.406,0,0,1-.694,1.25C31.353,9.215,31.3,10.742,33.9,10.594Z"/>
            <path class="cls-13" d="M17.592,7.439q.009,1.077.019,2.155c-.974,1.6-2.528,1.224-4.008,1.205L12.527,8.634c.773-.259,1.617-.518,2.39-.781C15.262,7.05,16.677,7.519,17.592,7.439Z"/>
            <path class="cls-13" d="M13.675,19.421c-.282,0-.5-.006-.706-.011-1.129-.1-2.259-.3-3.388-.487.77-.71,1.539-1.42,2.379-2.128l.282,0c.7.007,1.41.019,2.045.023C14.083,17.72,13.879,18.614,13.675,19.421Z"/>
            <path class="cls-13" d="M11.928,12.935c.007.9.015,1.706.021,2.6-.85-.461-1.628-.917-2.406-1.284a9.259,9.259,0,0,1,.341-1.344c.413-1.16.9-2.233,1.311-3.394C10.99,10.321,11.487,10.687,11.928,12.935Z"/>
            <path class="cls-13" d="M8.245,19.355c-2.04.425-3.3,1.666-4.435.843,0-.356,0-.627-.01-1.343a16.544,16.544,0,0,0,.691-1.7c1.273.554,2.478,1.2,3.751,1.75C8.244,19.087,8.245,19.264,8.245,19.355Z"/>
            <path class="cls-16" d="M208.8,11.417c-.913.442-1.756.879-2.669,1.227-.353,0-.7-.009-1.058-.015,0-.357-.007-.8-.014-1.706.7-.8,1.325-1.689,2.023-2.577.422,0,.914.011,1.339.013C208.575,9.35,208.724,10.43,208.8,11.417Z"/>
            <path class="cls-16" d="M152.323,18.105c-.777-.1-1.043,1.693-3.028.325a15.4,15.4,0,0,0,1.047-1.244A19.908,19.908,0,0,1,152.323,18.105Z"/>
            <path class="cls-16" d="M23.674,43.683a5.521,5.521,0,0,0-3.356,3.372c.007.987.016,2.065.026,3.056-.354-.007-.707-.013-1.058-.016-.572-.905-.794-2.251-1.706-1.726-.913.44-1.756.79-2.669,1.226-.147-.719-.223-1.44-.371-2.159-1.453-5.224,3.937-1.21,3.341-5.077-.562.085-1.125.257-1.688.338.343-1.16-.577-1.62-.655-2.521.066-.358.207-.626.274-.892.918.008,1.833.019,2.751.031.069,0,.21,0,.353.005a7.9,7.9,0,0,0,1,1.271c.516,2.876,2.131,1.908,3.049,2.189A4.033,4.033,0,0,0,23.674,43.683Z"/>
            <path class="cls-16" d="M11.96,16.8c-.84.708-1.609,1.418-2.379,2.128-.141,0-.212,0-.353,0,.129-1.527.187-3.14.315-4.664.778.367,1.556.823,2.406,1.284C11.954,15.987,11.957,16.436,11.96,16.8Z"/>
            <path class="cls-16" d="M9.81,46.571c0,.091,0,.271,0,.36l-1.339-.015C8.115,46.1,7.755,45.2,7.4,44.388c.776.012,1.621.022,2.4.03C9.8,45.136,9.8,45.762,9.81,46.571Z"/>
            <path class="cls-14" d="M67.372,8.838c-.564-.1-1.129-.282-1.694-.379.2-.627.413-1.165.618-1.787C66.654,7.4,67.014,8.115,67.372,8.838Z"/>
            <path class="cls-14" d="M45.986,5.624c-.914.254-1.758.516-2.672.775l-2.679-.036c0,.184,0,.361,0,.451-1.819,1.773-2.41-1.645-5.083-.87A9.422,9.422,0,0,1,35.192,4.6c2.179-.783,3.441-1.576,5.065-1.2l6.064.072C46.257,4.189,46.122,4.906,45.986,5.624Z"/>
            <path class="cls-14" d="M40.731,18.036c-.7-.007-1.409-.017-2.043-.025-.5-.545-.927-1.178-1.355-1.722-3.462-1.208-5.2,2.181-8.173.353,0-.358-.006-.627-.008-.9,1.267-.257,2.463-.51,3.729-.853,2.109-.7,5.215-.209,7.825.092C40.715,15.973,40.723,17.048,40.731,18.036Z"/>
            <path class="cls-14" d="M34.659,25.324c-1.76.251-3.021,1.131-4.709,1.651A16.439,16.439,0,0,0,27.9,26.5c-.633-.005-1.339-.013-2.043-.023,0-.448-.008-.9-.01-1.255a19.531,19.531,0,0,1,2.04-.424c.7-.624,1.33-1.152,2.029-1.681,1.267-.344,2.463-.6,3.729-.855.361.9.65,1.712,1.01,2.615C34.656,24.965,34.658,25.145,34.659,25.324Z"/>
            <path class="cls-14" d="M26.951,30.8c-1.256,1.689-1.819,1.682-2.387,1.228-1.9.066-3.162,1.309-5.392,4.244-.92-.281-1.768-.559-2.687-.84-.144-.452-.219-.9-.363-1.35Q16.113,33,16.1,31.927c-.276.8.426.362.7-.352.062-.895-.3-2.067.33-2.6.353.006.774-.081,1,2.166.353.006.706.011.989.012.763-1.338,1.6-2.584,2.364-3.832.987.013,2.043.024,3.031.036.007.81.015,1.707.021,2.516C25.325,30.24,26.173,30.518,26.951,30.8Z"/>
            <path class="cls-14" d="M13.109,36.2c-.213,0-.423,0-.706-.011-.767.98-1.534,2.049-2.3,3.026l-.352,0c-1.127.074-2.254.242-3.381.409-.99-.461-2.051-.922-3.043-1.386,0-.266,0-.535-.007-.809-.5-1.438-.94-2.88-1.375-4.32.624-1.34,1.319-2.592,1.943-3.839a8.181,8.181,0,0,0-.642-.906L2.187,28.35c-1.559-1.1-.8-3.154-1.027-4.77.419-.534.907-1.156,1.327-1.689.635.277.982-.44,1.323-1.693,1.136.823,2.4-.418,4.435-.843.088,2.063.246,4.044.4,6.018a12.1,12.1,0,0,1-1.4.881c.007.9.014,1.706.021,2.6.777.013,1.623.022,2.4.03a3.838,3.838,0,0,1,2.4.839c0,.178,0,.356,0,.448.077.9.226,1.707.3,2.607.356.45.713.9,1.068,1.27C13.308,34.764,13.173,35.482,13.109,36.2Z"/>
            <path class="cls-14" d="M10.192,49.986a14.41,14.41,0,0,0-1.686.881c-.011-1.348-.021-2.607-.032-3.951l1.339.015C9.891,47.921,10.042,49,10.192,49.986Z"/>
            <path class="cls-17" d="M93.724,7.447c-1.119.885-2.242,1.677-3.36,2.561-.072,0-.212,0-.355,0a7.907,7.907,0,0,1-.64-.905c-.007-.808-.015-1.7-.021-2.515q2.007.026,4.018.047A4.116,4.116,0,0,1,93.724,7.447Z"/>
            <path class="cls-17" d="M18.916,39.32c-.143,0-.284,0-.353-.005-.918-.012-1.833-.023-2.751-.031-.074-.539-.221-1.171-.3-1.71.277-.715.623-1.43.969-2.143.919.281,1.767.559,2.687.84C19.11,37.26,18.977,38.333,18.916,39.32Z"/>
            <path class="cls-17" d="M11.82,42.287c-.282,0-.494-.005-.706-.007a9.149,9.149,0,0,0-.994-.912c-.007-.717-.011-1.436-.018-2.154.767-.977,1.534-2.046,2.3-3.026.283.006.493.007.706.011,0,.179,0,.357,0,.449.223,1.348.445,2.609.736,3.869C13.148,41.134,12.449,41.667,11.82,42.287Z"/>
            <path class="cls-15" d="M26.353,43.718a19.2,19.2,0,0,1-1.682,1.234c.15.991.229,2.068.377,3.058-.774-.009-1.621-.019-2.4-.031-.559.442-.483,1.165-.972,1.7-.351.176-.7.262-.983.438-.141,0-.282,0-.352,0-.01-.991-.019-2.069-.026-3.056a5.521,5.521,0,0,1,3.356-3.372,4.033,4.033,0,0,1-.713-.9q-.846-.009-1.692-.021c-1.263.7-1.488-1.005-1.357-2.168.914-.264,1.759-.518,2.673-.78l-.012-1.345c.494-.084.914-.258,1.408-.343,2.036-.873,2.555,2.184,5.09,1.766.36.993-.7,1.25-.691,1.7a19.368,19.368,0,0,0-2.038.871C26.345,42.818,26.35,43.269,26.353,43.718Z"/>
            <path class="cls-11" d="M25.048,48.01q.009,1.074.019,2.157c-1.129-.2-2.258-.3-3.388-.492.489-.531.413-1.254.972-1.7C23.427,47.991,24.274,48,25.048,48.01Z"/>
            <path class="cls-12" d="M158.636,39.724c-.706-.007-1.34-.014-2.044-.025C157.226,39.8,156.72,38.086,158.636,39.724Z"/>
            <path class="cls-12" d="M30.839,49.337a4.987,4.987,0,0,1-5.772.83q-.009-1.082-.019-2.157c1.272.1,2.47.3,3.741.493C29.427,48.779,30.134,49.057,30.839,49.337Z"/>
            <path class="cls-15" d="M46.947,36.6c-1.469,1.332-2.244,1.324-3.021,1.316C42.768,34.22,45.6,35.058,46.947,36.6Z"/>
            <path class="cls-15" d="M170.718,26.044A18.972,18.972,0,0,0,169.3,24.77c.416-.892.546-2.327,1.679-1.775a14.354,14.354,0,0,0,1.695.471C172.684,25.263,171.053,23.984,170.718,26.044Z"/>
            <path class="cls-13" d="M111.787,17.624c-.636-.1-.912.8-1.4,1.239-.565-.184-1.13-.281-1.695-.466q-1.158.656-2.316,1.319c-.286-.365-.5-.636-.713-.907-1.12.794-2.676.237-4.013.4-.709-.369-1.416-.643-2.054-.921.566.006.912-.8,1.331-1.243,1.55.021,3.172.039,4.722.057a6.748,6.748,0,0,1,3.039.845C109.46,17.868,109.8,16.7,111.787,17.624Z"/>
          </g>
        </g>
      </g>
    </g>
  </g>
</svg>
